<?xml version="1.0" standalone="no"?>
<!DOCTYPE svg
  PUBLIC '-//W3C//DTD SVG 1.1//EN'
  'http://www.w3.org/Graphics/SVG/1.1/DTD/svg11.dtd'><svg version="1.1" xmlns="http://www.w3.org/2000/svg"><defs><font horiz-adv-x="0" id="font"><font-face ascent="750" bbox="-213 -322 1195 980" cap-height="700" descent="-250" font-family="New Transport WEB Bold" font-stretch="normal" font-style="normal" font-weight="700" units-per-em="1000" x-height="511" /><missing-glyph d="M575 0 75 0V700H575ZM506 661 143 661L325 385ZM119 73 301 350L119 627ZM529 624 348 350L529 76ZM507 38 325 314L143 38Z" horiz-adv-x="650" /><glyph d="" glyph-name=".null" horiz-adv-x="0" unicode="" /><glyph d="" glyph-name="nonmarkingreturn" horiz-adv-x="250" unicode="" /><glyph d="" glyph-name="space" horiz-adv-x="221" unicode=" " /><glyph d="M217 236 75 236V700H217ZM239 83Q239 44 212 17Q185 -10 147 -10Q128 -10 111 -2.5Q94 5 81 18Q68 31 60.5 47.5Q53 64 53 83Q53 102 61 118.5Q69 135 82 147.5Q95 160 112 167Q129 174 147 174Q165 174 182 167Q199 160 211.5 147.5Q224 135 231.5 118.5Q239 102 239 83Z" glyph-name="exclam" horiz-adv-x="292" unicode="!" /><glyph d="M403 426 266 426V700H403ZM196 426 58 426V700H196Z" glyph-name="quotedbl" horiz-adv-x="461" unicode="&quot;" /><glyph d="M274 410 253 290H389L410 410ZM202 0 95 0L129 195H19L36 290H146L167 410H57L74 505H184L218 700H325L291 505H427L461 700H568L534 505H643L626 410H517L496 290H605L588 195H479L445 0H338L372 195H236Z" glyph-name="numbersign" horiz-adv-x="663" unicode="#" /><glyph d="M207 509Q207 480 227.5 461.5Q248 443 294 434V583Q252 578 229.5 557.5Q207 537 207 509ZM461 199Q461 261 374 276V117Q416 125 438.5 147Q461 169 461 199ZM374 -100 294 -100V-8Q206 -1 137.5 32Q69 65 27 122L138 211Q167 174 207.5 149.5Q248 125 294 118V291L247 300Q154 317 104.5 367.5Q55 418 55 499Q55 541 72 577Q89 613 120.5 641Q152 669 196 687Q240 705 294 709V801H374V708Q447 701 506.5 674.5Q566 648 604 605L491 521Q470 543 440 558.5Q410 574 374 581V419L424 410Q517 393 566.5 342.5Q616 292 616 217Q616 171 598 131.5Q580 92 548 62.5Q516 33 471.5 14.5Q427 -4 374 -8Z" glyph-name="dollar" horiz-adv-x="651" unicode="$" /><glyph d="M370 523Q370 483 357.5 449Q345 415 322.5 390Q300 365 269 350.5Q238 336 201 336Q164 336 132.5 350Q101 364 78.5 389Q56 414 43.5 448.5Q31 483 31 523Q31 564 43.5 598Q56 632 78.5 657Q101 682 132.5 696Q164 710 201 710Q238 710 269 695.5Q300 681 322.5 656Q345 631 357.5 597Q370 563 370 523ZM691 700 237 0H131L586 700ZM131 523Q131 478 149.5 452Q168 426 200 426Q233 426 251.5 452Q270 478 270 523Q270 568 251.5 594.5Q233 621 200 621Q168 621 149.5 594.5Q131 568 131 523ZM791 177Q791 137 778.5 102.5Q766 68 743.5 43Q721 18 690.5 4Q660 -10 623 -10Q584 -10 552.5 4.5Q521 19 498.5 44.5Q476 70 464 104Q452 138 452 177Q452 216 464.5 250Q477 284 499.5 309Q522 334 553.5 348.5Q585 363 623 363Q660 363 690.5 348.5Q721 334 743.5 309Q766 284 778.5 250Q791 216 791 177ZM553 177Q553 132 571.5 105.5Q590 79 621 79Q654 79 672.5 105.5Q691 132 691 177Q691 222 672.5 248.5Q654 275 621 275Q590 275 571.5 248.5Q553 222 553 177Z" glyph-name="percent" horiz-adv-x="821" unicode="%" /><glyph d="M268 545Q268 536 269.5 528Q271 520 275.5 510Q280 500 289.5 488.5Q299 477 314 460Q348 479 366 501Q384 523 384 545Q384 569 367.5 585Q351 601 327 601Q302 601 285 585.5Q268 570 268 545ZM269 315Q187 264 187 204Q187 183 195.5 165.5Q204 148 218.5 136Q233 124 252 117Q271 110 292 110Q326 110 354.5 120.5Q383 131 409 156ZM493 67Q446 29 392.5 9.5Q339 -10 282 -10Q229 -10 185 5.5Q141 21 109.5 49Q78 77 61 114.5Q44 152 44 196Q44 256 82 307.5Q120 359 194 399Q159 438 144 471Q129 504 129 540Q129 577 143.5 608.5Q158 640 184 662.5Q210 685 245.5 697.5Q281 710 323 710Q366 710 401 697.5Q436 685 460.5 664Q485 643 498.5 614Q512 585 512 552Q512 500 480 455.5Q448 411 385 377L489 263Q515 319 524 379H662Q647 263 579 166L596 146Q621 118 650 118Q662 118 670.5 119Q679 120 687 122V2Q663 -4 630 -4Q589 -4 558.5 11.5Q528 27 493 67Z" glyph-name="ampersand" horiz-adv-x="711" unicode="&amp;" /><glyph d="M196 426 58 426V700H196Z" glyph-name="quotesingle" horiz-adv-x="254" unicode="'" /><glyph d="M182 279Q182 64 334 -134L233 -198Q133 -86 83 33.5Q33 153 33 279Q33 404 83 524Q133 644 233 756L334 692Q256 589 219 489Q182 389 182 279Z" glyph-name="parenleft" horiz-adv-x="342" unicode="(" /><glyph d="M160 279Q160 389 123 489Q86 589 8 692L109 756Q209 644 259 524Q309 404 309 279Q309 153 259 33.5Q209 -86 109 -198L8 -134Q160 66 160 279Z" glyph-name="parenright" horiz-adv-x="342" unicode=")" /><glyph d="M252 411 165 275L62 354L179 465L34 499L76 614L208 547L187 700H317L295 547L426 614L470 499L324 465L442 354L338 275Z" glyph-name="asterisk" horiz-adv-x="504" unicode="*" /><glyph d="M339 125 210 125V291H47V409H210V574H339V409H503V291H339Z" glyph-name="plus" horiz-adv-x="550" unicode="+" /><glyph d="M32 -87Q70 -56 87 -38Q104 -20 104 -9Q104 -3 101.5 2.5Q99 8 89 15Q62 33 51 51Q40 69 40 90Q40 126 66.5 150Q93 174 129 174Q150 174 168 166Q186 158 199.5 143.5Q213 129 220.5 110Q228 91 228 70Q228 12 194.5 -37Q161 -86 89 -131Z" glyph-name="comma" horiz-adv-x="270" unicode="," /><glyph d="M309 216 56 216V341H309Z" glyph-name="hyphen" horiz-adv-x="365" unicode="-" /><glyph d="M227 82Q227 64 219 47Q211 30 198 17.5Q185 5 168 -2.5Q151 -10 133 -10Q115 -10 98 -2.5Q81 5 68 17.5Q55 30 47 47Q39 64 39 82Q39 101 47 117.5Q55 134 68 146.5Q81 159 98 166.5Q115 174 133 174Q151 174 168 166.5Q185 159 198 146.5Q211 134 219 117.5Q227 101 227 82Z" glyph-name="period" horiz-adv-x="266" unicode="." /><glyph d="M136 -55 23 -55L272 755H386Z" glyph-name="slash" horiz-adv-x="408" unicode="/" /><glyph d="M46 349Q46 512 119 610Q192 710 323 710Q454 710 526 611Q600 513 600 351Q600 189 526 90Q454 -10 323 -10Q191 -10 119 88Q46 186 46 349ZM455 351Q455 464 420 526Q384 589 323 589Q262 589 226 525Q190 462 190 349Q190 235 225 173Q260 111 323 111Q384 111 420 174Q455 239 455 351Z" glyph-name="zero" horiz-adv-x="646" unicode="0" /><glyph d="M296 0 156 0V479H28V589H71Q178 589 178 690V700H296Z" glyph-name="one" horiz-adv-x="383" unicode="1" /><glyph d="M576 121 576 0H66V109Q161 175 228 226.5Q295 278 338 320.5Q381 363 400.5 400.5Q420 438 420 477Q420 526 388.5 557.5Q357 589 305 589Q252 589 217.5 555Q183 521 183 463Q183 457 183.5 450.5Q184 444 185 438L52 444Q51 451 51 457.5Q51 464 51 471Q51 525 69.5 569Q88 613 122.5 644.5Q157 676 205 693Q253 710 312 710Q368 710 414 692.5Q460 675 493.5 644.5Q527 614 545.5 573Q564 532 564 484Q564 434 547.5 390Q531 346 496.5 303Q462 260 407.5 216.5Q353 173 278 123V121Z" glyph-name="two" horiz-adv-x="613" unicode="2" /><glyph d="M305 589Q263 589 227.5 568Q192 547 178 514L49 549Q63 585 88.5 614.5Q114 644 148.5 665.5Q183 687 225 698.5Q267 710 313 710Q367 710 411.5 695.5Q456 681 488 655Q520 629 537.5 593Q555 557 555 514Q555 466 528.5 427.5Q502 389 461 367V365Q511 348 540.5 306Q570 264 570 213Q570 164 550 122.5Q530 81 494.5 52Q459 23 410.5 6.5Q362 -10 305 -10Q255 -10 210.5 2Q166 14 130.5 36Q95 58 69.5 90Q44 122 32 162L164 204Q179 161 216.5 136Q254 111 305 111Q357 111 391.5 137.5Q426 164 426 209Q426 252 393.5 277.5Q361 303 307 303H253V416H307Q358 416 384 438.5Q410 461 410 503Q410 543 380 566Q350 589 305 589Z" glyph-name="three" horiz-adv-x="616" unicode="3" /><glyph d="M367 163 29 163V295L330 700H504V283H608V163H504V0H367ZM365 560 159 285V283H367V560Z" glyph-name="four" horiz-adv-x="639" unicode="4" /><glyph d="M58 344 91 700H526V579H194L180 440H182Q244 482 323 482Q373 482 416.5 464.5Q460 447 492.5 415.5Q525 384 543.5 341Q562 298 562 247Q562 194 543 147Q524 100 488.5 65Q453 30 403.5 10Q354 -10 292 -10Q192 -10 126 33Q60 76 36 148L164 197Q178 159 211.5 135Q245 111 289 111Q318 111 341.5 121Q365 131 381.5 149Q398 167 407.5 191Q417 215 417 243Q417 270 407 293Q397 316 380.5 333.5Q364 351 341.5 360.5Q319 370 293 370Q263 370 234 357.5Q205 345 182 320Z" glyph-name="five" horiz-adv-x="602" unicode="5" /><glyph d="M594 239Q594 185 573.5 139.5Q553 94 518 61Q483 28 435 9Q387 -10 332 -10Q268 -10 215 13Q162 36 124.5 79Q87 122 66.5 184Q46 246 46 323Q46 414 66.5 483.5Q87 553 123 602Q161 654 217.5 682Q274 710 349 710Q428 710 489.5 674Q551 638 584 575L455 528Q434 562 406 577.5Q378 593 342 593Q276 593 234 536.5Q192 480 189 382H191Q214 418 261.5 441.5Q309 465 362 465Q411 465 453 447.5Q495 430 526.5 400Q558 370 576 328.5Q594 287 594 239ZM206 228Q206 201 215.5 178.5Q225 156 241.5 139Q258 122 280.5 112.5Q303 103 330 103Q356 103 378 112.5Q400 122 416.5 139Q433 156 442 178.5Q451 201 451 228Q451 255 441.5 278Q432 301 416 318.5Q400 336 378 345.5Q356 355 330 355Q276 355 241 319Q206 283 206 228Z" glyph-name="six" horiz-adv-x="635" unicode="6" /><glyph d="M268 0 110 0L370 579H26V700H518V587Z" glyph-name="seven" horiz-adv-x="540" unicode="7" /><glyph d="M600 203Q600 155 579.5 115.5Q559 76 522.5 48Q486 20 435 5Q384 -10 324 -10Q263 -10 212 5.5Q161 21 124 48.5Q87 76 67 115.5Q47 155 47 203Q47 229 56 254Q65 279 80.5 300.5Q96 322 117 338Q138 354 163 363V365Q117 384 88.5 423Q60 462 60 512Q60 556 80 592Q100 628 135 654.5Q170 681 218.5 695.5Q267 710 324 710Q380 710 428 695.5Q476 681 511.5 655Q547 629 567.5 592.5Q588 556 588 512Q588 465 560.5 425Q533 385 485 365V363Q510 355 531 338.5Q552 322 567.5 300.5Q583 279 591.5 254Q600 229 600 203ZM202 503Q202 463 236.5 438.5Q271 414 324 414Q376 414 411 439Q446 464 446 503Q446 523 436.5 539Q427 555 410.5 566.5Q394 578 371.5 584.5Q349 591 324 591Q271 591 236.5 566.5Q202 542 202 503ZM192 207Q192 162 229.5 135.5Q267 109 324 109Q380 109 417.5 135.5Q455 162 455 207Q455 230 445 248.5Q435 267 417 280Q399 293 375 300Q351 307 324 307Q296 307 272 300Q248 293 230 280Q212 267 202 248.5Q192 230 192 207Z" glyph-name="eight" horiz-adv-x="647" unicode="8" /><glyph d="M41 461Q41 515 61.5 560.5Q82 606 117 639Q152 672 200 691Q248 710 303 710Q367 710 420 687Q473 664 510.5 621Q548 578 568.5 516Q589 454 589 377Q589 286 568.5 216.5Q548 147 512 98Q474 46 417.5 18Q361 -10 286 -10Q207 -10 145.5 26Q84 62 51 125L180 172Q201 138 229 122.5Q257 107 293 107Q359 107 401 163.5Q443 220 446 318H444Q421 282 373.5 258.5Q326 235 273 235Q224 235 182 252.5Q140 270 108.5 300Q77 330 59 371.5Q41 413 41 461ZM429 472Q429 499 419.5 521.5Q410 544 393.5 561Q377 578 354.5 587.5Q332 597 305 597Q279 597 257 587.5Q235 578 218.5 561Q202 544 193 521.5Q184 499 184 472Q184 445 193.5 422Q203 399 219 381.5Q235 364 257.5 354.5Q280 345 305 345Q359 345 394 381Q429 417 429 472Z" glyph-name="nine" horiz-adv-x="635" unicode="9" /><glyph d="M241 82Q241 64 233 47Q225 30 212 17.5Q199 5 182 -2.5Q165 -10 147 -10Q129 -10 112 -2.5Q95 5 82 17.5Q69 30 61 47Q53 64 53 82Q53 101 61 117.5Q69 134 82 146.5Q95 159 112 166.5Q129 174 147 174Q165 174 182 166.5Q199 159 212 146.5Q225 134 233 117.5Q241 101 241 82ZM241 426Q241 408 233 391Q225 374 212 361.5Q199 349 182 341.5Q165 334 147 334Q129 334 112 341.5Q95 349 82 361.5Q69 374 61 391Q53 408 53 426Q53 445 61 461.5Q69 478 82 490.5Q95 503 112 510.5Q129 518 147 518Q165 518 182 510.5Q199 503 212 490.5Q225 478 233 461.5Q241 445 241 426Z" glyph-name="colon" horiz-adv-x="294" unicode=":" /><glyph d="M46 -87Q84 -56 101 -38Q118 -20 118 -9Q118 -3 115.5 2.5Q113 8 103 15Q76 33 65 51Q54 69 54 90Q54 126 80.5 150Q107 174 143 174Q164 174 182 166Q200 158 213.5 143.5Q227 129 234.5 110Q242 91 242 70Q242 12 208.5 -37Q175 -86 103 -131ZM242 426Q242 408 234 391Q226 374 213 361.5Q200 349 183 341.5Q166 334 148 334Q130 334 113 341.5Q96 349 83 361.5Q70 374 62 391Q54 408 54 426Q54 445 62 461.5Q70 478 83 490.5Q96 503 113 510.5Q130 518 148 518Q166 518 183 510.5Q200 503 213 490.5Q226 478 234 461.5Q242 445 242 426Z" glyph-name="semicolon" horiz-adv-x="297" unicode=";" /><glyph d="M489 263 489 120L31 289V410L489 577V436L222 350Z" glyph-name="less" horiz-adv-x="550" unicode="&lt;" /><glyph d="M503 390 47 390V509H503ZM503 190 47 190V309H503Z" glyph-name="equal" horiz-adv-x="550" unicode="=" /><glyph d="M519 289 61 120V263L327 350L61 436V577L519 410Z" glyph-name="greater" horiz-adv-x="550" unicode="&gt;" /><glyph d="M322 236 186 236V269Q186 288 189.5 305Q193 322 202 340Q211 358 226.5 378.5Q242 399 266 425Q284 444 294.5 457.5Q305 471 310.5 481Q316 491 318 499Q320 507 320 515Q320 544 300 561Q280 578 248 578Q215 578 185.5 559Q156 540 134 505L27 580Q42 609 66.5 633Q91 657 121.5 674Q152 691 187 700.5Q222 710 259 710Q304 710 342.5 696.5Q381 683 408.5 659Q436 635 452 602.5Q468 570 468 532Q468 486 448 447.5Q428 409 379 362Q347 331 334.5 306Q322 281 322 250ZM348 83Q348 65 340.5 48Q333 31 320.5 18Q308 5 291 -2.5Q274 -10 255 -10Q236 -10 219.5 -2.5Q203 5 190 18Q177 31 169.5 47.5Q162 64 162 83Q162 102 169.5 118.5Q177 135 190 147.5Q203 160 219.5 167Q236 174 255 174Q274 174 291 166.5Q308 159 320.5 146.5Q333 134 340.5 117.5Q348 101 348 83Z" glyph-name="question" horiz-adv-x="503" unicode="?" /><glyph d="M712 2Q667 2 635.5 22Q604 42 593 68H591Q569 38 531.5 20Q494 2 451 2Q402 2 362 21Q322 40 293.5 73.5Q265 107 249.5 152.5Q234 198 234 250Q234 305 249.5 350.5Q265 396 293.5 429Q322 462 361 480.5Q400 499 447 499Q482 499 514.5 485Q547 471 567 448H569V490H691V131Q691 109 702.5 95.5Q714 82 734 82Q754 82 770.5 97.5Q787 113 798 139Q809 165 815 200.5Q821 236 821 275Q821 352 796 415Q771 478 726 522.5Q681 567 618 591.5Q555 616 478 616Q403 616 338.5 587Q274 558 227 508Q180 458 153.5 391.5Q127 325 127 249Q127 172 155 105Q183 38 232 -11.5Q281 -61 347.5 -89Q414 -117 490 -117Q586 -117 663 -76L715 -133Q663 -161 605 -175.5Q547 -190 486 -190Q389 -190 307.5 -156Q226 -122 166.5 -63Q107 -4 74 76.5Q41 157 41 249Q41 340 74.5 420.5Q108 501 167.5 561Q227 621 307.5 655.5Q388 690 481 690Q572 690 649.5 660Q727 630 783 575.5Q839 521 871 445Q903 369 903 277Q903 219 889 168.5Q875 118 850 81Q825 44 789.5 23Q754 2 712 2ZM470 111Q518 111 544.5 141Q571 171 571 225V275Q571 329 544.5 359.5Q518 390 470 390Q418 390 389 352.5Q360 315 360 252V248Q360 185 389.5 148Q419 111 470 111Z" glyph-name="at" horiz-adv-x="948" unicode="@" /><glyph d="M332 564 330 564L241 258H420ZM655 0 495 0L454 142H207L166 0H14L235 700H434Z" glyph-name="A" horiz-adv-x="669" unicode="A" /><glyph d="M76 0 76 700H379Q426 700 466 686.5Q506 673 535.5 648.5Q565 624 581.5 590.5Q598 557 598 517Q598 475 574 435.5Q550 396 510 377Q564 357 596.5 314.5Q629 272 629 209Q629 163 611 124.5Q593 86 560.5 58Q528 30 482.5 15Q437 0 381 0ZM451 498Q451 533 427.5 555.5Q404 578 357 578H219V417H357Q403 417 427 439.5Q451 462 451 498ZM481 211Q481 254 452.5 278Q424 302 378 302H219V121H379Q425 121 453 145Q481 169 481 211Z" glyph-name="B" horiz-adv-x="665" unicode="B" /><glyph d="M371 585Q329 585 295 567.5Q261 550 237 518.5Q213 487 200 444Q187 401 187 350Q187 298 200 255Q213 212 237 181Q261 150 295 132.5Q329 115 371 115Q425 115 465.5 145.5Q506 176 527 230L662 185Q627 93 550.5 41.5Q474 -10 368 -10Q294 -10 233.5 16.5Q173 43 129.5 91Q86 139 62 205Q38 271 38 350Q38 428 62 494Q86 560 129.5 608Q173 656 233.5 683Q294 710 368 710Q474 710 550.5 658.5Q627 607 662 514L527 470Q506 524 465.5 554.5Q425 585 371 585Z" glyph-name="C" horiz-adv-x="685" unicode="C" /><glyph d="M76 0 76 700H350Q427 700 489 675.5Q551 651 595 605Q639 559 663 494.5Q687 430 687 350Q687 270 663 205.5Q639 141 595 95Q551 49 489 24.5Q427 0 350 0ZM219 578 219 122H328Q431 122 484.5 182.5Q538 243 538 350Q538 454 485 516Q432 578 328 578Z" glyph-name="D" horiz-adv-x="726" unicode="D" /><glyph d="M571 0 76 0V700H561V572H219V417H500V295H219V127H571Z" glyph-name="E" horiz-adv-x="606" unicode="E" /><glyph d="M219 0 76 0V700H541V572H219V399H500V277H219Z" glyph-name="F" horiz-adv-x="568" unicode="F" /><glyph d="M565 0 565 88H564Q534 40 480.5 15Q427 -10 359 -10Q287 -10 228 16.5Q169 43 126.5 90.5Q84 138 61 203.5Q38 269 38 347Q38 427 63 493.5Q88 560 133 608Q178 656 241 683Q304 710 380 710Q433 710 480.5 696.5Q528 683 567.5 658Q607 633 638 597Q669 561 687 516L552 472Q532 523 485.5 554Q439 585 384 585Q339 585 302.5 567.5Q266 550 240.5 518.5Q215 487 201 444Q187 401 187 349Q187 298 200.5 255Q214 212 239.5 180.5Q265 149 300.5 131.5Q336 114 379 114Q412 114 441.5 125.5Q471 137 493.5 157Q516 177 530 204.5Q544 232 547 263H374V375H684V0Z" glyph-name="G" horiz-adv-x="737" unicode="G" /><glyph d="M219 0 76 0V700H219V422H519V700H662V0H519V295H219Z" glyph-name="H" horiz-adv-x="738" unicode="H" /><glyph d="M219 0 76 0V700H219Z" glyph-name="I" horiz-adv-x="295" unicode="I" /><glyph d="M174 -10Q117 -10 73.5 0Q30 10 1 24L56 141Q102 115 156 115Q235 115 235 197V700H379V174Q379 87 325 38.5Q271 -10 174 -10Z" glyph-name="J" horiz-adv-x="450" unicode="J" /><glyph d="M219 0 76 0V700H219V385H221L489 700H666L424 422L683 0H511L319 317L219 205Z" glyph-name="K" horiz-adv-x="683" unicode="K" /><glyph d="M523 0 76 0V700H219V127H523Z" glyph-name="L" horiz-adv-x="539" unicode="L" /><glyph d="M429 206 221 487H219V0H76V700H234L436 420L636 700H789V0H646V487H644L436 206Z" glyph-name="M" horiz-adv-x="865" unicode="M" /><glyph d="M218 0 76 0V700H250L549 227H551V700H693V0H520L220 473H218Z" glyph-name="N" horiz-adv-x="769" unicode="N" /><glyph d="M375 710Q450 710 512 683Q574 656 618.5 608Q663 560 687.5 494Q712 428 712 350Q712 272 687.5 206Q663 140 618.5 92Q574 44 512 17Q450 -10 375 -10Q300 -10 238 16.5Q176 43 131.5 91Q87 139 62.5 205Q38 271 38 350Q38 429 62.5 495Q87 561 131.5 609Q176 657 238 683.5Q300 710 375 710ZM375 585Q333 585 298 567.5Q263 550 238.5 519Q214 488 200.5 444.5Q187 401 187 350Q187 298 200.5 255Q214 212 238.5 181Q263 150 297.5 132.5Q332 115 375 115Q418 115 453 132.5Q488 150 512.5 181.5Q537 213 550 256Q563 299 563 350Q563 400 550 443Q537 486 512.5 517.5Q488 549 453.5 567Q419 585 375 585Z" glyph-name="O" horiz-adv-x="750" unicode="O" /><glyph d="M219 0 76 0V700H347Q404 700 450.5 682.5Q497 665 530 634Q563 603 581 560Q599 517 599 466Q599 415 581 372Q563 329 530 298Q497 267 450.5 249.5Q404 232 347 232H219ZM450 466Q450 517 419.5 547.5Q389 578 334 578H219V354H334Q389 354 419.5 384.5Q450 415 450 466Z" glyph-name="P" horiz-adv-x="621" unicode="P" /><glyph d="M589 -71 517 19Q451 -10 375 -10Q300 -10 238 16.5Q176 43 131.5 91Q87 139 62.5 205Q38 271 38 350Q38 429 62.5 495Q87 561 131.5 609Q176 657 238 683.5Q300 710 375 710Q450 710 512 683Q574 656 618.5 608Q663 560 687.5 494Q712 428 712 350Q712 271 687 205Q662 139 617 91L686 5ZM375 585Q333 585 298 567.5Q263 550 238.5 519Q214 488 200.5 444.5Q187 401 187 350Q187 298 200.5 255Q214 212 238.5 181Q263 150 297.5 132.5Q332 115 375 115Q406 115 433 124L341 240L438 316L527 204Q544 233 553.5 270Q563 307 563 350Q563 400 550 443Q537 486 512.5 517.5Q488 549 453.5 567Q419 585 375 585Z" glyph-name="Q" horiz-adv-x="750" unicode="Q" /><glyph d="M219 578 219 369H342Q400 369 432.5 397.5Q465 426 465 474Q465 522 433 550Q401 578 343 578ZM219 0 76 0V700H367Q425 700 471 683.5Q517 667 549 638Q581 609 598 569Q615 529 615 482Q615 447 605.5 415Q596 383 578 356Q560 329 535 309.5Q510 290 479 279L650 0H485L338 250H219Z" glyph-name="R" horiz-adv-x="669" unicode="R" /><glyph d="M611 217Q611 167 590 125Q569 83 532 53Q495 23 444 6.5Q393 -10 333 -10Q233 -10 151.5 23.5Q70 57 22 122L133 211Q168 165 220.5 139.5Q273 114 330 114Q387 114 421.5 138Q456 162 456 199Q456 231 434 249.5Q412 268 364 277L242 299Q149 316 99.5 367Q50 418 50 499Q50 544 70 582.5Q90 621 126 649.5Q162 678 212.5 694Q263 710 324 710Q409 710 482.5 682Q556 654 599 605L486 521Q456 552 413 568.5Q370 585 320 585Q267 585 234.5 563.5Q202 542 202 509Q202 480 223 460.5Q244 441 301 431L419 410Q512 393 561.5 342.5Q611 292 611 217Z" glyph-name="S" horiz-adv-x="645" unicode="S" /><glyph d="M369 0 225 0V572H15V700H580V572H369Z" glyph-name="T" horiz-adv-x="595" unicode="T" /><glyph d="M360 114Q426 114 466.5 153.5Q507 193 507 264V700H646V249Q646 190 625.5 142Q605 94 567.5 60.5Q530 27 477.5 8.5Q425 -10 360 -10Q295 -10 241.5 8.5Q188 27 149.5 60.5Q111 94 90 142Q69 190 69 249V700H212V264Q212 194 251.5 154Q291 114 360 114Z" glyph-name="U" horiz-adv-x="715" unicode="U" /><glyph d="M649 700 420 0H244L15 700H175L333 164H335L496 700Z" glyph-name="V" horiz-adv-x="664" unicode="V" /><glyph d="M799 0 604 0L493 494H492L384 0H189L26 700H178L288 159H290L411 700H577L699 159H701L811 700H963Z" glyph-name="W" horiz-adv-x="988" unicode="W" /><glyph d="M636 0 471 0L317 252H316L163 0H1L230 364L20 700H186L325 470H326L461 700H624L412 360Z" glyph-name="X" horiz-adv-x="640" unicode="X" /><glyph d="M393 0 249 0V272L10 700H176L325 422H326L471 700H632L393 272Z" glyph-name="Y" horiz-adv-x="642" unicode="Y" /><glyph d="M592 0 36 0V117L393 572H48V700H575V582L219 127H592Z" glyph-name="Z" horiz-adv-x="626" unicode="Z" /><glyph d="M347 -166 75 -166V741H347V620H217V-47H347Z" glyph-name="bracketleft" horiz-adv-x="374" unicode="[" /><glyph d="M386 -55 272 -55L23 755H137Z" glyph-name="backslash" horiz-adv-x="410" unicode="\" /><glyph d="M299 -166 27 -166V-47H157V620H27V741H299Z" glyph-name="bracketright" horiz-adv-x="374" unicode="]" /><glyph d="M213 389 86 389L191 700H358L463 389H336L275 595Z" glyph-name="asciicircum" horiz-adv-x="550" unicode="^" /><glyph d="M400 -217 0 -217V-98H400Z" glyph-name="underscore" horiz-adv-x="400" unicode="_" /><glyph d="M347 639 294 560L65 676L136 780Z" glyph-name="grave" horiz-adv-x="412" unicode="`" /><glyph d="M252 406Q219 406 183 397Q147 388 102 367L44 466Q154 521 272 521Q358 521 409 480Q460 439 460 364V142Q460 91 510 80L456 -12Q420 -10 393.5 6.5Q367 23 353 50H351Q330 21 293 5Q256 -11 210 -11Q171 -11 138 1.5Q105 14 81 35.5Q57 57 43.5 87Q30 117 30 152Q30 219 76.5 260.5Q123 302 201 310L327 323V341Q327 406 252 406ZM327 228 234 215Q200 210 182 194Q164 178 164 153Q164 126 183.5 108.5Q203 91 237 91Q275 91 301 114.5Q327 138 327 175Z" glyph-name="a" horiz-adv-x="532" unicode="a" /><glyph d="M560 256Q560 199 543.5 150Q527 101 497.5 65Q468 29 427 9Q386 -11 336 -11Q294 -11 257 5.5Q220 22 197 50H195V0H63V700H196V460H198Q219 488 256 504.5Q293 521 336 521Q385 521 426 501.5Q467 482 497 446.5Q527 411 543.5 362.5Q560 314 560 256ZM306 105Q360 105 392.5 145Q425 185 425 256Q425 324 393.5 365Q362 406 306 406Q255 406 225.5 372Q196 338 196 281V229Q196 172 225.5 138.5Q255 105 306 105Z" glyph-name="b" horiz-adv-x="596" unicode="b" /><glyph d="M288 406Q234 406 201.5 365Q169 324 169 255Q169 186 201.5 145.5Q234 105 288 105Q360 105 391 177L502 123Q472 59 415.5 24.5Q359 -10 283 -10Q226 -10 180.5 10Q135 30 102.5 65.5Q70 101 52.5 149Q35 197 35 253Q35 312 53 361.5Q71 411 103.5 446.5Q136 482 182 501.5Q228 521 283 521Q359 521 415.5 487Q472 453 502 388L391 334Q360 406 288 406Z" glyph-name="c" horiz-adv-x="528" unicode="c" /><glyph d="M171 256Q171 187 202.5 146Q234 105 290 105Q342 105 371 138.5Q400 172 400 229V281Q400 339 371 372.5Q342 406 290 406Q233 406 202 365.5Q171 325 171 256ZM399 460 399 700H532V0H399V50H397Q375 22 338 5.5Q301 -11 259 -11Q210 -11 169 9Q128 29 98.5 64.5Q69 100 52.5 149Q36 198 36 256Q36 314 52.5 362.5Q69 411 98.5 446.5Q128 482 169 501.5Q210 521 259 521Q302 521 338.5 504.5Q375 488 396 460Z" glyph-name="d" horiz-adv-x="595" unicode="d" /><glyph d="M289 -11Q234 -11 187.5 8Q141 27 107 61Q73 95 54 143.5Q35 192 35 250Q35 310 53.5 360Q72 410 105 446Q138 482 183 501.5Q228 521 280 521Q332 521 375 502Q418 483 449 449Q480 415 497.5 367Q515 319 515 262V218H172Q177 166 212 136Q247 106 299 106Q332 106 364 119Q396 132 417 155L493 64Q409 -11 289 -11ZM280 411Q238 411 208.5 382Q179 353 173 307H384Q379 353 350.5 382Q322 411 280 411Z" glyph-name="e" horiz-adv-x="547" unicode="e" /><glyph d="M236 0 103 0V406H22V511H103V571Q103 642 145 680.5Q187 719 260 719Q288 719 318 715.5Q348 712 373 705L351 599Q320 605 309.5 606Q299 607 286 607Q236 607 236 552V511H342V406H236Z" glyph-name="f" horiz-adv-x="356" unicode="f" /><glyph d="M381 297Q381 350 353.5 380Q326 410 278 410Q227 410 199.5 374Q172 338 172 278Q172 217 200 181Q228 145 278 145Q326 145 353.5 175.5Q381 206 381 258ZM266 -175Q144 -175 54 -132L100 -20Q132 -36 174.5 -47.5Q217 -59 255 -59Q320 -59 350.5 -33Q381 -7 381 45V87H379Q359 62 326 48.5Q293 35 251 35Q204 35 165 52.5Q126 70 97.5 102Q69 134 53 178.5Q37 223 37 278Q37 332 52.5 377Q68 422 96.5 454Q125 486 164.5 503.5Q204 521 251 521Q291 521 324.5 507Q358 493 379 468H381V511H514V30Q514 -68 447.5 -121.5Q381 -175 266 -175Z" glyph-name="g" horiz-adv-x="577" unicode="g" /><glyph d="M196 0 63 0V700H196V459H198Q221 487 255.5 504Q290 521 333 521Q374 521 406.5 508Q439 495 461.5 472Q484 449 496 417Q508 385 508 346V0H375V307Q375 352 353 376Q331 400 291 400Q249 400 222.5 371.5Q196 343 196 294Z" glyph-name="h" horiz-adv-x="567" unicode="h" /><glyph d="M208 642Q208 610 184.5 588Q161 566 129 566Q97 566 74 588.5Q51 611 51 642Q51 674 74 696.5Q97 719 129 719Q160 719 184 696.5Q208 674 208 642ZM196 0 63 0V511H196Z" glyph-name="i" horiz-adv-x="259" unicode="i" /><glyph d="M208 642Q208 610 184.5 588Q161 566 129 566Q97 566 74 588.5Q51 611 51 642Q51 674 74 696.5Q97 719 129 719Q160 719 184 696.5Q208 674 208 642ZM63 511 196 511V-42Q196 -101 160 -132Q124 -163 61 -163Q20 -163 -27 -154L-8 -53Q-3 -54 3 -55Q8 -55 13.5 -55.5Q19 -56 25 -56Q63 -56 63 -18Z" glyph-name="j" horiz-adv-x="259" unicode="j" /><glyph d="M196 0 63 0V700H196V308H198L366 511H524L347 306L544 0H385L247 216L196 156Z" glyph-name="k" horiz-adv-x="540" unicode="k" /><glyph d="M234 101Q242 101 261 104L275 3Q251 -3 231.5 -5.5Q212 -8 196 -8Q130 -8 95.5 20Q61 48 61 105V700H194V138Q194 118 203 109.5Q212 101 234 101Z" glyph-name="l" horiz-adv-x="282" unicode="l" /><glyph d="M196 0 63 0V511H192V459H194Q215 487 249 504Q283 521 321 521Q364 521 398.5 502Q433 483 453 450H455Q482 484 521 502.5Q560 521 606 521Q687 521 735 472Q784 424 784 346V0H651V314Q651 356 631 378Q611 400 576 400Q536 400 513 374.5Q490 349 490 302V0H357V315Q357 357 337 378.5Q317 400 281 400Q242 400 219 373.5Q196 347 196 299Z" glyph-name="m" horiz-adv-x="843" unicode="m" /><glyph d="M196 0 63 0V511H192V459H194Q214 482 249 501.5Q284 521 332 521Q373 521 405.5 508Q438 495 461 472Q484 449 496 417Q508 385 508 346V0H375V307Q375 352 353 376Q331 400 291 400Q249 400 222.5 371.5Q196 343 196 294Z" glyph-name="n" horiz-adv-x="567" unicode="n" /><glyph d="M543 255Q543 197 524 148.5Q505 100 471.5 64.5Q438 29 391.5 9Q345 -11 289 -11Q233 -11 186 9Q139 29 105.5 64.5Q72 100 53.5 149Q35 198 35 255Q35 313 53.5 361.5Q72 410 106 445.5Q140 481 186.5 501Q233 521 289 521Q345 521 391.5 501Q438 481 471.5 446Q505 411 524 362Q543 313 543 255ZM170 255Q170 186 202.5 145.5Q235 105 289 105Q343 105 375.5 145.5Q408 186 408 255Q408 324 376.5 365Q345 406 289 406Q235 406 202.5 365Q170 324 170 255Z" glyph-name="o" horiz-adv-x="578" unicode="o" /><glyph d="M196 229Q197 172 225.5 138.5Q254 105 306 105Q360 105 392.5 145Q425 185 425 256Q425 324 393.5 365Q362 406 306 406Q255 406 225.5 372Q196 338 196 281ZM196 50 196 -153H63V511H196V460H198Q219 488 256 504.5Q293 521 336 521Q385 521 426 501.5Q467 482 497 446.5Q527 411 543.5 362.5Q560 314 560 256Q560 199 543.5 150Q527 101 497.5 65Q468 29 427 9Q386 -11 336 -11Q294 -11 257.5 5.5Q221 22 198 50Z" glyph-name="p" horiz-adv-x="596" unicode="p" /><glyph d="M401 460 401 511H533V-153H400V50H398Q375 22 339 5.5Q303 -11 261 -11Q211 -11 169.5 9.5Q128 30 98.5 65.5Q69 101 52.5 149.5Q36 198 36 255Q36 312 52.5 361Q69 410 99 445.5Q129 481 170.5 501Q212 521 262 521Q304 521 340.5 504.5Q377 488 399 460ZM171 256Q171 187 202.5 146Q234 105 290 105Q342 105 371 138.5Q400 172 400 229V281Q400 339 371 372.5Q342 406 290 406Q233 406 202 365.5Q171 325 171 256Z" glyph-name="q" horiz-adv-x="596" unicode="q" /><glyph d="M196 0 63 0V511H192V428H194Q212 473 250 496Q288 519 336 519Q340 519 345 519Q350 519 363 518V379Q361 379 349.5 379.5Q338 380 319 380Q259 380 227.5 344Q196 308 196 237Z" glyph-name="r" horiz-adv-x="379" unicode="r" /><glyph d="M463 159Q463 122 447.5 90.5Q432 59 403.5 36.5Q375 14 335.5 1.5Q296 -11 247 -11Q177 -11 117.5 12.5Q58 36 23 77L110 162Q140 130 177.5 113.5Q215 97 255 97Q287 97 307 110.5Q327 124 327 145Q327 163 314.5 174Q302 185 270 192L177 212Q111 226 77 265.5Q43 305 43 364Q43 397 58 426Q73 455 100 476Q127 497 164.5 509Q202 521 247 521Q310 521 363.5 503Q417 485 455 451L367 371Q341 392 310.5 403.5Q280 415 247 415Q217 415 197.5 402.5Q178 390 178 371Q178 337 224 327L317 307Q395 291 429 255Q463 219 463 159Z" glyph-name="s" horiz-adv-x="495" unicode="s" /><glyph d="M239 -10Q171 -10 135.5 20Q100 50 100 110V406H19V511H100V644L233 708V511H350V406H233V147Q233 104 281 104Q292 104 302 105.5Q312 107 328 112L342 5Q311 -5 288.5 -7.5Q266 -10 239 -10Z" glyph-name="t" horiz-adv-x="375" unicode="t" /><glyph d="M371 511 504 511V0H373V51H371Q350 23 314.5 6Q279 -11 237 -11Q197 -11 164 2.5Q131 16 107.5 40Q84 64 71.5 97.5Q59 131 59 171V511H192V203Q192 159 214.5 134Q237 109 277 109Q319 109 345 139Q371 169 371 216Z" glyph-name="u" horiz-adv-x="567" unicode="u" /><glyph d="M359 0 189 0L20 511H168L276 132H278L388 511H529Z" glyph-name="v" horiz-adv-x="549" unicode="v" /><glyph d="M655 0 488 0L408 345H406L326 0H160L23 511H162L245 138H247L334 511H483L573 138H575L660 511H792Z" glyph-name="w" horiz-adv-x="815" unicode="w" /><glyph d="M157 0 7 0L177 263L17 511H168L262 355H264L355 511H503L344 264L515 0H363L260 166H258Z" glyph-name="x" horiz-adv-x="522" unicode="x" /><glyph d="M320 -53Q283 -173 153 -173Q124 -173 94.5 -169.5Q65 -166 44 -160L66 -56Q94 -62 104.5 -63Q115 -64 129 -64Q182 -64 195 -18L200 1L17 511H160L268 170H270L363 511H499Z" glyph-name="y" horiz-adv-x="520" unicode="y" /><glyph d="M467 0 37 0V97L282 404H45V511H451V414L206 107H467Z" glyph-name="z" horiz-adv-x="500" unicode="z" /><glyph d="M109 173Q109 227 53 227H22V344H53Q109 344 109 398V614Q109 677 143.5 712.5Q178 748 252 748Q273 748 296.5 746.5Q320 745 346 740V627Q324 630 306 630Q277 630 264.5 617.5Q252 605 252 576V404Q252 310 176 286V284Q252 262 252 167V-5Q252 -34 264.5 -46.5Q277 -59 306 -59Q324 -59 346 -56V-169Q320 -174 296.5 -175.5Q273 -177 252 -177Q178 -177 143.5 -141.5Q109 -106 109 -43Z" glyph-name="braceleft" horiz-adv-x="375" unicode="{" /><glyph d="M171 -99 75 -99V800H171Z" glyph-name="bar" horiz-adv-x="246" unicode="|" /><glyph d="M266 -43Q266 -106 231.5 -141.5Q197 -177 123 -177Q102 -177 78.5 -175.5Q55 -174 29 -169V-56Q52 -59 69 -59Q98 -59 110.5 -46.5Q123 -34 123 -5V167Q123 262 199 284V286Q123 310 123 404V576Q123 605 110.5 617.5Q98 630 69 630Q52 630 29 627V740Q55 745 78.5 746.5Q102 748 123 748Q197 748 231.5 712.5Q266 677 266 614V398Q266 344 322 344H353V227H322Q266 227 266 173Z" glyph-name="braceright" horiz-adv-x="375" unicode="}" /><glyph d="M390 278Q365 278 334.5 284.5Q304 291 274.5 299.5Q245 308 220 314.5Q195 321 181 321Q156 321 156 296V278H45V333Q45 381 76 413.5Q107 446 156 446Q182 446 212.5 439.5Q243 433 272 424.5Q301 416 326 409.5Q351 403 365 403Q390 403 390 428V446H501V391Q501 343 470 310.5Q439 278 390 278Z" glyph-name="asciitilde" horiz-adv-x="546" unicode="~" /><glyph d="M217 -189 75 -189V275H217ZM239 428Q239 409 231.5 392.5Q224 376 211.5 363.5Q199 351 182 344Q165 337 147 337Q129 337 112 344Q95 351 82 363.5Q69 376 61 392.5Q53 409 53 428Q53 447 60.5 464Q68 481 81 493.5Q94 506 111 513.5Q128 521 147 521Q185 521 212 494Q239 467 239 428Z" glyph-name="exclamdown" horiz-adv-x="292" unicode="¡" /><glyph d="M322 -9 256 -9V81Q208 87 168.5 109Q129 131 101 165.5Q73 200 57.5 246Q42 292 42 345Q42 398 57.5 444Q73 490 101.5 524.5Q130 559 169 581Q208 603 256 609V705H322V609Q384 603 432.5 569Q481 535 509 478L398 424Q387 451 367 468Q347 485 322 493V198Q347 204 366.5 221Q386 238 398 267L509 213Q481 156 433 121.5Q385 87 322 80ZM176 345Q176 291 197 253Q218 215 256 201V489Q218 475 197 437Q176 399 176 345Z" glyph-name="cent" horiz-adv-x="544" unicode="¢" /><glyph d="M115 280 52 280V382H115V477Q115 529 132.5 572Q150 615 181.5 645.5Q213 676 257.5 693Q302 710 355 710Q422 710 477 685.5Q532 661 569 615L461 530Q444 553 417 567Q390 581 360 581Q312 581 284.5 551Q257 521 257 468V382H430V280H257V125H551V0H52V125H115Z" glyph-name="sterling" horiz-adv-x="604" unicode="£" /><glyph d="M301 221Q330 221 354.5 232Q379 243 397 262Q415 281 425 306Q435 331 435 359Q435 388 425 413Q415 438 397 457Q379 476 354.5 486.5Q330 497 301 497Q271 497 246.5 486Q222 475 204 456.5Q186 438 176 413Q166 388 166 359Q166 331 176 305.5Q186 280 204 261.5Q222 243 247 232Q272 221 301 221ZM61 359Q61 433 100 489L63 525L132 592L169 556Q197 576 230.5 585.5Q264 595 301 595Q377 595 432 556L469 592L538 525L501 489Q521 461 531 428Q541 395 541 359Q541 324 531 291Q521 258 501 230L538 194L469 127L432 163Q374 124 301 124Q227 124 169 163L132 127L63 194L100 230Q61 286 61 359Z" glyph-name="currency" horiz-adv-x="602" unicode="¤" /><glyph d="M199 394 79 394V468H157L28 700H194L342 420H344L488 700H649L519 468H599V394H478L428 305H599V231H410V0H267V231H79V305H248Z" glyph-name="yen" horiz-adv-x="678" unicode="¥" /><glyph d="M170 411 74 411V800H170ZM170 -99 74 -99V307H170Z" glyph-name="brokenbar" horiz-adv-x="244" unicode="¦" /><glyph d="M437 258Q459 264 472 278Q485 292 485 310Q485 355 403 378L278 414Q262 419 247 424.5Q232 430 219 438Q196 432 183.5 418Q171 404 171 386Q171 339 253 317L378 282Q392 278 406.5 272.5Q421 267 437 258ZM537 107Q537 69 519.5 36Q502 3 472 -21.5Q442 -46 400.5 -60Q359 -74 311 -74Q244 -74 179 -48Q114 -22 73 27L176 110Q204 83 239 67.5Q274 52 310 52Q343 52 363.5 65.5Q384 79 384 101Q384 139 327 156L196 193Q108 218 69 258Q30 298 30 364Q30 415 58.5 454Q87 493 138 511Q119 546 119 589Q119 627 136.5 660Q154 693 184.5 717.5Q215 742 256.5 756Q298 770 345 770Q413 770 477 743.5Q541 717 584 669L480 586Q451 614 416.5 629Q382 644 346 644Q313 644 292.5 631Q272 618 272 595Q272 555 329 540L460 503Q627 455 627 336Q627 285 597 243Q567 201 518 185Q537 150 537 107Z" glyph-name="section" horiz-adv-x="657" unicode="§" /><glyph d="M301 720Q331 720 353.5 699Q376 678 376 646Q376 615 354.5 593Q333 571 301 571Q270 571 248 593Q226 615 226 646Q226 678 248.5 699Q271 720 301 720ZM108 720Q138 720 160.5 699Q183 678 183 646Q183 614 161 592.5Q139 571 108 571Q76 571 54.5 592.5Q33 614 33 646Q33 677 55 698.5Q77 720 108 720Z" glyph-name="dieresis" horiz-adv-x="409" unicode="¨" /><glyph d="M419 112Q369 112 329 130.5Q289 149 261 181Q233 213 218 256Q203 299 203 348Q203 397 218 440Q233 483 261 515.5Q289 548 329 566.5Q369 585 419 585Q490 585 539.5 548Q589 511 609 454L517 422Q507 453 483.5 473Q460 493 420 493Q390 493 368.5 480.5Q347 468 332.5 448Q318 428 311.5 401.5Q305 375 305 348Q305 321 311.5 295Q318 269 332.5 248.5Q347 228 368.5 215.5Q390 203 420 203Q460 203 483.5 223.5Q507 244 517 275L609 243Q589 186 539.5 149Q490 112 419 112ZM417 23Q483 23 540 49Q597 75 639.5 119Q682 163 706 222Q730 281 730 348Q730 415 706 474Q682 533 639.5 577.5Q597 622 540 647.5Q483 673 417 673Q351 673 294 647.5Q237 622 194.5 577.5Q152 533 128 474Q104 415 104 348Q104 281 128 222Q152 163 194.5 119Q237 75 294 49Q351 23 417 23ZM416 -53Q335 -53 263 -21.5Q191 10 137 65Q83 120 51.5 193Q20 266 20 348Q20 431 51.5 503.5Q83 576 137 631Q191 686 263 717.5Q335 749 416 749Q498 749 570.5 717.5Q643 686 697 631Q751 576 782.5 503.5Q814 431 814 348Q814 266 782.5 193Q751 120 697 65Q643 10 570.5 -21.5Q498 -53 416 -53Z" glyph-name="copyright" horiz-adv-x="834" unicode="©" /><glyph d="M259 594Q226 594 190 585Q154 576 109 555L51 654Q161 709 279 709Q365 709 416 668Q467 627 467 552V330Q467 279 517 268L463 176Q427 178 400.5 194.5Q374 211 360 238H358Q337 209 300 193Q263 177 217 177Q178 177 145 189.5Q112 202 88 223.5Q64 245 50.5 275Q37 305 37 340Q37 407 83.5 448.5Q130 490 208 498L334 511V529Q334 594 259 594ZM334 416 241 403Q207 398 189 382Q171 366 171 341Q171 314 190.5 296.5Q210 279 244 279Q282 279 308 302.5Q334 326 334 363Z" glyph-name="ordfeminine" horiz-adv-x="550" unicode="ª" /><glyph d="M366 0 207 0L27 254V258L207 511H366L193 258V254ZM614 0 455 0L275 254V258L455 511H614L441 258V254Z" glyph-name="guillemotleft" horiz-adv-x="639" unicode="«" /><glyph d="M492 190 364 190V390H37V509H492Z" glyph-name="logicalnot" horiz-adv-x="550" unicode="¬" /><glyph d="M416 -53Q335 -53 263 -21.5Q191 10 137 65Q83 120 51.5 193Q20 266 20 348Q20 431 51.5 503.5Q83 576 137 631Q191 686 263 717.5Q335 749 416 749Q498 749 570.5 717.5Q643 686 697 631Q751 576 782.5 503.5Q814 431 814 348Q814 266 782.5 193Q751 120 697 65Q643 10 570.5 -21.5Q498 -53 416 -53ZM417 23Q483 23 540 49Q597 75 639.5 119Q682 163 706 222Q730 281 730 348Q730 415 706 474Q682 533 639.5 577.5Q597 622 540 647.5Q483 673 417 673Q351 673 294 647.5Q237 622 194.5 577.5Q152 533 128 474Q104 415 104 348Q104 281 128 222Q152 163 194.5 119Q237 75 294 49Q351 23 417 23ZM246 578 436 578Q473 578 503.5 567Q534 556 556 536.5Q578 517 590 490Q602 463 602 431Q602 383 578 348.5Q554 314 512 297L616 122H506L413 283H343V122H246ZM501 431Q501 462 480.5 478Q460 494 428 494H343V368H428Q460 368 480.5 383.5Q501 399 501 431Z" glyph-name="registered" horiz-adv-x="834" unicode="®" /><glyph d="M43 670 365 670V573H43Z" glyph-name="macron" horiz-adv-x="409" unicode="¯" /><glyph d="M208 615Q177 615 156 594.5Q135 574 135 540Q135 506 156 485.5Q177 465 208 465Q239 465 260 485.5Q281 506 281 540Q281 574 260 594.5Q239 615 208 615ZM208 710Q246 710 278.5 696.5Q311 683 334.5 659.5Q358 636 371 605.5Q384 575 384 540Q384 506 371 475Q358 444 334.5 420.5Q311 397 278.5 383.5Q246 370 208 370Q170 370 137.5 383.5Q105 397 81.5 420.5Q58 444 45 475Q32 506 32 540Q32 575 45 605.5Q58 636 81.5 659.5Q105 683 137.5 696.5Q170 710 208 710Z" glyph-name="degree" horiz-adv-x="416" unicode="°" /><glyph d="M339 214 210 214V380H47V498H210V663H339V498H503V380H339ZM502 0 47 0V118H502Z" glyph-name="plusminus" horiz-adv-x="550" unicode="±" /><glyph d="M348 517 348 434H36V509Q95 546 135 575.5Q175 605 199.5 629Q224 653 234.5 674Q245 695 245 716Q245 743 227 759.5Q209 776 182 776Q153 776 135 757Q117 738 117 705Q117 703 117.5 699.5Q118 696 118 694L26 698V710Q26 778 69.5 819Q113 860 187 860Q221 860 249.5 849.5Q278 839 298.5 820.5Q319 802 330.5 777Q342 752 342 723Q342 665 304.5 617.5Q267 570 183 517Z" glyph-name="twosuperior" horiz-adv-x="376" unicode="²" /><glyph d="M184 780Q161 780 143.5 769Q126 758 118 739L28 760Q45 808 88 835Q131 862 188 862Q254 862 295 828Q336 794 336 740Q336 715 323 692.5Q310 670 287 656V655Q314 642 330.5 617.5Q347 593 347 564Q347 533 335 508.5Q323 484 301.5 466.5Q280 449 251 439.5Q222 430 187 430Q123 430 78 458.5Q33 487 19 538L109 564Q117 540 137.5 525.5Q158 511 185 511Q213 511 231 525Q249 539 249 563Q249 587 231.5 600.5Q214 614 186 614H152V687H180Q208 687 224.5 700Q241 713 241 734Q241 755 225 767.5Q209 780 184 780Z" glyph-name="threesuperior" horiz-adv-x="376" unicode="³" /><glyph d="M347 676 118 560L65 639L276 780Z" glyph-name="acute" horiz-adv-x="412" unicode="´" /><glyph d="M175 -156 75 -156V511H207V203Q207 159 230 134Q253 109 293 109Q335 109 360.5 138.5Q386 168 386 216V511H519V0H388V51H386Q365 22 332 6Q299 -10 260 -10Q213 -10 175 16Z" glyph-name="mu" horiz-adv-x="595" unicode="µ" /><glyph d="M402 0 258 0V236Q209 236 167 253Q125 270 94.5 300.5Q64 331 47 373Q30 415 30 465Q30 515 48 558Q66 601 96.5 632.5Q127 664 168.5 682Q210 700 258 700H402Z" glyph-name="paragraph" horiz-adv-x="485" unicode="¶" /><glyph d="M135 269Q117 269 100.5 276Q84 283 71.5 295.5Q59 308 51.5 324.5Q44 341 44 359Q44 396 71 421.5Q98 447 135 447Q172 447 199 421.5Q226 396 226 359Q226 341 218.5 324.5Q211 308 198.5 295.5Q186 283 169.5 276Q153 269 135 269Z" glyph-name="periodcentered" horiz-adv-x="270" unicode="·" /><glyph d="M210 -130 92 -130L145 18H283Z" glyph-name="cedilla" horiz-adv-x="401" unicode="¸" /><glyph d="M328 517 328 434H63V517H149V708H65V787H89Q158 787 160 848L161 854H243V517Z" glyph-name="onesuperior" horiz-adv-x="376" unicode="¹" /><glyph d="M548 443Q548 385 529 336.5Q510 288 476.5 252.5Q443 217 396.5 197Q350 177 294 177Q238 177 191 197Q144 217 110.5 252.5Q77 288 58.5 337Q40 386 40 443Q40 501 58.5 549.5Q77 598 111 633.5Q145 669 191.5 689Q238 709 294 709Q350 709 396.5 689Q443 669 476.5 634Q510 599 529 550Q548 501 548 443ZM175 443Q175 374 207.5 333.5Q240 293 294 293Q348 293 380.5 333.5Q413 374 413 443Q413 512 381.5 553Q350 594 294 594Q240 594 207.5 553Q175 512 175 443Z" glyph-name="ordmasculine" horiz-adv-x="588" unicode="º" /><glyph d="M362 254 182 0H24L197 254V258L24 511H182L362 258ZM610 254 431 0H272L445 254V258L272 511H431L610 258Z" glyph-name="guillemotright" horiz-adv-x="639" unicode="»" /><glyph d="M823 700 262 0H193L753 700ZM323 364 323 281H58V364H144V555H60V634H84Q153 634 155 695L156 701H238V364ZM762 97 566 97V184L738 420H856V175H917V97H856V0H762ZM762 323 654 177V175H762Z" glyph-name="onequarter" horiz-adv-x="960" unicode="¼" /><glyph d="M926 83 926 0H614V75Q673 112 713 141.5Q753 171 777.5 195Q802 219 812.5 240Q823 261 823 282Q823 309 805 325.5Q787 342 760 342Q731 342 713 323Q695 304 695 271Q695 269 695.5 265.5Q696 262 696 260L604 264V276Q604 344 647.5 385Q691 426 765 426Q799 426 827.5 415.5Q856 405 876.5 386.5Q897 368 908.5 343Q920 318 920 289Q920 231 882.5 183.5Q845 136 761 83ZM309 364 309 281H44V364H130V555H46V634H70Q139 634 141 695L142 701H224V364ZM809 700 248 0H179L739 700Z" glyph-name="onehalf" horiz-adv-x="960" unicode="½" /><glyph d="M815 700 254 0H185L745 700ZM759 97 563 97V184L735 420H853V175H914V97H853V0H759ZM759 323 651 177V175H759ZM213 628Q190 628 172.5 617Q155 606 147 587L57 608Q74 656 117 683Q160 710 217 710Q283 710 324 676Q365 642 365 588Q365 563 352 540.5Q339 518 316 504V503Q343 490 359.5 465.5Q376 441 376 412Q376 381 364 356.5Q352 332 330.5 314.5Q309 297 280 287.5Q251 278 216 278Q152 278 107 306.5Q62 335 48 386L138 412Q146 388 166.5 373.5Q187 359 214 359Q242 359 260 373Q278 387 278 411Q278 435 260.5 448.5Q243 462 215 462H181V535H209Q237 535 253.5 548Q270 561 270 582Q270 603 254 615.5Q238 628 213 628Z" glyph-name="threequarters" horiz-adv-x="960" unicode="¾" /><glyph d="M179 275 315 275V242Q315 224 312 207.5Q309 191 300 173Q291 155 275.5 134Q260 113 235 86Q217 67 206.5 53.5Q196 40 190.5 30Q185 20 183 12Q181 4 181 -4Q181 -33 201 -50Q221 -67 253 -67Q286 -67 315.5 -48Q345 -29 367 6L474 -69Q459 -98 434.5 -122Q410 -146 379 -163Q348 -180 313 -189.5Q278 -199 242 -199Q196 -199 158 -185.5Q120 -172 92 -148Q64 -124 48.5 -91.5Q33 -59 33 -21Q33 27 53.5 65Q74 103 122 149Q154 180 166.5 204.5Q179 229 179 261ZM153 428Q153 466 180.5 493.5Q208 521 246 521Q284 521 311.5 493.5Q339 466 339 428Q339 409 331.5 392.5Q324 376 311 363.5Q298 351 281 344Q264 337 246 337Q228 337 211 344Q194 351 181 363.5Q168 376 160.5 392.5Q153 409 153 428Z" glyph-name="questiondown" horiz-adv-x="497" unicode="¿" /><glyph d="M332 564 330 564L241 258H420ZM655 0 495 0L454 142H207L166 0H14L235 700H434ZM480 828 427 749L198 865L269 969Z" glyph-name="Agrave" horiz-adv-x="669" unicode="À" /><glyph d="M332 564 330 564L241 258H420ZM655 0 495 0L454 142H207L166 0H14L235 700H434ZM474 865 245 749L192 828L403 969Z" glyph-name="Aacute" horiz-adv-x="669" unicode="Á" /><glyph d="M332 564 330 564L241 258H420ZM655 0 495 0L454 142H207L166 0H14L235 700H434ZM290 760 174 760L247 908H422L495 760H379L334 824Z" glyph-name="Acircumflex" horiz-adv-x="669" unicode="Â" /><glyph d="M332 564 330 564L241 258H420ZM655 0 495 0L454 142H207L166 0H14L235 700H434ZM497 863Q497 812 473.5 784.5Q450 757 405 757Q389 757 370.5 761.5Q352 766 334.5 771.5Q317 777 301.5 781.5Q286 786 276 786Q268 786 263 781.5Q258 777 258 769V757H170V784Q170 835 193.5 862.5Q217 890 262 890Q279 890 297 885.5Q315 881 332.5 875.5Q350 870 365.5 865.5Q381 861 391 861Q399 861 404 865.5Q409 870 409 878V890H497Z" glyph-name="Atilde" horiz-adv-x="669" unicode="Ã" /><glyph d="M332 564 330 564L241 258H420ZM655 0 495 0L454 142H207L166 0H14L235 700H434ZM431 909Q461 909 483.5 888Q506 867 506 835Q506 804 484.5 782Q463 760 431 760Q400 760 378 782Q356 804 356 835Q356 867 378.5 888Q401 909 431 909ZM238 909Q268 909 290.5 888Q313 867 313 835Q313 803 291 781.5Q269 760 238 760Q206 760 184.5 781.5Q163 803 163 835Q163 866 185 887.5Q207 909 238 909Z" glyph-name="Adieresis" horiz-adv-x="669" unicode="Ä" /><glyph d="M332 564 330 564L241 258H420ZM655 0 495 0L454 142H207L166 0H14L235 700H434ZM458 862Q458 837 448 815.5Q438 794 421.5 778Q405 762 382.5 753Q360 744 334 744Q308 744 285.5 753Q263 762 246 778Q229 794 219.5 815.5Q210 837 210 862Q210 887 219.5 908.5Q229 930 246 946Q263 962 285.5 971Q308 980 334 980Q360 980 382.5 971Q405 962 421.5 946Q438 930 448 908.5Q458 887 458 862ZM283 862Q283 840 297.5 825Q312 810 334 810Q356 810 370.5 825Q385 840 385 862Q385 884 370.5 899Q356 914 334 914Q312 914 297.5 899Q283 884 283 862Z" glyph-name="Aring" horiz-adv-x="669" unicode="Å" /><glyph d="M456 572 451 572L280 254H456ZM951 0 456 0V136H220L146 0H-13L380 700H941V572H600V417H881V295H600V127H951Z" glyph-name="AE" horiz-adv-x="987" unicode="Æ" /><glyph d="M371 585Q329 585 295 567.5Q261 550 237 518.5Q213 487 200 444Q187 401 187 350Q187 298 200 255Q213 212 237 181Q261 150 295 132.5Q329 115 371 115Q425 115 465.5 145.5Q506 176 527 230L662 185Q632 107 573 58.5Q514 10 433 -4L371 -130H253L298 -3Q239 9 191 39.5Q143 70 109 116Q75 162 56.5 221.5Q38 281 38 350Q38 428 62 494Q86 560 129.5 608Q173 656 233.5 683Q294 710 368 710Q474 710 550.5 658.5Q627 607 662 514L527 470Q506 524 465.5 554.5Q425 585 371 585Z" glyph-name="Ccedilla" horiz-adv-x="685" unicode="Ç" /><glyph d="M571 0 76 0V700H561V572H219V417H500V295H219V127H571ZM461 828 408 749L179 865L250 969Z" glyph-name="Egrave" horiz-adv-x="606" unicode="È" /><glyph d="M571 0 76 0V700H561V572H219V417H500V295H219V127H571ZM456 865 227 749L174 828L385 969Z" glyph-name="Eacute" horiz-adv-x="606" unicode="É" /><glyph d="M571 0 76 0V700H561V572H219V417H500V295H219V127H571ZM271 760 155 760L228 908H403L476 760H360L315 824Z" glyph-name="Ecircumflex" horiz-adv-x="606" unicode="Ê" /><glyph d="M571 0 76 0V700H561V572H219V417H500V295H219V127H571ZM412 909Q442 909 464.5 888Q487 867 487 835Q487 804 465.5 782Q444 760 412 760Q381 760 359 782Q337 804 337 835Q337 867 359.5 888Q382 909 412 909ZM219 909Q249 909 271.5 888Q294 867 294 835Q294 803 272 781.5Q250 760 219 760Q187 760 165.5 781.5Q144 803 144 835Q144 866 166 887.5Q188 909 219 909Z" glyph-name="Edieresis" horiz-adv-x="606" unicode="Ë" /><glyph d="M219 0 76 0V700H219ZM292 828 239 749L10 865L81 969Z" glyph-name="Igrave" horiz-adv-x="295" unicode="Ì" /><glyph d="M219 0 76 0V700H219ZM287 865 58 749L5 828L216 969Z" glyph-name="Iacute" horiz-adv-x="295" unicode="Í" /><glyph d="M219 0 76 0V700H219ZM103 760 -13 760L60 908H235L308 760H192L147 824Z" glyph-name="Icircumflex" horiz-adv-x="295" unicode="Î" /><glyph d="M219 0 76 0V700H219ZM244 909Q274 909 296.5 888Q319 867 319 835Q319 804 297.5 782Q276 760 244 760Q213 760 191 782Q169 804 169 835Q169 867 191.5 888Q214 909 244 909ZM51 909Q81 909 103.5 888Q126 867 126 835Q126 803 104 781.5Q82 760 51 760Q19 760 -2.5 781.5Q-24 803 -24 835Q-24 866 -2 887.5Q20 909 51 909Z" glyph-name="Idieresis" horiz-adv-x="295" unicode="Ï" /><glyph d="M77 0 77 293H24V406H77V700H351Q428 700 490 675.5Q552 651 596 605Q640 559 664 494.5Q688 430 688 350Q688 270 664 205.5Q640 141 596 95Q552 49 490 24.5Q428 0 351 0ZM220 578 220 406H384V293H220V122H329Q432 122 485.5 182.5Q539 243 539 350Q539 454 486 516Q433 578 329 578Z" glyph-name="Eth" horiz-adv-x="727" unicode="Ð" /><glyph d="M218 0 76 0V700H250L549 227H551V700H693V0H520L220 473H218ZM547 863Q547 812 523.5 784.5Q500 757 455 757Q439 757 420.5 761.5Q402 766 384.5 771.5Q367 777 351.5 781.5Q336 786 326 786Q318 786 313 781.5Q308 777 308 769V757H220V784Q220 835 243.5 862.5Q267 890 312 890Q329 890 347 885.5Q365 881 382.5 875.5Q400 870 415.5 865.5Q431 861 441 861Q449 861 454 865.5Q459 870 459 878V890H547Z" glyph-name="Ntilde" horiz-adv-x="769" unicode="Ñ" /><glyph d="M375 710Q450 710 512 683Q574 656 618.5 608Q663 560 687.5 494Q712 428 712 350Q712 272 687.5 206Q663 140 618.5 92Q574 44 512 17Q450 -10 375 -10Q300 -10 238 16.5Q176 43 131.5 91Q87 139 62.5 205Q38 271 38 350Q38 429 62.5 495Q87 561 131.5 609Q176 657 238 683.5Q300 710 375 710ZM375 585Q333 585 298 567.5Q263 550 238.5 519Q214 488 200.5 444.5Q187 401 187 350Q187 298 200.5 255Q214 212 238.5 181Q263 150 297.5 132.5Q332 115 375 115Q418 115 453 132.5Q488 150 512.5 181.5Q537 213 550 256Q563 299 563 350Q563 400 550 443Q537 486 512.5 517.5Q488 549 453.5 567Q419 585 375 585ZM520 828 467 749L238 865L309 969Z" glyph-name="Ograve" horiz-adv-x="750" unicode="Ò" /><glyph d="M375 710Q450 710 512 683Q574 656 618.5 608Q663 560 687.5 494Q712 428 712 350Q712 272 687.5 206Q663 140 618.5 92Q574 44 512 17Q450 -10 375 -10Q300 -10 238 16.5Q176 43 131.5 91Q87 139 62.5 205Q38 271 38 350Q38 429 62.5 495Q87 561 131.5 609Q176 657 238 683.5Q300 710 375 710ZM375 585Q333 585 298 567.5Q263 550 238.5 519Q214 488 200.5 444.5Q187 401 187 350Q187 298 200.5 255Q214 212 238.5 181Q263 150 297.5 132.5Q332 115 375 115Q418 115 453 132.5Q488 150 512.5 181.5Q537 213 550 256Q563 299 563 350Q563 400 550 443Q537 486 512.5 517.5Q488 549 453.5 567Q419 585 375 585ZM514 865 285 749L232 828L443 969Z" glyph-name="Oacute" horiz-adv-x="750" unicode="Ó" /><glyph d="M375 710Q450 710 512 683Q574 656 618.5 608Q663 560 687.5 494Q712 428 712 350Q712 272 687.5 206Q663 140 618.5 92Q574 44 512 17Q450 -10 375 -10Q300 -10 238 16.5Q176 43 131.5 91Q87 139 62.5 205Q38 271 38 350Q38 429 62.5 495Q87 561 131.5 609Q176 657 238 683.5Q300 710 375 710ZM375 585Q333 585 298 567.5Q263 550 238.5 519Q214 488 200.5 444.5Q187 401 187 350Q187 298 200.5 255Q214 212 238.5 181Q263 150 297.5 132.5Q332 115 375 115Q418 115 453 132.5Q488 150 512.5 181.5Q537 213 550 256Q563 299 563 350Q563 400 550 443Q537 486 512.5 517.5Q488 549 453.5 567Q419 585 375 585ZM330 760 214 760L287 908H462L535 760H419L374 824Z" glyph-name="Ocircumflex" horiz-adv-x="750" unicode="Ô" /><glyph d="M375 710Q450 710 512 683Q574 656 618.5 608Q663 560 687.5 494Q712 428 712 350Q712 272 687.5 206Q663 140 618.5 92Q574 44 512 17Q450 -10 375 -10Q300 -10 238 16.5Q176 43 131.5 91Q87 139 62.5 205Q38 271 38 350Q38 429 62.5 495Q87 561 131.5 609Q176 657 238 683.5Q300 710 375 710ZM375 585Q333 585 298 567.5Q263 550 238.5 519Q214 488 200.5 444.5Q187 401 187 350Q187 298 200.5 255Q214 212 238.5 181Q263 150 297.5 132.5Q332 115 375 115Q418 115 453 132.5Q488 150 512.5 181.5Q537 213 550 256Q563 299 563 350Q563 400 550 443Q537 486 512.5 517.5Q488 549 453.5 567Q419 585 375 585ZM538 863Q538 812 514.5 784.5Q491 757 446 757Q430 757 411.5 761.5Q393 766 375.5 771.5Q358 777 342.5 781.5Q327 786 317 786Q309 786 304 781.5Q299 777 299 769V757H211V784Q211 835 234.5 862.5Q258 890 303 890Q320 890 338 885.5Q356 881 373.5 875.5Q391 870 406.5 865.5Q422 861 432 861Q440 861 445 865.5Q450 870 450 878V890H538Z" glyph-name="Otilde" horiz-adv-x="750" unicode="Õ" /><glyph d="M375 710Q450 710 512 683Q574 656 618.5 608Q663 560 687.5 494Q712 428 712 350Q712 272 687.5 206Q663 140 618.5 92Q574 44 512 17Q450 -10 375 -10Q300 -10 238 16.5Q176 43 131.5 91Q87 139 62.5 205Q38 271 38 350Q38 429 62.5 495Q87 561 131.5 609Q176 657 238 683.5Q300 710 375 710ZM375 585Q333 585 298 567.5Q263 550 238.5 519Q214 488 200.5 444.5Q187 401 187 350Q187 298 200.5 255Q214 212 238.5 181Q263 150 297.5 132.5Q332 115 375 115Q418 115 453 132.5Q488 150 512.5 181.5Q537 213 550 256Q563 299 563 350Q563 400 550 443Q537 486 512.5 517.5Q488 549 453.5 567Q419 585 375 585ZM471 909Q501 909 523.5 888Q546 867 546 835Q546 804 524.5 782Q503 760 471 760Q440 760 418 782Q396 804 396 835Q396 867 418.5 888Q441 909 471 909ZM278 909Q308 909 330.5 888Q353 867 353 835Q353 803 331 781.5Q309 760 278 760Q246 760 224.5 781.5Q203 803 203 835Q203 866 225 887.5Q247 909 278 909Z" glyph-name="Odieresis" horiz-adv-x="750" unicode="Ö" /><glyph d="M517 195 433 114L275 270L116 114L33 195L192 352L33 509L116 590L275 434L433 590L517 509L358 352Z" glyph-name="multiply" horiz-adv-x="550" unicode="×" /><glyph d="M375 710Q435 710 486.5 692.5Q538 675 580 643L643 712L715 647L646 572Q678 527 695 471Q712 415 712 350Q712 272 687.5 206Q663 140 618.5 92Q574 44 512 17Q450 -10 375 -10Q315 -10 264.5 6.5Q214 23 172 54L111 -13L39 52L105 124Q73 170 55.5 227Q38 284 38 350Q38 429 62.5 495Q87 561 131.5 609Q176 657 238 683.5Q300 710 375 710ZM375 585Q333 585 298 567.5Q263 550 238.5 519Q214 488 200.5 444.5Q187 401 187 350Q187 287 207 236L488 543Q441 585 375 585ZM563 350Q563 380 558.5 408Q554 436 544 460L264 154Q311 115 375 115Q418 115 453 132.5Q488 150 512.5 181.5Q537 213 550 256Q563 299 563 350Z" glyph-name="Oslash" horiz-adv-x="750" unicode="Ø" /><glyph d="M360 114Q426 114 466.5 153.5Q507 193 507 264V700H646V249Q646 190 625.5 142Q605 94 567.5 60.5Q530 27 477.5 8.5Q425 -10 360 -10Q295 -10 241.5 8.5Q188 27 149.5 60.5Q111 94 90 142Q69 190 69 249V700H212V264Q212 194 251.5 154Q291 114 360 114ZM504 828 451 749L222 865L293 969Z" glyph-name="Ugrave" horiz-adv-x="715" unicode="Ù" /><glyph d="M360 114Q426 114 466.5 153.5Q507 193 507 264V700H646V249Q646 190 625.5 142Q605 94 567.5 60.5Q530 27 477.5 8.5Q425 -10 360 -10Q295 -10 241.5 8.5Q188 27 149.5 60.5Q111 94 90 142Q69 190 69 249V700H212V264Q212 194 251.5 154Q291 114 360 114ZM498 865 269 749L216 828L427 969Z" glyph-name="Uacute" horiz-adv-x="715" unicode="Ú" /><glyph d="M360 114Q426 114 466.5 153.5Q507 193 507 264V700H646V249Q646 190 625.5 142Q605 94 567.5 60.5Q530 27 477.5 8.5Q425 -10 360 -10Q295 -10 241.5 8.5Q188 27 149.5 60.5Q111 94 90 142Q69 190 69 249V700H212V264Q212 194 251.5 154Q291 114 360 114ZM314 760 198 760L271 908H446L519 760H403L358 824Z" glyph-name="Ucircumflex" horiz-adv-x="715" unicode="Û" /><glyph d="M360 114Q426 114 466.5 153.5Q507 193 507 264V700H646V249Q646 190 625.5 142Q605 94 567.5 60.5Q530 27 477.5 8.5Q425 -10 360 -10Q295 -10 241.5 8.5Q188 27 149.5 60.5Q111 94 90 142Q69 190 69 249V700H212V264Q212 194 251.5 154Q291 114 360 114ZM455 909Q485 909 507.5 888Q530 867 530 835Q530 804 508.5 782Q487 760 455 760Q424 760 402 782Q380 804 380 835Q380 867 402.5 888Q425 909 455 909ZM262 909Q292 909 314.5 888Q337 867 337 835Q337 803 315 781.5Q293 760 262 760Q230 760 208.5 781.5Q187 803 187 835Q187 866 209 887.5Q231 909 262 909Z" glyph-name="Udieresis" horiz-adv-x="715" unicode="Ü" /><glyph d="M393 0 249 0V272L10 700H176L325 422H326L471 700H632L393 272ZM463 865 234 749L181 828L392 969Z" glyph-name="Yacute" horiz-adv-x="642" unicode="Ý" /><glyph d="M220 116 220 0H76V700H220V584H347Q404 584 450.5 566.5Q497 549 530 518Q563 487 581 444Q599 401 599 350Q599 299 581 256Q563 213 530 182Q497 151 450.5 133.5Q404 116 347 116ZM220 462 220 238H334Q386 238 418 268.5Q450 299 450 350Q450 400 418.5 431Q387 462 334 462Z" glyph-name="Thorn" horiz-adv-x="623" unicode="Þ" /><glyph d="M552 145Q552 112 538.5 83.5Q525 55 501 34Q477 13 445 1Q413 -11 375 -11Q336 -11 300.5 -1Q265 9 239 26L286 123Q301 114 320.5 108Q340 102 360 102Q386 102 402 115.5Q418 129 418 152Q418 158 416 165Q414 172 407.5 180.5Q401 189 389.5 201Q378 213 359 230Q336 251 321.5 266Q307 281 298.5 293Q290 305 287.5 315Q285 325 285 336Q285 357 295.5 378Q306 399 318.5 421.5Q331 444 341 467.5Q351 491 351 516Q351 550 330.5 570.5Q310 591 277 591Q242 591 219 567.5Q196 544 196 496V0H63V493Q63 541 78.5 580.5Q94 620 122.5 648.5Q151 677 191 692.5Q231 708 279 708Q323 708 359.5 694.5Q396 681 422.5 657Q449 633 464 601Q479 569 479 532Q479 505 469.5 477.5Q460 450 448.5 426Q437 402 428 384Q419 366 419 357Q420 348 425.5 340.5Q431 333 451 313L488 278Q526 241 539 210Q552 179 552 145Z" glyph-name="germandbls" horiz-adv-x="581" unicode="ß" /><glyph d="M252 406Q219 406 183 397Q147 388 102 367L44 466Q154 521 272 521Q358 521 409 480Q460 439 460 364V142Q460 91 510 80L456 -12Q420 -10 393.5 6.5Q367 23 353 50H351Q330 21 293 5Q256 -11 210 -11Q171 -11 138 1.5Q105 14 81 35.5Q57 57 43.5 87Q30 117 30 152Q30 219 76.5 260.5Q123 302 201 310L327 323V341Q327 406 252 406ZM327 228 234 215Q200 210 182 194Q164 178 164 153Q164 126 183.5 108.5Q203 91 237 91Q275 91 301 114.5Q327 138 327 175ZM406 639 353 560L124 676L195 780Z" glyph-name="agrave" horiz-adv-x="532" unicode="à" /><glyph d="M252 406Q219 406 183 397Q147 388 102 367L44 466Q154 521 272 521Q358 521 409 480Q460 439 460 364V142Q460 91 510 80L456 -12Q420 -10 393.5 6.5Q367 23 353 50H351Q330 21 293 5Q256 -11 210 -11Q171 -11 138 1.5Q105 14 81 35.5Q57 57 43.5 87Q30 117 30 152Q30 219 76.5 260.5Q123 302 201 310L327 323V341Q327 406 252 406ZM327 228 234 215Q200 210 182 194Q164 178 164 153Q164 126 183.5 108.5Q203 91 237 91Q275 91 301 114.5Q327 138 327 175ZM395 676 166 560L113 639L324 780Z" glyph-name="aacute" horiz-adv-x="532" unicode="á" /><glyph d="M252 406Q219 406 183 397Q147 388 102 367L44 466Q154 521 272 521Q358 521 409 480Q460 439 460 364V142Q460 91 510 80L456 -12Q420 -10 393.5 6.5Q367 23 353 50H351Q330 21 293 5Q256 -11 210 -11Q171 -11 138 1.5Q105 14 81 35.5Q57 57 43.5 87Q30 117 30 152Q30 219 76.5 260.5Q123 302 201 310L327 323V341Q327 406 252 406ZM327 228 234 215Q200 210 182 194Q164 178 164 153Q164 126 183.5 108.5Q203 91 237 91Q275 91 301 114.5Q327 138 327 175ZM210 571 94 571L167 719H342L415 571H299L254 635Z" glyph-name="acircumflex" horiz-adv-x="532" unicode="â" /><glyph d="M252 406Q219 406 183 397Q147 388 102 367L44 466Q154 521 272 521Q358 521 409 480Q460 439 460 364V142Q460 91 510 80L456 -12Q420 -10 393.5 6.5Q367 23 353 50H351Q330 21 293 5Q256 -11 210 -11Q171 -11 138 1.5Q105 14 81 35.5Q57 57 43.5 87Q30 117 30 152Q30 219 76.5 260.5Q123 302 201 310L327 323V341Q327 406 252 406ZM327 228 234 215Q200 210 182 194Q164 178 164 153Q164 126 183.5 108.5Q203 91 237 91Q275 91 301 114.5Q327 138 327 175ZM418 674Q418 623 394.5 595.5Q371 568 326 568Q310 568 291.5 572.5Q273 577 255.5 582.5Q238 588 222.5 592.5Q207 597 197 597Q189 597 184 592.5Q179 588 179 580V568H91V595Q91 646 114.5 673.5Q138 701 183 701Q200 701 218 696.5Q236 692 253.5 686.5Q271 681 286.5 676.5Q302 672 312 672Q320 672 325 676.5Q330 681 330 689V701H418Z" glyph-name="atilde" horiz-adv-x="532" unicode="ã" /><glyph d="M252 406Q219 406 183 397Q147 388 102 367L44 466Q154 521 272 521Q358 521 409 480Q460 439 460 364V142Q460 91 510 80L456 -12Q420 -10 393.5 6.5Q367 23 353 50H351Q330 21 293 5Q256 -11 210 -11Q171 -11 138 1.5Q105 14 81 35.5Q57 57 43.5 87Q30 117 30 152Q30 219 76.5 260.5Q123 302 201 310L327 323V341Q327 406 252 406ZM327 228 234 215Q200 210 182 194Q164 178 164 153Q164 126 183.5 108.5Q203 91 237 91Q275 91 301 114.5Q327 138 327 175ZM351 720Q381 720 403.5 699Q426 678 426 646Q426 615 404.5 593Q383 571 351 571Q320 571 298 593Q276 615 276 646Q276 678 298.5 699Q321 720 351 720ZM158 720Q188 720 210.5 699Q233 678 233 646Q233 614 211 592.5Q189 571 158 571Q126 571 104.5 592.5Q83 614 83 646Q83 677 105 698.5Q127 720 158 720Z" glyph-name="adieresis" horiz-adv-x="532" unicode="ä" /><glyph d="M252 406Q219 406 183 397Q147 388 102 367L44 466Q154 521 272 521Q358 521 409 480Q460 439 460 364V142Q460 91 510 80L456 -12Q420 -10 393.5 6.5Q367 23 353 50H351Q330 21 293 5Q256 -11 210 -11Q171 -11 138 1.5Q105 14 81 35.5Q57 57 43.5 87Q30 117 30 152Q30 219 76.5 260.5Q123 302 201 310L327 323V341Q327 406 252 406ZM327 228 234 215Q200 210 182 194Q164 178 164 153Q164 126 183.5 108.5Q203 91 237 91Q275 91 301 114.5Q327 138 327 175ZM378 673Q378 648 368 626.5Q358 605 341.5 589Q325 573 302.5 564Q280 555 254 555Q228 555 205.5 564Q183 573 166 589Q149 605 139.5 626.5Q130 648 130 673Q130 698 139.5 719.5Q149 741 166 757Q183 773 205.5 782Q228 791 254 791Q280 791 302.5 782Q325 773 341.5 757Q358 741 368 719.5Q378 698 378 673ZM203 673Q203 651 217.5 636Q232 621 254 621Q276 621 290.5 636Q305 651 305 673Q305 695 290.5 710Q276 725 254 725Q232 725 217.5 710Q203 695 203 673Z" glyph-name="aring" horiz-adv-x="532" unicode="å" /><glyph d="M595 -11Q532 -11 484.5 12Q437 35 405 74H403Q380 35 333.5 12Q287 -11 224 -11Q183 -11 147 2Q111 15 84.5 37.5Q58 60 43 90.5Q28 121 28 157Q28 226 78 266.5Q128 307 214 307H341V335Q341 370 317.5 389.5Q294 409 252 409Q216 409 179.5 400.5Q143 392 98 373L51 469Q99 493 156 507Q213 521 267 521Q319 521 361.5 504.5Q404 488 425 458H427Q459 488 499.5 504.5Q540 521 585 521Q637 521 680.5 502.5Q724 484 755 450Q786 416 803.5 368Q821 320 821 262V218H477Q480 165 516.5 135.5Q553 106 607 106Q639 106 670.5 119Q702 132 723 155L800 64Q716 -11 595 -11ZM585 411Q544 411 514 382Q484 353 478 307H690Q685 353 657 382Q629 411 585 411ZM163 156Q163 130 184.5 110Q206 90 241 90Q287 90 314 119Q341 148 341 192V218H243Q205 218 184 201Q163 184 163 156Z" glyph-name="ae" horiz-adv-x="853" unicode="æ" /><glyph d="M288 406Q234 406 201.5 365Q169 324 169 255Q169 186 201.5 145.5Q234 105 288 105Q360 105 391 177L502 123Q477 71 435.5 38.5Q394 6 337 -5L276 -130H158L205 1Q125 25 80 93Q35 161 35 253Q35 312 53 361.5Q71 411 103.5 446.5Q136 482 182 501.5Q228 521 283 521Q359 521 415.5 487Q472 453 502 388L391 334Q360 406 288 406Z" glyph-name="ccedilla" horiz-adv-x="528" unicode="ç" /><glyph d="M289 -11Q234 -11 187.5 8Q141 27 107 61Q73 95 54 143.5Q35 192 35 250Q35 310 53.5 360Q72 410 105 446Q138 482 183 501.5Q228 521 280 521Q332 521 375 502Q418 483 449 449Q480 415 497.5 367Q515 319 515 262V218H172Q177 166 212 136Q247 106 299 106Q332 106 364 119Q396 132 417 155L493 64Q409 -11 289 -11ZM280 411Q238 411 208.5 382Q179 353 173 307H384Q379 353 350.5 382Q322 411 280 411ZM422 639 369 560L140 676L211 780Z" glyph-name="egrave" horiz-adv-x="547" unicode="è" /><glyph d="M289 -11Q234 -11 187.5 8Q141 27 107 61Q73 95 54 143.5Q35 192 35 250Q35 310 53.5 360Q72 410 105 446Q138 482 183 501.5Q228 521 280 521Q332 521 375 502Q418 483 449 449Q480 415 497.5 367Q515 319 515 262V218H172Q177 166 212 136Q247 106 299 106Q332 106 364 119Q396 132 417 155L493 64Q409 -11 289 -11ZM280 411Q238 411 208.5 382Q179 353 173 307H384Q379 353 350.5 382Q322 411 280 411ZM416 676 187 560L134 639L345 780Z" glyph-name="eacute" horiz-adv-x="547" unicode="é" /><glyph d="M289 -11Q234 -11 187.5 8Q141 27 107 61Q73 95 54 143.5Q35 192 35 250Q35 310 53.5 360Q72 410 105 446Q138 482 183 501.5Q228 521 280 521Q332 521 375 502Q418 483 449 449Q480 415 497.5 367Q515 319 515 262V218H172Q177 166 212 136Q247 106 299 106Q332 106 364 119Q396 132 417 155L493 64Q409 -11 289 -11ZM280 411Q238 411 208.5 382Q179 353 173 307H384Q379 353 350.5 382Q322 411 280 411ZM232 571 116 571L189 719H364L437 571H321L276 635Z" glyph-name="ecircumflex" horiz-adv-x="547" unicode="ê" /><glyph d="M289 -11Q234 -11 187.5 8Q141 27 107 61Q73 95 54 143.5Q35 192 35 250Q35 310 53.5 360Q72 410 105 446Q138 482 183 501.5Q228 521 280 521Q332 521 375 502Q418 483 449 449Q480 415 497.5 367Q515 319 515 262V218H172Q177 166 212 136Q247 106 299 106Q332 106 364 119Q396 132 417 155L493 64Q409 -11 289 -11ZM280 411Q238 411 208.5 382Q179 353 173 307H384Q379 353 350.5 382Q322 411 280 411ZM373 720Q403 720 425.5 699Q448 678 448 646Q448 615 426.5 593Q405 571 373 571Q342 571 320 593Q298 615 298 646Q298 678 320.5 699Q343 720 373 720ZM180 720Q210 720 232.5 699Q255 678 255 646Q255 614 233 592.5Q211 571 180 571Q148 571 126.5 592.5Q105 614 105 646Q105 677 127 698.5Q149 720 180 720Z" glyph-name="edieresis" horiz-adv-x="547" unicode="ë" /><glyph d="M276 646 223 567L-6 683L65 787ZM196 0 63 0V511H196Z" glyph-name="igrave" horiz-adv-x="259" unicode="ì" /><glyph d="M271 683 42 567L-11 646L200 787ZM196 0 63 0V511H196Z" glyph-name="iacute" horiz-adv-x="259" unicode="í" /><glyph d="M196 0 63 0V511H196ZM87 578 -29 578L44 726H219L292 578H176L131 642Z" glyph-name="icircumflex" horiz-adv-x="259" unicode="î" /><glyph d="M227 727Q257 727 279.5 706Q302 685 302 653Q302 622 280.5 600Q259 578 227 578Q196 578 174 600Q152 622 152 653Q152 685 174.5 706Q197 727 227 727ZM34 727Q64 727 86.5 706Q109 685 109 653Q109 621 87 599.5Q65 578 34 578Q2 578 -19.5 599.5Q-41 621 -41 653Q-41 684 -19 705.5Q3 727 34 727ZM196 0 63 0V511H196Z" glyph-name="idieresis" horiz-adv-x="259" unicode="ï" /><glyph d="M189 578 189 648H267L226 708H369L411 648H524V578H454Q502 497 523.5 421Q545 345 545 267Q545 205 527.5 153.5Q510 102 477 65.5Q444 29 397.5 9Q351 -11 292 -11Q235 -11 188 8.5Q141 28 107 63.5Q73 99 54 148.5Q35 198 35 257Q35 315 52.5 363.5Q70 412 100.5 447Q131 482 173.5 501.5Q216 521 266 521Q295 521 324 511.5Q353 502 371 486L373 488L348 526Q339 539 330.5 552.5Q322 566 314 578ZM171 255Q171 186 203.5 145.5Q236 105 290 105Q344 105 376.5 145.5Q409 186 409 255Q409 324 377.5 365Q346 406 290 406Q236 406 203.5 365Q171 324 171 255Z" glyph-name="eth" horiz-adv-x="583" unicode="ð" /><glyph d="M196 0 63 0V511H192V459H194Q214 482 249 501.5Q284 521 332 521Q373 521 405.5 508Q438 495 461 472Q484 449 496 417Q508 385 508 346V0H375V307Q375 352 353 376Q331 400 291 400Q249 400 222.5 371.5Q196 343 196 294ZM447 675Q447 624 423.5 596.5Q400 569 355 569Q339 569 320.5 573.5Q302 578 284.5 583.5Q267 589 251.5 593.5Q236 598 226 598Q218 598 213 593.5Q208 589 208 581V569H120V596Q120 647 143.5 674.5Q167 702 212 702Q229 702 247 697.5Q265 693 282.5 687.5Q300 682 315.5 677.5Q331 673 341 673Q349 673 354 677.5Q359 682 359 690V702H447Z" glyph-name="ntilde" horiz-adv-x="567" unicode="ñ" /><glyph d="M543 255Q543 197 524 148.5Q505 100 471.5 64.5Q438 29 391.5 9Q345 -11 289 -11Q233 -11 186 9Q139 29 105.5 64.5Q72 100 53.5 149Q35 198 35 255Q35 313 53.5 361.5Q72 410 106 445.5Q140 481 186.5 501Q233 521 289 521Q345 521 391.5 501Q438 481 471.5 446Q505 411 524 362Q543 313 543 255ZM170 255Q170 186 202.5 145.5Q235 105 289 105Q343 105 375.5 145.5Q408 186 408 255Q408 324 376.5 365Q345 406 289 406Q235 406 202.5 365Q170 324 170 255ZM434 639 381 560L152 676L223 780Z" glyph-name="ograve" horiz-adv-x="578" unicode="ò" /><glyph d="M543 255Q543 197 524 148.5Q505 100 471.5 64.5Q438 29 391.5 9Q345 -11 289 -11Q233 -11 186 9Q139 29 105.5 64.5Q72 100 53.5 149Q35 198 35 255Q35 313 53.5 361.5Q72 410 106 445.5Q140 481 186.5 501Q233 521 289 521Q345 521 391.5 501Q438 481 471.5 446Q505 411 524 362Q543 313 543 255ZM170 255Q170 186 202.5 145.5Q235 105 289 105Q343 105 375.5 145.5Q408 186 408 255Q408 324 376.5 365Q345 406 289 406Q235 406 202.5 365Q170 324 170 255ZM428 676 199 560L146 639L357 780Z" glyph-name="oacute" horiz-adv-x="578" unicode="ó" /><glyph d="M543 255Q543 197 524 148.5Q505 100 471.5 64.5Q438 29 391.5 9Q345 -11 289 -11Q233 -11 186 9Q139 29 105.5 64.5Q72 100 53.5 149Q35 198 35 255Q35 313 53.5 361.5Q72 410 106 445.5Q140 481 186.5 501Q233 521 289 521Q345 521 391.5 501Q438 481 471.5 446Q505 411 524 362Q543 313 543 255ZM170 255Q170 186 202.5 145.5Q235 105 289 105Q343 105 375.5 145.5Q408 186 408 255Q408 324 376.5 365Q345 406 289 406Q235 406 202.5 365Q170 324 170 255ZM243 571 127 571L200 719H375L448 571H332L287 635Z" glyph-name="ocircumflex" horiz-adv-x="578" unicode="ô" /><glyph d="M543 255Q543 197 524 148.5Q505 100 471.5 64.5Q438 29 391.5 9Q345 -11 289 -11Q233 -11 186 9Q139 29 105.5 64.5Q72 100 53.5 149Q35 198 35 255Q35 313 53.5 361.5Q72 410 106 445.5Q140 481 186.5 501Q233 521 289 521Q345 521 391.5 501Q438 481 471.5 446Q505 411 524 362Q543 313 543 255ZM170 255Q170 186 202.5 145.5Q235 105 289 105Q343 105 375.5 145.5Q408 186 408 255Q408 324 376.5 365Q345 406 289 406Q235 406 202.5 365Q170 324 170 255ZM451 674Q451 623 427.5 595.5Q404 568 359 568Q343 568 324.5 572.5Q306 577 288.5 582.5Q271 588 255.5 592.5Q240 597 230 597Q222 597 217 592.5Q212 588 212 580V568H124V595Q124 646 147.5 673.5Q171 701 216 701Q233 701 251 696.5Q269 692 286.5 686.5Q304 681 319.5 676.5Q335 672 345 672Q353 672 358 676.5Q363 681 363 689V701H451Z" glyph-name="otilde" horiz-adv-x="578" unicode="õ" /><glyph d="M543 255Q543 197 524 148.5Q505 100 471.5 64.5Q438 29 391.5 9Q345 -11 289 -11Q233 -11 186 9Q139 29 105.5 64.5Q72 100 53.5 149Q35 198 35 255Q35 313 53.5 361.5Q72 410 106 445.5Q140 481 186.5 501Q233 521 289 521Q345 521 391.5 501Q438 481 471.5 446Q505 411 524 362Q543 313 543 255ZM170 255Q170 186 202.5 145.5Q235 105 289 105Q343 105 375.5 145.5Q408 186 408 255Q408 324 376.5 365Q345 406 289 406Q235 406 202.5 365Q170 324 170 255ZM384 720Q414 720 436.5 699Q459 678 459 646Q459 615 437.5 593Q416 571 384 571Q353 571 331 593Q309 615 309 646Q309 678 331.5 699Q354 720 384 720ZM191 720Q221 720 243.5 699Q266 678 266 646Q266 614 244 592.5Q222 571 191 571Q159 571 137.5 592.5Q116 614 116 646Q116 677 138 698.5Q160 720 191 720Z" glyph-name="odieresis" horiz-adv-x="578" unicode="ö" /><glyph d="M276 611Q311 611 336.5 586.5Q362 562 362 527Q362 492 336.5 467.5Q311 443 276 443Q241 443 215.5 467.5Q190 492 190 527Q190 562 215.5 586.5Q241 611 276 611ZM276 89Q241 89 215.5 113.5Q190 138 190 173Q190 208 215.5 232.5Q241 257 276 257Q311 257 336.5 232.5Q362 208 362 173Q362 138 336.5 113.5Q311 89 276 89ZM503 291 47 291V409H503Z" glyph-name="divide" horiz-adv-x="550" unicode="÷" /><glyph d="M543 255Q543 197 524 148.5Q505 100 471.5 64.5Q438 29 391.5 9Q345 -11 289 -11Q242 -11 202.5 2.5Q163 16 131 41L80 -10L28 39L82 94Q59 127 47 167.5Q35 208 35 255Q35 313 53.5 361.5Q72 410 106 445.5Q140 481 186.5 501Q233 521 289 521Q336 521 376 507Q416 493 448 467L500 519L552 470L497 414Q519 381 531 341Q543 301 543 255ZM170 255Q170 222 178 192L362 379Q332 406 289 406Q235 406 202.5 365Q170 324 170 255ZM408 255Q408 286 400 315L218 130Q248 105 289 105Q343 105 375.5 145.5Q408 186 408 255Z" glyph-name="oslash" horiz-adv-x="578" unicode="ø" /><glyph d="M371 511 504 511V0H373V51H371Q350 23 314.5 6Q279 -11 237 -11Q197 -11 164 2.5Q131 16 107.5 40Q84 64 71.5 97.5Q59 131 59 171V511H192V203Q192 159 214.5 134Q237 109 277 109Q319 109 345 139Q371 169 371 216ZM425 641 372 562L143 678L214 782Z" glyph-name="ugrave" horiz-adv-x="567" unicode="ù" /><glyph d="M371 511 504 511V0H373V51H371Q350 23 314.5 6Q279 -11 237 -11Q197 -11 164 2.5Q131 16 107.5 40Q84 64 71.5 97.5Q59 131 59 171V511H192V203Q192 159 214.5 134Q237 109 277 109Q319 109 345 139Q371 169 371 216ZM420 678 191 562L138 641L349 782Z" glyph-name="uacute" horiz-adv-x="567" unicode="ú" /><glyph d="M371 511 504 511V0H373V51H371Q350 23 314.5 6Q279 -11 237 -11Q197 -11 164 2.5Q131 16 107.5 40Q84 64 71.5 97.5Q59 131 59 171V511H192V203Q192 159 214.5 134Q237 109 277 109Q319 109 345 139Q371 169 371 216ZM236 573 120 573L193 721H368L441 573H325L280 637Z" glyph-name="ucircumflex" horiz-adv-x="567" unicode="û" /><glyph d="M371 511 504 511V0H373V51H371Q350 23 314.5 6Q279 -11 237 -11Q197 -11 164 2.5Q131 16 107.5 40Q84 64 71.5 97.5Q59 131 59 171V511H192V203Q192 159 214.5 134Q237 109 277 109Q319 109 345 139Q371 169 371 216ZM376 721Q406 721 428.5 700Q451 679 451 647Q451 616 429.5 594Q408 572 376 572Q345 572 323 594Q301 616 301 647Q301 679 323.5 700Q346 721 376 721ZM183 721Q213 721 235.5 700Q258 679 258 647Q258 615 236 593.5Q214 572 183 572Q151 572 129.5 593.5Q108 615 108 647Q108 678 130 699.5Q152 721 183 721Z" glyph-name="udieresis" horiz-adv-x="567" unicode="ü" /><glyph d="M320 -53Q283 -173 153 -173Q124 -173 94.5 -169.5Q65 -166 44 -160L66 -56Q94 -62 104.5 -63Q115 -64 129 -64Q182 -64 195 -18L200 1L17 511H160L268 170H270L363 511H499ZM401 675 172 559L119 638L330 779Z" glyph-name="yacute" horiz-adv-x="520" unicode="ý" /><glyph d="M196 229Q197 172 225.5 138.5Q254 105 306 105Q360 105 392.5 145Q425 185 425 256Q425 324 393.5 365Q362 406 306 406Q255 406 225.5 372Q196 338 196 281ZM196 50 196 -153H63V700H196V460H198Q219 488 256 504.5Q293 521 336 521Q385 521 426 501.5Q467 482 497 446.5Q527 411 543.5 362.5Q560 314 560 256Q560 199 543.5 150Q527 101 497.5 65Q468 29 427 9Q386 -11 336 -11Q294 -11 257.5 5.5Q221 22 198 50Z" glyph-name="thorn" horiz-adv-x="596" unicode="þ" /><glyph d="M320 -53Q283 -173 153 -173Q124 -173 94.5 -169.5Q65 -166 44 -160L66 -56Q94 -62 104.5 -63Q115 -64 129 -64Q182 -64 195 -18L200 1L17 511H160L268 170H270L363 511H499ZM354 719Q384 719 406.5 698Q429 677 429 645Q429 614 407.5 592Q386 570 354 570Q323 570 301 592Q279 614 279 645Q279 677 301.5 698Q324 719 354 719ZM161 719Q191 719 213.5 698Q236 677 236 645Q236 613 214 591.5Q192 570 161 570Q129 570 107.5 591.5Q86 613 86 645Q86 676 108 697.5Q130 719 161 719Z" glyph-name="ydieresis" horiz-adv-x="520" unicode="ÿ" /><glyph d="M495 764 172 764V862H495ZM332 564 330 564L241 258H420ZM655 0 495 0L454 142H207L166 0H14L235 700H434Z" glyph-name="Amacron" horiz-adv-x="669" unicode="Ā" /><glyph d="M415 575 92 575V673H415ZM252 406Q219 406 183 397Q147 388 102 367L44 466Q154 521 272 521Q358 521 409 480Q460 439 460 364V142Q460 91 510 80L456 -12Q420 -10 393.5 6.5Q367 23 353 50H351Q330 21 293 5Q256 -11 210 -11Q171 -11 138 1.5Q105 14 81 35.5Q57 57 43.5 87Q30 117 30 152Q30 219 76.5 260.5Q123 302 201 310L327 323V341Q327 406 252 406ZM327 228 234 215Q200 210 182 194Q164 178 164 153Q164 126 183.5 108.5Q203 91 237 91Q275 91 301 114.5Q327 138 327 175Z" glyph-name="amacron" horiz-adv-x="532" unicode="ā" /><glyph d="M332 564 330 564L241 258H420ZM655 0 495 0L454 142H207L166 0H14L235 700H434ZM334 749Q259 749 218.5 781Q178 813 178 870V892H279V882Q279 865 293.5 854Q308 843 334 843Q360 843 374.5 854Q389 865 389 882V892H490V870Q490 813 449.5 781Q409 749 334 749Z" glyph-name="Abreve" horiz-adv-x="669" unicode="Ă" /><glyph d="M252 406Q219 406 183 397Q147 388 102 367L44 466Q154 521 272 521Q358 521 409 480Q460 439 460 364V142Q460 91 510 80L456 -12Q420 -10 393.5 6.5Q367 23 353 50H351Q330 21 293 5Q256 -11 210 -11Q171 -11 138 1.5Q105 14 81 35.5Q57 57 43.5 87Q30 117 30 152Q30 219 76.5 260.5Q123 302 201 310L327 323V341Q327 406 252 406ZM327 228 234 215Q200 210 182 194Q164 178 164 153Q164 126 183.5 108.5Q203 91 237 91Q275 91 301 114.5Q327 138 327 175ZM255 560Q180 560 139.5 592Q99 624 99 681V703H200V693Q200 676 214.5 665Q229 654 255 654Q281 654 295.5 665Q310 676 310 693V703H411V681Q411 624 370.5 592Q330 560 255 560Z" glyph-name="abreve" horiz-adv-x="532" unicode="ă" /><glyph d="M580 -122Q603 -122 630 -116L625 -197Q604 -205 583 -208Q562 -211 541 -211Q487 -211 455.5 -188.5Q424 -166 424 -121Q424 -92 444 -60Q464 -28 496 0H495L454 142H207L166 0H14L235 700H434L655 0H577Q554 -41 547.5 -59.5Q541 -78 541 -89Q541 -104 550.5 -113Q560 -122 580 -122ZM332 564 330 564L241 258H420Z" glyph-name="Aogonek" horiz-adv-x="669" unicode="Ą" /><glyph d="M466 -122Q489 -122 516 -116L511 -197Q490 -205 469 -208Q448 -211 427 -211Q373 -211 341.5 -188.5Q310 -166 310 -121Q310 -90 333 -55.5Q356 -21 391 8Q366 23 353 50H351Q330 21 293 5Q256 -11 210 -11Q171 -11 138 1.5Q105 14 81 35.5Q57 57 43.5 87Q30 117 30 152Q30 219 76.5 260.5Q123 302 201 310L327 323V341Q327 406 252 406Q219 406 183 397Q147 388 102 367L44 466Q154 521 272 521Q358 521 409 480Q460 439 460 364V142Q460 91 510 80L467 6L456 -12Q419 -9 391 8Q399 15 408 21Q417 27 426 33L478 26Q462 -2 452 -21.5Q442 -41 436.5 -54Q431 -67 429 -75Q427 -83 427 -89Q427 -104 436.5 -113Q446 -122 466 -122ZM327 228 234 215Q200 210 182 194Q164 178 164 153Q164 126 183.5 108.5Q203 91 237 91Q275 91 301 114.5Q327 138 327 175Z" glyph-name="aogonek" horiz-adv-x="532" unicode="ą" /><glyph d="M371 585Q329 585 295 567.5Q261 550 237 518.5Q213 487 200 444Q187 401 187 350Q187 298 200 255Q213 212 237 181Q261 150 295 132.5Q329 115 371 115Q425 115 465.5 145.5Q506 176 527 230L662 185Q627 93 550.5 41.5Q474 -10 368 -10Q294 -10 233.5 16.5Q173 43 129.5 91Q86 139 62 205Q38 271 38 350Q38 428 62 494Q86 560 129.5 608Q173 656 233.5 683Q294 710 368 710Q474 710 550.5 658.5Q627 607 662 514L527 470Q506 524 465.5 554.5Q425 585 371 585ZM488 865 259 749L206 828L417 969Z" glyph-name="Cacute" horiz-adv-x="685" unicode="Ć" /><glyph d="M288 406Q234 406 201.5 365Q169 324 169 255Q169 186 201.5 145.5Q234 105 288 105Q360 105 391 177L502 123Q472 59 415.5 24.5Q359 -10 283 -10Q226 -10 180.5 10Q135 30 102.5 65.5Q70 101 52.5 149Q35 197 35 253Q35 312 53 361.5Q71 411 103.5 446.5Q136 482 182 501.5Q228 521 283 521Q359 521 415.5 487Q472 453 502 388L391 334Q360 406 288 406ZM408 676 179 560L126 639L337 780Z" glyph-name="cacute" horiz-adv-x="528" unicode="ć" /><glyph d="M371 585Q329 585 295 567.5Q261 550 237 518.5Q213 487 200 444Q187 401 187 350Q187 298 200 255Q213 212 237 181Q261 150 295 132.5Q329 115 371 115Q425 115 465.5 145.5Q506 176 527 230L662 185Q627 93 550.5 41.5Q474 -10 368 -10Q294 -10 233.5 16.5Q173 43 129.5 91Q86 139 62 205Q38 271 38 350Q38 428 62 494Q86 560 129.5 608Q173 656 233.5 683Q294 710 368 710Q474 710 550.5 658.5Q627 607 662 514L527 470Q506 524 465.5 554.5Q425 585 371 585ZM303 760 187 760L260 908H435L508 760H392L347 824Z" glyph-name="Ccircumflex" horiz-adv-x="685" unicode="Ĉ" /><glyph d="M288 406Q234 406 201.5 365Q169 324 169 255Q169 186 201.5 145.5Q234 105 288 105Q360 105 391 177L502 123Q472 59 415.5 24.5Q359 -10 283 -10Q226 -10 180.5 10Q135 30 102.5 65.5Q70 101 52.5 149Q35 197 35 253Q35 312 53 361.5Q71 411 103.5 446.5Q136 482 182 501.5Q228 521 283 521Q359 521 415.5 487Q472 453 502 388L391 334Q360 406 288 406ZM223 571 107 571L180 719H355L428 571H312L267 635Z" glyph-name="ccircumflex" horiz-adv-x="528" unicode="ĉ" /><glyph d="M371 585Q329 585 295 567.5Q261 550 237 518.5Q213 487 200 444Q187 401 187 350Q187 298 200 255Q213 212 237 181Q261 150 295 132.5Q329 115 371 115Q425 115 465.5 145.5Q506 176 527 230L662 185Q627 93 550.5 41.5Q474 -10 368 -10Q294 -10 233.5 16.5Q173 43 129.5 91Q86 139 62 205Q38 271 38 350Q38 428 62 494Q86 560 129.5 608Q173 656 233.5 683Q294 710 368 710Q474 710 550.5 658.5Q627 607 662 514L527 470Q506 524 465.5 554.5Q425 585 371 585ZM433 840Q433 804 409 779.5Q385 755 348 755Q311 755 287 780Q263 805 263 840Q263 875 288 900Q313 925 348 925Q383 925 408 900.5Q433 876 433 840Z" glyph-name="Cdotaccent" horiz-adv-x="685" unicode="Ċ" /><glyph d="M288 406Q234 406 201.5 365Q169 324 169 255Q169 186 201.5 145.5Q234 105 288 105Q360 105 391 177L502 123Q472 59 415.5 24.5Q359 -10 283 -10Q226 -10 180.5 10Q135 30 102.5 65.5Q70 101 52.5 149Q35 197 35 253Q35 312 53 361.5Q71 411 103.5 446.5Q136 482 182 501.5Q228 521 283 521Q359 521 415.5 487Q472 453 502 388L391 334Q360 406 288 406ZM353 651Q353 615 329 590.5Q305 566 268 566Q231 566 207 591Q183 616 183 651Q183 686 208 711Q233 736 268 736Q303 736 328 711.5Q353 687 353 651Z" glyph-name="cdotaccent" horiz-adv-x="528" unicode="ċ" /><glyph d="M371 585Q329 585 295 567.5Q261 550 237 518.5Q213 487 200 444Q187 401 187 350Q187 298 200 255Q213 212 237 181Q261 150 295 132.5Q329 115 371 115Q425 115 465.5 145.5Q506 176 527 230L662 185Q627 93 550.5 41.5Q474 -10 368 -10Q294 -10 233.5 16.5Q173 43 129.5 91Q86 139 62 205Q38 271 38 350Q38 428 62 494Q86 560 129.5 608Q173 656 233.5 683Q294 710 368 710Q474 710 550.5 658.5Q627 607 662 514L527 470Q506 524 465.5 554.5Q425 585 371 585ZM260 760 187 908H303L348 844L392 908H508L435 760Z" glyph-name="Ccaron" horiz-adv-x="685" unicode="Č" /><glyph d="M288 406Q234 406 201.5 365Q169 324 169 255Q169 186 201.5 145.5Q234 105 288 105Q360 105 391 177L502 123Q472 59 415.5 24.5Q359 -10 283 -10Q226 -10 180.5 10Q135 30 102.5 65.5Q70 101 52.5 149Q35 197 35 253Q35 312 53 361.5Q71 411 103.5 446.5Q136 482 182 501.5Q228 521 283 521Q359 521 415.5 487Q472 453 502 388L391 334Q360 406 288 406ZM180 571 107 719H223L268 655L312 719H428L355 571Z" glyph-name="ccaron" horiz-adv-x="528" unicode="č" /><glyph d="M76 0 76 700H350Q427 700 489 675.5Q551 651 595 605Q639 559 663 494.5Q687 430 687 350Q687 270 663 205.5Q639 141 595 95Q551 49 489 24.5Q427 0 350 0ZM219 578 219 122H328Q431 122 484.5 182.5Q538 243 538 350Q538 454 485 516Q432 578 328 578ZM268 757 195 905H311L356 841L400 905H516L443 757Z" glyph-name="Dcaron" horiz-adv-x="726" unicode="Ď" /><glyph d="M171 256Q171 187 202.5 146Q234 105 290 105Q342 105 371 138.5Q400 172 400 229V281Q400 339 371 372.5Q342 406 290 406Q233 406 202 365.5Q171 325 171 256ZM399 460 399 700H532V0H399V50H397Q375 22 338 5.5Q301 -11 259 -11Q210 -11 169 9Q128 29 98.5 64.5Q69 100 52.5 149Q36 198 36 256Q36 314 52.5 362.5Q69 411 98.5 446.5Q128 482 169 501.5Q210 521 259 521Q302 521 338.5 504.5Q375 488 396 460ZM738 610Q738 565 709 518.5Q680 472 624 427L581 462Q604 484 620.5 504Q637 524 637 535Q637 543 632.5 547.5Q628 552 620 557Q591 574 582.5 590Q574 606 574 625Q574 657 597 678.5Q620 700 652 700Q688 700 713 674.5Q738 649 738 610Z" glyph-name="dcaron" horiz-adv-x="687" unicode="ď" /><glyph d="M77 0 77 293H24V406H77V700H351Q428 700 490 675.5Q552 651 596 605Q640 559 664 494.5Q688 430 688 350Q688 270 664 205.5Q640 141 596 95Q552 49 490 24.5Q428 0 351 0ZM220 578 220 406H384V293H220V122H329Q432 122 485.5 182.5Q539 243 539 350Q539 454 486 516Q433 578 329 578Z" glyph-name="Dcroat" horiz-adv-x="727" unicode="Đ" /><glyph d="M399 460 399 568H298V639H399V700H532V639H589V568H532V0H399V50H397Q375 22 338 5.5Q301 -11 259 -11Q210 -11 169 9Q128 29 98.5 64.5Q69 100 52.5 149Q36 198 36 256Q36 314 52.5 362.5Q69 411 98.5 446.5Q128 482 169 501.5Q210 521 259 521Q302 521 338.5 504.5Q375 488 396 460ZM171 256Q171 187 202.5 146Q234 105 290 105Q342 105 371 138.5Q400 172 400 229V281Q400 339 371 372.5Q342 406 290 406Q233 406 202 365.5Q171 325 171 256Z" glyph-name="dcroat" horiz-adv-x="596" unicode="đ" /><glyph d="M477 764 154 764V862H477ZM571 0 76 0V700H561V572H219V417H500V295H219V127H571Z" glyph-name="Emacron" horiz-adv-x="606" unicode="Ē" /><glyph d="M438 575 115 575V673H438ZM289 -11Q234 -11 187.5 8Q141 27 107 61Q73 95 54 143.5Q35 192 35 250Q35 310 53.5 360Q72 410 105 446Q138 482 183 501.5Q228 521 280 521Q332 521 375 502Q418 483 449 449Q480 415 497.5 367Q515 319 515 262V218H172Q177 166 212 136Q247 106 299 106Q332 106 364 119Q396 132 417 155L493 64Q409 -11 289 -11ZM280 411Q238 411 208.5 382Q179 353 173 307H384Q379 353 350.5 382Q322 411 280 411Z" glyph-name="emacron" horiz-adv-x="547" unicode="ē" /><glyph d="M571 0 76 0V700H561V572H219V417H500V295H219V127H571ZM316 749Q241 749 200.5 781Q160 813 160 870V892H261V882Q261 865 275.5 854Q290 843 316 843Q342 843 356.5 854Q371 865 371 882V892H472V870Q472 813 431.5 781Q391 749 316 749Z" glyph-name="Ebreve" horiz-adv-x="606" unicode="Ĕ" /><glyph d="M289 -11Q234 -11 187.5 8Q141 27 107 61Q73 95 54 143.5Q35 192 35 250Q35 310 53.5 360Q72 410 105 446Q138 482 183 501.5Q228 521 280 521Q332 521 375 502Q418 483 449 449Q480 415 497.5 367Q515 319 515 262V218H172Q177 166 212 136Q247 106 299 106Q332 106 364 119Q396 132 417 155L493 64Q409 -11 289 -11ZM280 411Q238 411 208.5 382Q179 353 173 307H384Q379 353 350.5 382Q322 411 280 411ZM277 560Q202 560 161.5 592Q121 624 121 681V703H222V693Q222 676 236.5 665Q251 654 277 654Q303 654 317.5 665Q332 676 332 693V703H433V681Q433 624 392.5 592Q352 560 277 560Z" glyph-name="ebreve" horiz-adv-x="547" unicode="ĕ" /><glyph d="M571 0 76 0V700H561V572H219V417H500V295H219V127H571ZM401 840Q401 804 377 779.5Q353 755 316 755Q279 755 255 780Q231 805 231 840Q231 875 256 900Q281 925 316 925Q351 925 376 900.5Q401 876 401 840Z" glyph-name="Edotaccent" horiz-adv-x="606" unicode="Ė" /><glyph d="M289 -11Q234 -11 187.5 8Q141 27 107 61Q73 95 54 143.5Q35 192 35 250Q35 310 53.5 360Q72 410 105 446Q138 482 183 501.5Q228 521 280 521Q332 521 375 502Q418 483 449 449Q480 415 497.5 367Q515 319 515 262V218H172Q177 166 212 136Q247 106 299 106Q332 106 364 119Q396 132 417 155L493 64Q409 -11 289 -11ZM280 411Q238 411 208.5 382Q179 353 173 307H384Q379 353 350.5 382Q322 411 280 411ZM362 651Q362 615 338 590.5Q314 566 277 566Q240 566 216 591Q192 616 192 651Q192 686 217 711Q242 736 277 736Q312 736 337 711.5Q362 687 362 651Z" glyph-name="edotaccent" horiz-adv-x="547" unicode="ė" /><glyph d="M571 0Q525 -29 503 -53Q481 -77 481 -89Q481 -104 490.5 -113Q500 -122 520 -122Q543 -122 570 -116L565 -197Q544 -205 523 -208Q502 -211 481 -211Q427 -211 395.5 -188.5Q364 -166 364 -121Q364 -91 390 -58Q416 -25 465 0H76V700H561V572H219V417H500V295H219V127H571Z" glyph-name="Eogonek" horiz-adv-x="606" unicode="Ę" /><glyph d="M289 -11Q234 -11 187.5 8Q141 27 107 61Q73 95 54 143.5Q35 192 35 250Q35 310 53.5 360Q72 410 105 446Q138 482 183 501.5Q228 521 280 521Q332 521 375 502Q418 483 449 449Q480 415 497.5 367Q515 319 515 262V218H172Q177 166 212 136Q247 106 299 106Q332 106 364 119Q396 132 417 155L493 64Q448 23 394 6Q369 -38 362 -58Q355 -78 355 -89Q355 -104 364.5 -113Q374 -122 394 -122Q417 -122 444 -116L439 -197Q418 -205 397 -208Q376 -211 355 -211Q301 -211 269.5 -188.5Q238 -166 238 -121Q238 -95 254.5 -66Q271 -37 298 -11ZM280 411Q238 411 208.5 382Q179 353 173 307H384Q379 353 350.5 382Q322 411 280 411Z" glyph-name="eogonek" horiz-adv-x="547" unicode="ę" /><glyph d="M571 0 76 0V700H561V572H219V417H500V295H219V127H571ZM228 760 155 908H271L316 844L360 908H476L403 760Z" glyph-name="Ecaron" horiz-adv-x="606" unicode="Ě" /><glyph d="M289 -11Q234 -11 187.5 8Q141 27 107 61Q73 95 54 143.5Q35 192 35 250Q35 310 53.5 360Q72 410 105 446Q138 482 183 501.5Q228 521 280 521Q332 521 375 502Q418 483 449 449Q480 415 497.5 367Q515 319 515 262V218H172Q177 166 212 136Q247 106 299 106Q332 106 364 119Q396 132 417 155L493 64Q409 -11 289 -11ZM280 411Q238 411 208.5 382Q179 353 173 307H384Q379 353 350.5 382Q322 411 280 411ZM189 571 116 719H232L277 655L321 719H437L364 571Z" glyph-name="ecaron" horiz-adv-x="547" unicode="ě" /><glyph d="M565 0 565 88H564Q534 40 480.5 15Q427 -10 359 -10Q287 -10 228 16.5Q169 43 126.5 90.5Q84 138 61 203.5Q38 269 38 347Q38 427 63 493.5Q88 560 133 608Q178 656 241 683Q304 710 380 710Q433 710 480.5 696.5Q528 683 567.5 658Q607 633 638 597Q669 561 687 516L552 472Q532 523 485.5 554Q439 585 384 585Q339 585 302.5 567.5Q266 550 240.5 518.5Q215 487 201 444Q187 401 187 349Q187 298 200.5 255Q214 212 239.5 180.5Q265 149 300.5 131.5Q336 114 379 114Q412 114 441.5 125.5Q471 137 493.5 157Q516 177 530 204.5Q544 232 547 263H374V375H684V0ZM322 760 206 760L279 908H454L527 760H411L366 824Z" glyph-name="Gcircumflex" horiz-adv-x="737" unicode="Ĝ" /><glyph d="M381 297Q381 350 353.5 380Q326 410 278 410Q227 410 199.5 374Q172 338 172 278Q172 217 200 181Q228 145 278 145Q326 145 353.5 175.5Q381 206 381 258ZM266 -175Q144 -175 54 -132L100 -20Q132 -36 174.5 -47.5Q217 -59 255 -59Q320 -59 350.5 -33Q381 -7 381 45V87H379Q359 62 326 48.5Q293 35 251 35Q204 35 165 52.5Q126 70 97.5 102Q69 134 53 178.5Q37 223 37 278Q37 332 52.5 377Q68 422 96.5 454Q125 486 164.5 503.5Q204 521 251 521Q291 521 324.5 507Q358 493 379 468H381V511H514V30Q514 -68 447.5 -121.5Q381 -175 266 -175ZM228 573 112 573L185 721H360L433 573H317L272 637Z" glyph-name="gcircumflex" horiz-adv-x="577" unicode="ĝ" /><glyph d="M565 0 565 88H564Q534 40 480.5 15Q427 -10 359 -10Q287 -10 228 16.5Q169 43 126.5 90.5Q84 138 61 203.5Q38 269 38 347Q38 427 63 493.5Q88 560 133 608Q178 656 241 683Q304 710 380 710Q433 710 480.5 696.5Q528 683 567.5 658Q607 633 638 597Q669 561 687 516L552 472Q532 523 485.5 554Q439 585 384 585Q339 585 302.5 567.5Q266 550 240.5 518.5Q215 487 201 444Q187 401 187 349Q187 298 200.5 255Q214 212 239.5 180.5Q265 149 300.5 131.5Q336 114 379 114Q412 114 441.5 125.5Q471 137 493.5 157Q516 177 530 204.5Q544 232 547 263H374V375H684V0ZM366 749Q291 749 250.5 781Q210 813 210 870V892H311V882Q311 865 325.5 854Q340 843 366 843Q392 843 406.5 854Q421 865 421 882V892H522V870Q522 813 481.5 781Q441 749 366 749Z" glyph-name="Gbreve" horiz-adv-x="737" unicode="Ğ" /><glyph d="M381 297Q381 350 353.5 380Q326 410 278 410Q227 410 199.5 374Q172 338 172 278Q172 217 200 181Q228 145 278 145Q326 145 353.5 175.5Q381 206 381 258ZM266 -175Q144 -175 54 -132L100 -20Q132 -36 174.5 -47.5Q217 -59 255 -59Q320 -59 350.5 -33Q381 -7 381 45V87H379Q359 62 326 48.5Q293 35 251 35Q204 35 165 52.5Q126 70 97.5 102Q69 134 53 178.5Q37 223 37 278Q37 332 52.5 377Q68 422 96.5 454Q125 486 164.5 503.5Q204 521 251 521Q291 521 324.5 507Q358 493 379 468H381V511H514V30Q514 -68 447.5 -121.5Q381 -175 266 -175ZM273 562Q198 562 157.5 594Q117 626 117 683V705H218V695Q218 678 232.5 667Q247 656 273 656Q299 656 313.5 667Q328 678 328 695V705H429V683Q429 626 388.5 594Q348 562 273 562Z" glyph-name="gbreve" horiz-adv-x="577" unicode="ğ" /><glyph d="M565 0 565 88H564Q534 40 480.5 15Q427 -10 359 -10Q287 -10 228 16.5Q169 43 126.5 90.5Q84 138 61 203.5Q38 269 38 347Q38 427 63 493.5Q88 560 133 608Q178 656 241 683Q304 710 380 710Q433 710 480.5 696.5Q528 683 567.5 658Q607 633 638 597Q669 561 687 516L552 472Q532 523 485.5 554Q439 585 384 585Q339 585 302.5 567.5Q266 550 240.5 518.5Q215 487 201 444Q187 401 187 349Q187 298 200.5 255Q214 212 239.5 180.5Q265 149 300.5 131.5Q336 114 379 114Q412 114 441.5 125.5Q471 137 493.5 157Q516 177 530 204.5Q544 232 547 263H374V375H684V0ZM451 840Q451 804 427 779.5Q403 755 366 755Q329 755 305 780Q281 805 281 840Q281 875 306 900Q331 925 366 925Q401 925 426 900.5Q451 876 451 840Z" glyph-name="Gdotaccent" horiz-adv-x="737" unicode="Ġ" /><glyph d="M381 297Q381 350 353.5 380Q326 410 278 410Q227 410 199.5 374Q172 338 172 278Q172 217 200 181Q228 145 278 145Q326 145 353.5 175.5Q381 206 381 258ZM266 -175Q144 -175 54 -132L100 -20Q132 -36 174.5 -47.5Q217 -59 255 -59Q320 -59 350.5 -33Q381 -7 381 45V87H379Q359 62 326 48.5Q293 35 251 35Q204 35 165 52.5Q126 70 97.5 102Q69 134 53 178.5Q37 223 37 278Q37 332 52.5 377Q68 422 96.5 454Q125 486 164.5 503.5Q204 521 251 521Q291 521 324.5 507Q358 493 379 468H381V511H514V30Q514 -68 447.5 -121.5Q381 -175 266 -175ZM358 653Q358 617 334 592.5Q310 568 273 568Q236 568 212 593Q188 618 188 653Q188 688 213 713Q238 738 273 738Q308 738 333 713.5Q358 689 358 653Z" glyph-name="gdotaccent" horiz-adv-x="577" unicode="ġ" /><glyph d="M565 0 565 88H564Q534 40 480.5 15Q427 -10 359 -10Q287 -10 228 16.5Q169 43 126.5 90.5Q84 138 61 203.5Q38 269 38 347Q38 427 63 493.5Q88 560 133 608Q178 656 241 683Q304 710 380 710Q433 710 480.5 696.5Q528 683 567.5 658Q607 633 638 597Q669 561 687 516L552 472Q532 523 485.5 554Q439 585 384 585Q339 585 302.5 567.5Q266 550 240.5 518.5Q215 487 201 444Q187 401 187 349Q187 298 200.5 255Q214 212 239.5 180.5Q265 149 300.5 131.5Q336 114 379 114Q412 114 441.5 125.5Q471 137 493.5 157Q516 177 530 204.5Q544 232 547 263H374V375H684V0ZM365 -50Q402 -50 426.5 -76Q451 -102 451 -140Q451 -234 337 -322L294 -288Q320 -265 335 -244.5Q350 -224 350 -211Q350 -206 348.5 -201.5Q347 -197 333 -191Q307 -179 297 -163Q287 -147 287 -128Q287 -96 310 -73Q333 -50 365 -50Z" glyph-name="Gcommaaccent" horiz-adv-x="737" unicode="Ģ" /><glyph d="M381 297Q381 350 353.5 380Q326 410 278 410Q227 410 199.5 374Q172 338 172 278Q172 217 200 181Q228 145 278 145Q326 145 353.5 175.5Q381 206 381 258ZM266 -175Q144 -175 54 -132L100 -20Q132 -36 174.5 -47.5Q217 -59 255 -59Q320 -59 350.5 -33Q381 -7 381 45V87H379Q359 62 326 48.5Q293 35 251 35Q204 35 165 52.5Q126 70 97.5 102Q69 134 53 178.5Q37 223 37 278Q37 332 52.5 377Q68 422 96.5 454Q125 486 164.5 503.5Q204 521 251 521Q291 521 324.5 507Q358 493 379 468H381V511H514V30Q514 -68 447.5 -121.5Q381 -175 266 -175ZM188 657Q188 702 217 748.5Q246 795 302 840L345 805Q322 783 305.5 763Q289 743 289 732Q289 724 293.5 719.5Q298 715 306 710Q335 693 343.5 677Q352 661 352 642Q352 610 329 588.5Q306 567 274 567Q238 567 213 592.5Q188 618 188 657Z" glyph-name="gcommaaccent" horiz-adv-x="577" unicode="ģ" /><glyph d="M219 0 76 0V700H219V422H519V700H662V0H519V295H219ZM324 760 208 760L281 908H456L529 760H413L368 824Z" glyph-name="Hcircumflex" horiz-adv-x="738" unicode="Ĥ" /><glyph d="M196 0 63 0V700H196V459H198Q221 487 255.5 504Q290 521 333 521Q374 521 406.5 508Q439 495 461.5 472Q484 449 496 417Q508 385 508 346V0H375V307Q375 352 353 376Q331 400 291 400Q249 400 222.5 371.5Q196 343 196 294ZM238 751 122 751L195 899H370L443 751H327L282 815Z" glyph-name="hcircumflex" horiz-adv-x="567" unicode="ĥ" /><glyph d="M221 506 221 422H521V506ZM78 506 23 506V597H78V700H221V597H521V700H664V597H719V506H664V0H521V295H221V0H78Z" glyph-name="Hbar" horiz-adv-x="742" unicode="Ħ" /><glyph d="M196 0 63 0V568H7V639H63V700H196V639H298V568H196V459H198Q221 487 255.5 504Q290 521 333 521Q374 521 406.5 508Q439 495 461.5 472Q484 449 496 417Q508 385 508 346V0H375V307Q375 352 353 376Q331 400 291 400Q249 400 222.5 371.5Q196 343 196 294Z" glyph-name="hbar" horiz-adv-x="567" unicode="ħ" /><glyph d="M219 0 76 0V700H219ZM311 863Q311 812 287.5 784.5Q264 757 219 757Q203 757 184.5 761.5Q166 766 148.5 771.5Q131 777 115.5 781.5Q100 786 90 786Q82 786 77 781.5Q72 777 72 769V757H-16V784Q-16 835 7.5 862.5Q31 890 76 890Q93 890 111 885.5Q129 881 146.5 875.5Q164 870 179.5 865.5Q195 861 205 861Q213 861 218 865.5Q223 870 223 878V890H311Z" glyph-name="Itilde" horiz-adv-x="295" unicode="Ĩ" /><glyph d="M294 681Q294 630 270.5 602.5Q247 575 202 575Q186 575 167.5 579.5Q149 584 131.5 589.5Q114 595 98.5 599.5Q83 604 73 604Q65 604 60 599.5Q55 595 55 587V575H-33V602Q-33 653 -9.5 680.5Q14 708 59 708Q76 708 94 703.5Q112 699 129.5 693.5Q147 688 162.5 683.5Q178 679 188 679Q196 679 201 683.5Q206 688 206 696V708H294ZM196 0 63 0V511H196Z" glyph-name="itilde" horiz-adv-x="259" unicode="ĩ" /><glyph d="M309 764 -14 764V862H309ZM219 0 76 0V700H219Z" glyph-name="Imacron" horiz-adv-x="295" unicode="Ī" /><glyph d="M292 582 -31 582V680H292ZM196 0 63 0V511H196Z" glyph-name="imacron" horiz-adv-x="259" unicode="ī" /><glyph d="M219 0 76 0V700H219ZM148 749Q73 749 32.5 781Q-8 813 -8 870V892H93V882Q93 865 107.5 854Q122 843 148 843Q174 843 188.5 854Q203 865 203 882V892H304V870Q304 813 263.5 781Q223 749 148 749Z" glyph-name="Ibreve" horiz-adv-x="295" unicode="Ĭ" /><glyph d="M131 567Q56 567 15.5 599Q-25 631 -25 688V710H76V700Q76 683 90.5 672Q105 661 131 661Q157 661 171.5 672Q186 683 186 700V710H287V688Q287 631 246.5 599Q206 567 131 567ZM196 0 63 0V511H196Z" glyph-name="ibreve" horiz-adv-x="259" unicode="ĭ" /><glyph d="M249 -197Q228 -205 207 -208Q186 -211 165 -211Q111 -211 79.5 -187Q48 -163 48 -118Q48 -91 66.5 -59.5Q85 -28 117 0H76V700H219V0H218Q190 -29 177.5 -51.5Q165 -74 165 -93Q165 -122 204 -122Q215 -122 228 -120.5Q241 -119 254 -116Z" glyph-name="Iogonek" horiz-adv-x="295" unicode="Į" /><glyph d="M196 0Q166 -31 154 -54Q142 -77 142 -89Q142 -104 151.5 -113Q161 -122 181 -122Q204 -122 231 -116L226 -197Q205 -205 184 -208Q163 -211 142 -211Q88 -211 56.5 -188.5Q25 -166 25 -121Q25 -91 46.5 -58.5Q68 -26 106 0H63V511H196ZM208 642Q208 610 184.5 588Q161 566 129 566Q97 566 74 588.5Q51 611 51 642Q51 674 74 696.5Q97 719 129 719Q160 719 184 696.5Q208 674 208 642Z" glyph-name="iogonek" horiz-adv-x="259" unicode="į" /><glyph d="M219 0 76 0V700H219ZM233 840Q233 804 209 779.5Q185 755 148 755Q111 755 87 780Q63 805 63 840Q63 875 88 900Q113 925 148 925Q183 925 208 900.5Q233 876 233 840Z" glyph-name="Idotaccent" horiz-adv-x="295" unicode="İ" /><glyph d="M196 0 63 0V511H196Z" glyph-name="dotlessi" horiz-adv-x="259" unicode="ı" /><glyph d="M219 0 76 0V700H219ZM467 -10Q410 -10 366.5 0Q323 10 294 24L349 141Q395 115 449 115Q528 115 528 197V700H672V174Q672 87 618 38.5Q564 -10 467 -10Z" glyph-name="IJ" horiz-adv-x="743" unicode="Ĳ" /><glyph d="M208 642Q208 610 184.5 588Q161 566 129 566Q97 566 74 588.5Q51 611 51 642Q51 674 74 696.5Q97 719 129 719Q160 719 184 696.5Q208 674 208 642ZM196 0 63 0V511H196ZM463 642Q463 610 439.5 588Q416 566 384 566Q352 566 329 588.5Q306 611 306 642Q306 674 329 696.5Q352 719 384 719Q415 719 439 696.5Q463 674 463 642ZM318 511 451 511V-42Q451 -101 415 -132Q379 -163 316 -163Q275 -163 228 -154L247 -53Q252 -54 258 -55Q263 -55 268.5 -55.5Q274 -56 280 -56Q318 -56 318 -18Z" glyph-name="ij" horiz-adv-x="514" unicode="ĳ" /><glyph d="M174 -10Q117 -10 73.5 0Q30 10 1 24L56 141Q102 115 156 115Q235 115 235 197V700H379V174Q379 87 325 38.5Q271 -10 174 -10ZM260 760 144 760L217 908H392L465 760H349L304 824Z" glyph-name="Jcircumflex" horiz-adv-x="450" unicode="Ĵ" /><glyph d="M63 511 196 511V-42Q196 -101 160 -132Q124 -163 61 -163Q20 -163 -27 -154L-8 -53Q-3 -54 3 -55Q8 -55 13.5 -55.5Q19 -56 25 -56Q63 -56 63 -18ZM85 578 -31 578L42 726H217L290 578H174L129 642Z" glyph-name="jcircumflex" horiz-adv-x="259" unicode="ĵ" /><glyph d="M219 0 76 0V700H219V385H221L489 700H666L424 422L683 0H511L319 317L219 205ZM342 -50Q379 -50 403.5 -76Q428 -102 428 -140Q428 -234 314 -322L271 -288Q297 -265 312 -244.5Q327 -224 327 -211Q327 -206 325.5 -201.5Q324 -197 310 -191Q284 -179 274 -163Q264 -147 264 -128Q264 -96 287 -73Q310 -50 342 -50Z" glyph-name="Kcommaaccent" horiz-adv-x="683" unicode="Ķ" /><glyph d="M196 0 63 0V700H196V308H198L366 511H524L347 306L544 0H385L247 216L196 156ZM266 -49Q303 -49 327.5 -75Q352 -101 352 -139Q352 -233 238 -321L195 -287Q221 -264 236 -243.5Q251 -223 251 -210Q251 -205 249.5 -200.5Q248 -196 234 -190Q208 -178 198 -162Q188 -146 188 -127Q188 -95 211 -72Q234 -49 266 -49Z" glyph-name="kcommaaccent" horiz-adv-x="540" unicode="ķ" /><glyph d="M196 0 63 0V511H196V308H198L366 511H524L347 306L544 0H385L247 216L196 156Z" glyph-name="kgreenlandic" horiz-adv-x="540" unicode="ĸ" /><glyph d="M523 0 76 0V700H219V127H523ZM318 865 89 749L36 828L247 969Z" glyph-name="Lacute" horiz-adv-x="539" unicode="Ĺ" /><glyph d="M234 101Q242 101 261 104L275 3Q251 -3 231.5 -5.5Q212 -8 196 -8Q130 -8 95.5 20Q61 48 61 105V700H194V138Q194 118 203 109.5Q212 101 234 101ZM270 856 41 740L-12 819L199 960Z" glyph-name="lacute" horiz-adv-x="282" unicode="ĺ" /><glyph d="M523 0 76 0V700H219V127H523ZM288 -50Q325 -50 349.5 -76Q374 -102 374 -140Q374 -234 260 -322L217 -288Q243 -265 258 -244.5Q273 -224 273 -211Q273 -206 271.5 -201.5Q270 -197 256 -191Q230 -179 220 -163Q210 -147 210 -128Q210 -96 233 -73Q256 -50 288 -50Z" glyph-name="Lcommaaccent" horiz-adv-x="539" unicode="Ļ" /><glyph d="M234 101Q242 101 261 104L275 3Q251 -3 231.5 -5.5Q212 -8 196 -8Q130 -8 95.5 20Q61 48 61 105V700H194V138Q194 118 203 109.5Q212 101 234 101ZM157 -49Q194 -49 218.5 -75Q243 -101 243 -139Q243 -233 129 -321L86 -287Q112 -264 127 -243.5Q142 -223 142 -210Q142 -205 140.5 -200.5Q139 -196 125 -190Q99 -178 89 -162Q79 -146 79 -127Q79 -95 102 -72Q125 -49 157 -49Z" glyph-name="lcommaaccent" horiz-adv-x="282" unicode="ļ" /><glyph d="M523 0 76 0V700H219V127H523ZM494 621Q494 576 465 529.5Q436 483 380 438L337 473Q360 495 376.5 515Q393 535 393 546Q393 554 388.5 558.5Q384 563 376 568Q347 585 338.5 601Q330 617 330 636Q330 668 353 689.5Q376 711 408 711Q444 711 469 685.5Q494 660 494 621Z" glyph-name="Lcaron" horiz-adv-x="544" unicode="Ľ" /><glyph d="M234 101Q242 101 261 104L275 3Q251 -3 231.5 -5.5Q212 -8 196 -8Q130 -8 95.5 20Q61 48 61 105V700H194V138Q194 118 203 109.5Q212 101 234 101ZM406 610Q406 565 377 518.5Q348 472 292 427L249 462Q272 484 288.5 504Q305 524 305 535Q305 543 300.5 547.5Q296 552 288 557Q259 574 250.5 590Q242 606 242 625Q242 657 265 678.5Q288 700 320 700Q356 700 381 674.5Q406 649 406 610Z" glyph-name="lcaron" horiz-adv-x="360" unicode="ľ" /><glyph d="M523 0 76 0V700H219V127H523ZM491 368Q491 350 483.5 333.5Q476 317 463.5 304Q451 291 434 283.5Q417 276 398 276Q379 276 362 283.5Q345 291 332.5 303.5Q320 316 312.5 333Q305 350 305 368Q305 386 312.5 403Q320 420 332.5 432.5Q345 445 362 452.5Q379 460 398 460Q416 460 433 452.5Q450 445 463 432.5Q476 420 483.5 403Q491 386 491 368Z" glyph-name="Ldot" horiz-adv-x="541" unicode="Ŀ" /><glyph d="M426 290Q426 255 401.5 232Q377 209 342 209Q307 209 282.5 232.5Q258 256 258 291Q258 326 282.5 349Q307 372 342 372Q377 372 401.5 349Q426 326 426 291ZM234 101Q242 101 261 104L275 3Q251 -3 231.5 -5.5Q212 -8 196 -8Q130 -8 95.5 20Q61 48 61 105V700H194V138Q194 118 203 109.5Q212 101 234 101Z" glyph-name="ldot" horiz-adv-x="429" unicode="ŀ" /><glyph d="M78 241 26 225V335L78 351V700H222V396L406 453V342L222 285V127H525V0H78Z" glyph-name="Lslash" horiz-adv-x="542" unicode="Ł" /><glyph d="M238 101Q246 101 265 104L279 3Q255 -3 235.5 -5.5Q216 -8 200 -8Q134 -8 99.5 20Q65 48 65 105V253L26 239V338L65 352V700H198V400L283 431V332L198 301V138Q198 118 207 109.5Q216 101 238 101Z" glyph-name="lslash" horiz-adv-x="292" unicode="ł" /><glyph d="M218 0 76 0V700H250L549 227H551V700H693V0H520L220 473H218ZM538 865 309 749L256 828L467 969Z" glyph-name="Nacute" horiz-adv-x="769" unicode="Ń" /><glyph d="M196 0 63 0V511H192V459H194Q214 482 249 501.5Q284 521 332 521Q373 521 405.5 508Q438 495 461 472Q484 449 496 417Q508 385 508 346V0H375V307Q375 352 353 376Q331 400 291 400Q249 400 222.5 371.5Q196 343 196 294ZM424 677 195 561L142 640L353 781Z" glyph-name="nacute" horiz-adv-x="567" unicode="ń" /><glyph d="M218 0 76 0V700H250L549 227H551V700H693V0H520L220 473H218ZM382 -50Q419 -50 443.5 -76Q468 -102 468 -140Q468 -234 354 -322L311 -288Q337 -265 352 -244.5Q367 -224 367 -211Q367 -206 365.5 -201.5Q364 -197 350 -191Q324 -179 314 -163Q304 -147 304 -128Q304 -96 327 -73Q350 -50 382 -50Z" glyph-name="Ncommaaccent" horiz-adv-x="769" unicode="Ņ" /><glyph d="M196 0 63 0V511H192V459H194Q214 482 249 501.5Q284 521 332 521Q373 521 405.5 508Q438 495 461 472Q484 449 496 417Q508 385 508 346V0H375V307Q375 352 353 376Q331 400 291 400Q249 400 222.5 371.5Q196 343 196 294ZM284 -49Q321 -49 345.5 -75Q370 -101 370 -139Q370 -233 256 -321L213 -287Q239 -264 254 -243.5Q269 -223 269 -210Q269 -205 267.5 -200.5Q266 -196 252 -190Q226 -178 216 -162Q206 -146 206 -127Q206 -95 229 -72Q252 -49 284 -49Z" glyph-name="ncommaaccent" horiz-adv-x="567" unicode="ņ" /><glyph d="M218 0 76 0V700H250L549 227H551V700H693V0H520L220 473H218ZM296 760 223 908H339L384 844L428 908H544L471 760Z" glyph-name="Ncaron" horiz-adv-x="769" unicode="Ň" /><glyph d="M196 0 63 0V511H192V459H194Q214 482 249 501.5Q284 521 332 521Q373 521 405.5 508Q438 495 461 472Q484 449 496 417Q508 385 508 346V0H375V307Q375 352 353 376Q331 400 291 400Q249 400 222.5 371.5Q196 343 196 294ZM196 572 123 720H239L284 656L328 720H444L371 572Z" glyph-name="ncaron" horiz-adv-x="567" unicode="ň" /><glyph d="M196 0 63 0V511H192V459H194Q214 482 249 501.5Q284 521 332 521Q373 521 405.5 508Q438 495 461 472Q484 449 496 417Q508 385 508 346V0H375V307Q375 352 353 376Q331 400 291 400Q249 400 222.5 371.5Q196 343 196 294ZM207 742Q207 697 178 650.5Q149 604 93 559L50 594Q73 616 89.5 636Q106 656 106 667Q106 675 101.5 679.5Q97 684 89 689Q60 706 51.5 722Q43 738 43 757Q43 789 66 810.5Q89 832 121 832Q157 832 182 806.5Q207 781 207 742Z" glyph-name="napostrophe" horiz-adv-x="567" unicode="ŉ" /><glyph d="M218 0 76 0V700H250L549 227H551V700H693V-56Q693 -114 654 -147.5Q615 -181 551 -181Q501 -181 464 -173L484 -69Q492 -70 500 -71Q508 -72 516 -72Q560 -72 560 -33V0H520L220 473H218Z" glyph-name="Eng" horiz-adv-x="769" unicode="Ŋ" /><glyph d="M373 -163Q332 -163 285 -154L304 -53Q309 -54 315 -55Q320 -55 325.5 -55.5Q331 -56 337 -56Q375 -56 375 -18V307Q375 352 353 376Q331 400 291 400Q249 400 222.5 371.5Q196 343 196 294V0H63V511H192V459H194Q214 482 249 501.5Q284 521 332 521Q373 521 405.5 508Q438 495 461 472Q484 449 496 417Q508 385 508 346V-42Q508 -101 472 -132Q436 -163 373 -163Z" glyph-name="eng" horiz-adv-x="567" unicode="ŋ" /><glyph d="M536 764 213 764V862H536ZM375 710Q450 710 512 683Q574 656 618.5 608Q663 560 687.5 494Q712 428 712 350Q712 272 687.5 206Q663 140 618.5 92Q574 44 512 17Q450 -10 375 -10Q300 -10 238 16.5Q176 43 131.5 91Q87 139 62.5 205Q38 271 38 350Q38 429 62.5 495Q87 561 131.5 609Q176 657 238 683.5Q300 710 375 710ZM375 585Q333 585 298 567.5Q263 550 238.5 519Q214 488 200.5 444.5Q187 401 187 350Q187 298 200.5 255Q214 212 238.5 181Q263 150 297.5 132.5Q332 115 375 115Q418 115 453 132.5Q488 150 512.5 181.5Q537 213 550 256Q563 299 563 350Q563 400 550 443Q537 486 512.5 517.5Q488 549 453.5 567Q419 585 375 585Z" glyph-name="Omacron" horiz-adv-x="750" unicode="Ō" /><glyph d="M449 575 126 575V673H449ZM543 255Q543 197 524 148.5Q505 100 471.5 64.5Q438 29 391.5 9Q345 -11 289 -11Q233 -11 186 9Q139 29 105.5 64.5Q72 100 53.5 149Q35 198 35 255Q35 313 53.5 361.5Q72 410 106 445.5Q140 481 186.5 501Q233 521 289 521Q345 521 391.5 501Q438 481 471.5 446Q505 411 524 362Q543 313 543 255ZM170 255Q170 186 202.5 145.5Q235 105 289 105Q343 105 375.5 145.5Q408 186 408 255Q408 324 376.5 365Q345 406 289 406Q235 406 202.5 365Q170 324 170 255Z" glyph-name="omacron" horiz-adv-x="578" unicode="ō" /><glyph d="M375 710Q450 710 512 683Q574 656 618.5 608Q663 560 687.5 494Q712 428 712 350Q712 272 687.5 206Q663 140 618.5 92Q574 44 512 17Q450 -10 375 -10Q300 -10 238 16.5Q176 43 131.5 91Q87 139 62.5 205Q38 271 38 350Q38 429 62.5 495Q87 561 131.5 609Q176 657 238 683.5Q300 710 375 710ZM375 585Q333 585 298 567.5Q263 550 238.5 519Q214 488 200.5 444.5Q187 401 187 350Q187 298 200.5 255Q214 212 238.5 181Q263 150 297.5 132.5Q332 115 375 115Q418 115 453 132.5Q488 150 512.5 181.5Q537 213 550 256Q563 299 563 350Q563 400 550 443Q537 486 512.5 517.5Q488 549 453.5 567Q419 585 375 585ZM375 749Q300 749 259.5 781Q219 813 219 870V892H320V882Q320 865 334.5 854Q349 843 375 843Q401 843 415.5 854Q430 865 430 882V892H531V870Q531 813 490.5 781Q450 749 375 749Z" glyph-name="Obreve" horiz-adv-x="750" unicode="Ŏ" /><glyph d="M543 255Q543 197 524 148.5Q505 100 471.5 64.5Q438 29 391.5 9Q345 -11 289 -11Q233 -11 186 9Q139 29 105.5 64.5Q72 100 53.5 149Q35 198 35 255Q35 313 53.5 361.5Q72 410 106 445.5Q140 481 186.5 501Q233 521 289 521Q345 521 391.5 501Q438 481 471.5 446Q505 411 524 362Q543 313 543 255ZM170 255Q170 186 202.5 145.5Q235 105 289 105Q343 105 375.5 145.5Q408 186 408 255Q408 324 376.5 365Q345 406 289 406Q235 406 202.5 365Q170 324 170 255ZM288 560Q213 560 172.5 592Q132 624 132 681V703H233V693Q233 676 247.5 665Q262 654 288 654Q314 654 328.5 665Q343 676 343 693V703H444V681Q444 624 403.5 592Q363 560 288 560Z" glyph-name="obreve" horiz-adv-x="578" unicode="ŏ" /><glyph d="M375 710Q450 710 512 683Q574 656 618.5 608Q663 560 687.5 494Q712 428 712 350Q712 272 687.5 206Q663 140 618.5 92Q574 44 512 17Q450 -10 375 -10Q300 -10 238 16.5Q176 43 131.5 91Q87 139 62.5 205Q38 271 38 350Q38 429 62.5 495Q87 561 131.5 609Q176 657 238 683.5Q300 710 375 710ZM375 585Q333 585 298 567.5Q263 550 238.5 519Q214 488 200.5 444.5Q187 401 187 350Q187 298 200.5 255Q214 212 238.5 181Q263 150 297.5 132.5Q332 115 375 115Q418 115 453 132.5Q488 150 512.5 181.5Q537 213 550 256Q563 299 563 350Q563 400 550 443Q537 486 512.5 517.5Q488 549 453.5 567Q419 585 375 585ZM645 894 464 763L398 821L560 977ZM421 894 239 763L174 821L335 977Z" glyph-name="Ohungarumlaut" horiz-adv-x="750" unicode="Ő" /><glyph d="M543 255Q543 197 524 148.5Q505 100 471.5 64.5Q438 29 391.5 9Q345 -11 289 -11Q233 -11 186 9Q139 29 105.5 64.5Q72 100 53.5 149Q35 198 35 255Q35 313 53.5 361.5Q72 410 106 445.5Q140 481 186.5 501Q233 521 289 521Q345 521 391.5 501Q438 481 471.5 446Q505 411 524 362Q543 313 543 255ZM170 255Q170 186 202.5 145.5Q235 105 289 105Q343 105 375.5 145.5Q408 186 408 255Q408 324 376.5 365Q345 406 289 406Q235 406 202.5 365Q170 324 170 255ZM543 705 362 574L296 632L458 788ZM319 705 137 574L72 632L233 788Z" glyph-name="ohungarumlaut" horiz-adv-x="578" unicode="ő" /><glyph d="M374 585Q331 585 296.5 567.5Q262 550 237.5 518.5Q213 487 200 444Q187 401 187 350Q187 299 200 256Q213 213 237.5 181.5Q262 150 296.5 132Q331 114 374 114Q418 114 452.5 132Q487 150 511 181.5Q535 213 548 256Q561 299 561 350Q561 401 548 444.5Q535 488 510.5 519Q486 550 451.5 567.5Q417 585 374 585ZM356 -10Q285 -10 226.5 17Q168 44 126.5 92Q85 140 62 206Q39 272 39 350Q39 428 62.5 494Q86 560 128 608Q170 656 228 683Q286 710 356 710Q421 710 474.5 686.5Q528 663 563 621V700H1049V572H707V417H988V295H707V127H1059V0H563V78Q531 36 476.5 13Q422 -10 356 -10Z" glyph-name="OE" horiz-adv-x="1094" unicode="Œ" /><glyph d="M472 69Q439 31 392.5 10.5Q346 -10 289 -10Q232 -10 185.5 10Q139 30 105.5 65.5Q72 101 53.5 149.5Q35 198 35 255Q35 313 53.5 361.5Q72 410 106 445.5Q140 481 186.5 501Q233 521 289 521Q404 521 472 441Q504 480 549 500.5Q594 521 647 521Q699 521 742 502Q785 483 816 449Q847 415 864.5 367Q882 319 882 262V217H539Q544 166 578.5 136Q613 106 667 106Q699 106 731 119Q763 132 784 155L861 64Q776 -10 656 -10Q600 -10 552.5 10.5Q505 31 472 69ZM647 411Q606 411 576 382Q546 353 540 307H751Q748 352 718.5 381.5Q689 411 647 411ZM170 255Q170 186 202.5 145.5Q235 105 289 105Q343 105 375.5 145.5Q408 186 408 255Q408 324 376.5 365Q345 406 289 406Q235 406 202.5 365Q170 324 170 255Z" glyph-name="oe" horiz-adv-x="914" unicode="œ" /><glyph d="M219 578 219 369H342Q400 369 432.5 397.5Q465 426 465 474Q465 522 433 550Q401 578 343 578ZM219 0 76 0V700H367Q425 700 471 683.5Q517 667 549 638Q581 609 598 569Q615 529 615 482Q615 447 605.5 415Q596 383 578 356Q560 329 535 309.5Q510 290 479 279L650 0H485L338 250H219ZM467 865 238 749L185 828L396 969Z" glyph-name="Racute" horiz-adv-x="669" unicode="Ŕ" /><glyph d="M196 0 63 0V511H192V428H194Q212 473 250 496Q288 519 336 519Q340 519 345 519Q350 519 363 518V379Q361 379 349.5 379.5Q338 380 319 380Q259 380 227.5 344Q196 308 196 237ZM344 676 115 560L62 639L273 780Z" glyph-name="racute" horiz-adv-x="379" unicode="ŕ" /><glyph d="M219 578 219 369H342Q400 369 432.5 397.5Q465 426 465 474Q465 522 433 550Q401 578 343 578ZM219 0 76 0V700H367Q425 700 471 683.5Q517 667 549 638Q581 609 598 569Q615 529 615 482Q615 447 605.5 415Q596 383 578 356Q560 329 535 309.5Q510 290 479 279L650 0H485L338 250H219ZM331 -50Q368 -50 392.5 -76Q417 -102 417 -140Q417 -234 303 -322L260 -288Q286 -265 301 -244.5Q316 -224 316 -211Q316 -206 314.5 -201.5Q313 -197 299 -191Q273 -179 263 -163Q253 -147 253 -128Q253 -96 276 -73Q299 -50 331 -50Z" glyph-name="Rcommaaccent" horiz-adv-x="669" unicode="Ŗ" /><glyph d="M196 0 63 0V511H192V428H194Q212 473 250 496Q288 519 336 519Q340 519 345 519Q350 519 363 518V379Q361 379 349.5 379.5Q338 380 319 380Q259 380 227.5 344Q196 308 196 237ZM126 -49Q163 -49 187.5 -75Q212 -101 212 -139Q212 -233 98 -321L55 -287Q81 -264 96 -243.5Q111 -223 111 -210Q111 -205 109.5 -200.5Q108 -196 94 -190Q68 -178 58 -162Q48 -146 48 -127Q48 -95 71 -72Q94 -49 126 -49Z" glyph-name="rcommaaccent" horiz-adv-x="379" unicode="ŗ" /><glyph d="M219 578 219 369H342Q400 369 432.5 397.5Q465 426 465 474Q465 522 433 550Q401 578 343 578ZM219 0 76 0V700H367Q425 700 471 683.5Q517 667 549 638Q581 609 598 569Q615 529 615 482Q615 447 605.5 415Q596 383 578 356Q560 329 535 309.5Q510 290 479 279L650 0H485L338 250H219ZM240 760 167 908H283L328 844L372 908H488L415 760Z" glyph-name="Rcaron" horiz-adv-x="669" unicode="Ř" /><glyph d="M196 0 63 0V511H192V428H194Q212 473 250 496Q288 519 336 519Q340 519 345 519Q350 519 363 518V379Q361 379 349.5 379.5Q338 380 319 380Q259 380 227.5 344Q196 308 196 237ZM116 571 43 719H159L204 655L248 719H364L291 571Z" glyph-name="rcaron" horiz-adv-x="379" unicode="ř" /><glyph d="M611 217Q611 167 590 125Q569 83 532 53Q495 23 444 6.5Q393 -10 333 -10Q233 -10 151.5 23.5Q70 57 22 122L133 211Q168 165 220.5 139.5Q273 114 330 114Q387 114 421.5 138Q456 162 456 199Q456 231 434 249.5Q412 268 364 277L242 299Q149 316 99.5 367Q50 418 50 499Q50 544 70 582.5Q90 621 126 649.5Q162 678 212.5 694Q263 710 324 710Q409 710 482.5 682Q556 654 599 605L486 521Q456 552 413 568.5Q370 585 320 585Q267 585 234.5 563.5Q202 542 202 509Q202 480 223 460.5Q244 441 301 431L419 410Q512 393 561.5 342.5Q611 292 611 217ZM486 865 257 749L204 828L415 969Z" glyph-name="Sacute" horiz-adv-x="645" unicode="Ś" /><glyph d="M463 159Q463 122 447.5 90.5Q432 59 403.5 36.5Q375 14 335.5 1.5Q296 -11 247 -11Q177 -11 117.5 12.5Q58 36 23 77L110 162Q140 130 177.5 113.5Q215 97 255 97Q287 97 307 110.5Q327 124 327 145Q327 163 314.5 174Q302 185 270 192L177 212Q111 226 77 265.5Q43 305 43 364Q43 397 58 426Q73 455 100 476Q127 497 164.5 509Q202 521 247 521Q310 521 363.5 503Q417 485 455 451L367 371Q341 392 310.5 403.5Q280 415 247 415Q217 415 197.5 402.5Q178 390 178 371Q178 337 224 327L317 307Q395 291 429 255Q463 219 463 159ZM385 676 156 560L103 639L314 780Z" glyph-name="sacute" horiz-adv-x="495" unicode="ś" /><glyph d="M611 217Q611 167 590 125Q569 83 532 53Q495 23 444 6.5Q393 -10 333 -10Q233 -10 151.5 23.5Q70 57 22 122L133 211Q168 165 220.5 139.5Q273 114 330 114Q387 114 421.5 138Q456 162 456 199Q456 231 434 249.5Q412 268 364 277L242 299Q149 316 99.5 367Q50 418 50 499Q50 544 70 582.5Q90 621 126 649.5Q162 678 212.5 694Q263 710 324 710Q409 710 482.5 682Q556 654 599 605L486 521Q456 552 413 568.5Q370 585 320 585Q267 585 234.5 563.5Q202 542 202 509Q202 480 223 460.5Q244 441 301 431L419 410Q512 393 561.5 342.5Q611 292 611 217ZM276 760 160 760L233 908H408L481 760H365L320 824Z" glyph-name="Scircumflex" horiz-adv-x="645" unicode="Ŝ" /><glyph d="M463 159Q463 122 447.5 90.5Q432 59 403.5 36.5Q375 14 335.5 1.5Q296 -11 247 -11Q177 -11 117.5 12.5Q58 36 23 77L110 162Q140 130 177.5 113.5Q215 97 255 97Q287 97 307 110.5Q327 124 327 145Q327 163 314.5 174Q302 185 270 192L177 212Q111 226 77 265.5Q43 305 43 364Q43 397 58 426Q73 455 100 476Q127 497 164.5 509Q202 521 247 521Q310 521 363.5 503Q417 485 455 451L367 371Q341 392 310.5 403.5Q280 415 247 415Q217 415 197.5 402.5Q178 390 178 371Q178 337 224 327L317 307Q395 291 429 255Q463 219 463 159ZM200 571 84 571L157 719H332L405 571H289L244 635Z" glyph-name="scircumflex" horiz-adv-x="495" unicode="ŝ" /><glyph d="M611 217Q611 173 595 135.5Q579 98 550 69Q521 40 480.5 21Q440 2 391 -5L330 -130H212L257 -4Q182 7 121 38.5Q60 70 22 122L133 211Q168 165 220.5 139.5Q273 114 330 114Q387 114 421.5 138Q456 162 456 199Q456 231 434 249.5Q412 268 364 277L242 299Q149 316 99.5 367Q50 418 50 499Q50 544 70 582.5Q90 621 126 649.5Q162 678 212.5 694Q263 710 324 710Q409 710 482.5 682Q556 654 599 605L486 521Q456 552 413 568.5Q370 585 320 585Q267 585 234.5 563.5Q202 542 202 509Q202 480 223 460.5Q244 441 301 431L419 410Q512 393 561.5 342.5Q611 292 611 217Z" glyph-name="Scedilla" horiz-adv-x="645" unicode="Ş" /><glyph d="M463 159Q463 102 428 60Q393 18 331 0L267 -130H149L193 -7Q139 1 95 22.5Q51 44 23 77L110 162Q140 130 177.5 113.5Q215 97 255 97Q287 97 307 110.5Q327 124 327 145Q327 163 314.5 174Q302 185 270 192L177 212Q111 226 77 265.5Q43 305 43 364Q43 397 58 426Q73 455 100 476Q127 497 164.5 509Q202 521 247 521Q310 521 363.5 503Q417 485 455 451L367 371Q341 392 310.5 403.5Q280 415 247 415Q217 415 197.5 402.5Q178 390 178 371Q178 337 224 327L317 307Q395 291 429 255Q463 219 463 159Z" glyph-name="scedilla" horiz-adv-x="495" unicode="ş" /><glyph d="M611 217Q611 167 590 125Q569 83 532 53Q495 23 444 6.5Q393 -10 333 -10Q233 -10 151.5 23.5Q70 57 22 122L133 211Q168 165 220.5 139.5Q273 114 330 114Q387 114 421.5 138Q456 162 456 199Q456 231 434 249.5Q412 268 364 277L242 299Q149 316 99.5 367Q50 418 50 499Q50 544 70 582.5Q90 621 126 649.5Q162 678 212.5 694Q263 710 324 710Q409 710 482.5 682Q556 654 599 605L486 521Q456 552 413 568.5Q370 585 320 585Q267 585 234.5 563.5Q202 542 202 509Q202 480 223 460.5Q244 441 301 431L419 410Q512 393 561.5 342.5Q611 292 611 217ZM233 760 160 908H276L321 844L365 908H481L408 760Z" glyph-name="Scaron" horiz-adv-x="645" unicode="Š" /><glyph d="M463 159Q463 122 447.5 90.5Q432 59 403.5 36.5Q375 14 335.5 1.5Q296 -11 247 -11Q177 -11 117.5 12.5Q58 36 23 77L110 162Q140 130 177.5 113.5Q215 97 255 97Q287 97 307 110.5Q327 124 327 145Q327 163 314.5 174Q302 185 270 192L177 212Q111 226 77 265.5Q43 305 43 364Q43 397 58 426Q73 455 100 476Q127 497 164.5 509Q202 521 247 521Q310 521 363.5 503Q417 485 455 451L367 371Q341 392 310.5 403.5Q280 415 247 415Q217 415 197.5 402.5Q178 390 178 371Q178 337 224 327L317 307Q395 291 429 255Q463 219 463 159ZM157 571 84 719H200L245 655L289 719H405L332 571Z" glyph-name="scaron" horiz-adv-x="495" unicode="š" /><glyph d="M369 0 225 0V572H15V700H580V572H369ZM413 -140Q413 -170 401 -191.5Q389 -213 369 -226.5Q349 -240 323 -246.5Q297 -253 269 -253Q240 -253 209.5 -247Q179 -241 158 -229L179 -155Q199 -163 219 -166.5Q239 -170 257 -170Q280 -170 293.5 -162Q307 -154 307 -140Q307 -126 291 -118.5Q275 -111 247 -111Q231 -111 220 -114V-43Q232 -40 245 -39Q258 -38 273 -38Q336 -38 374.5 -65.5Q413 -93 413 -140Z" glyph-name="Tcedilla" horiz-adv-x="595" unicode="Ţ" /><glyph d="M342 5Q321 -1 305 -4Q289 -7 272 -9L213 -130H95L146 12Q100 42 100 110V406H19V511H100V644L233 708V511H350V406H233V147Q233 104 281 104Q292 104 302 105.5Q312 107 328 112Z" glyph-name="tcedilla" horiz-adv-x="375" unicode="ţ" /><glyph d="M369 0 225 0V572H15V700H580V572H369ZM210 760 137 908H253L298 844L342 908H458L385 760Z" glyph-name="Tcaron" horiz-adv-x="595" unicode="Ť" /><glyph d="M239 -10Q171 -10 135.5 20Q100 50 100 110V406H19V511H100V644L233 708V511H350V406H233V147Q233 104 281 104Q292 104 302 105.5Q312 107 328 112L342 5Q311 -5 288.5 -7.5Q266 -10 239 -10ZM442 759Q442 714 413 667.5Q384 621 328 576L285 611Q308 633 324.5 653Q341 673 341 684Q341 692 336.5 696.5Q332 701 324 706Q295 723 286.5 739Q278 755 278 774Q278 806 301 827.5Q324 849 356 849Q392 849 417 823.5Q442 798 442 759Z" glyph-name="tcaron" horiz-adv-x="375" unicode="ť" /><glyph d="M228 295 124 295V401H228V572H18V700H583V572H372V401H477V295H372V0H228Z" glyph-name="Tbar" horiz-adv-x="601" unicode="Ŧ" /><glyph d="M239 -10Q171 -10 135.5 20Q100 50 100 110V239H19V331H100V406H19V511H100V644L233 708V511H350V406H233V331H350V239H233V147Q233 104 281 104Q292 104 302 105.5Q312 107 328 112L342 5Q311 -5 288.5 -7.5Q266 -10 239 -10Z" glyph-name="tbar" horiz-adv-x="375" unicode="ŧ" /><glyph d="M360 114Q426 114 466.5 153.5Q507 193 507 264V700H646V249Q646 190 625.5 142Q605 94 567.5 60.5Q530 27 477.5 8.5Q425 -10 360 -10Q295 -10 241.5 8.5Q188 27 149.5 60.5Q111 94 90 142Q69 190 69 249V700H212V264Q212 194 251.5 154Q291 114 360 114ZM521 863Q521 812 497.5 784.5Q474 757 429 757Q413 757 394.5 761.5Q376 766 358.5 771.5Q341 777 325.5 781.5Q310 786 300 786Q292 786 287 781.5Q282 777 282 769V757H194V784Q194 835 217.5 862.5Q241 890 286 890Q303 890 321 885.5Q339 881 356.5 875.5Q374 870 389.5 865.5Q405 861 415 861Q423 861 428 865.5Q433 870 433 878V890H521Z" glyph-name="Utilde" horiz-adv-x="715" unicode="Ũ" /><glyph d="M371 511 504 511V0H373V51H371Q350 23 314.5 6Q279 -11 237 -11Q197 -11 164 2.5Q131 16 107.5 40Q84 64 71.5 97.5Q59 131 59 171V511H192V203Q192 159 214.5 134Q237 109 277 109Q319 109 345 139Q371 169 371 216ZM443 676Q443 625 419.5 597.5Q396 570 351 570Q335 570 316.5 574.5Q298 579 280.5 584.5Q263 590 247.5 594.5Q232 599 222 599Q214 599 209 594.5Q204 590 204 582V570H116V597Q116 648 139.5 675.5Q163 703 208 703Q225 703 243 698.5Q261 694 278.5 688.5Q296 683 311.5 678.5Q327 674 337 674Q345 674 350 678.5Q355 683 355 691V703H443Z" glyph-name="utilde" horiz-adv-x="567" unicode="ũ" /><glyph d="M519 764 196 764V862H519ZM360 114Q426 114 466.5 153.5Q507 193 507 264V700H646V249Q646 190 625.5 142Q605 94 567.5 60.5Q530 27 477.5 8.5Q425 -10 360 -10Q295 -10 241.5 8.5Q188 27 149.5 60.5Q111 94 90 142Q69 190 69 249V700H212V264Q212 194 251.5 154Q291 114 360 114Z" glyph-name="Umacron" horiz-adv-x="715" unicode="Ū" /><glyph d="M441 577 118 577V675H441ZM371 511 504 511V0H373V51H371Q350 23 314.5 6Q279 -11 237 -11Q197 -11 164 2.5Q131 16 107.5 40Q84 64 71.5 97.5Q59 131 59 171V511H192V203Q192 159 214.5 134Q237 109 277 109Q319 109 345 139Q371 169 371 216Z" glyph-name="umacron" horiz-adv-x="567" unicode="ū" /><glyph d="M360 114Q426 114 466.5 153.5Q507 193 507 264V700H646V249Q646 190 625.5 142Q605 94 567.5 60.5Q530 27 477.5 8.5Q425 -10 360 -10Q295 -10 241.5 8.5Q188 27 149.5 60.5Q111 94 90 142Q69 190 69 249V700H212V264Q212 194 251.5 154Q291 114 360 114ZM358 749Q283 749 242.5 781Q202 813 202 870V892H303V882Q303 865 317.5 854Q332 843 358 843Q384 843 398.5 854Q413 865 413 882V892H514V870Q514 813 473.5 781Q433 749 358 749Z" glyph-name="Ubreve" horiz-adv-x="715" unicode="Ŭ" /><glyph d="M371 511 504 511V0H373V51H371Q350 23 314.5 6Q279 -11 237 -11Q197 -11 164 2.5Q131 16 107.5 40Q84 64 71.5 97.5Q59 131 59 171V511H192V203Q192 159 214.5 134Q237 109 277 109Q319 109 345 139Q371 169 371 216ZM280 562Q205 562 164.5 594Q124 626 124 683V705H225V695Q225 678 239.5 667Q254 656 280 656Q306 656 320.5 667Q335 678 335 695V705H436V683Q436 626 395.5 594Q355 562 280 562Z" glyph-name="ubreve" horiz-adv-x="567" unicode="ŭ" /><glyph d="M360 114Q426 114 466.5 153.5Q507 193 507 264V700H646V249Q646 190 625.5 142Q605 94 567.5 60.5Q530 27 477.5 8.5Q425 -10 360 -10Q295 -10 241.5 8.5Q188 27 149.5 60.5Q111 94 90 142Q69 190 69 249V700H212V264Q212 194 251.5 154Q291 114 360 114ZM482 862Q482 837 472 815.5Q462 794 445.5 778Q429 762 406.5 753Q384 744 358 744Q332 744 309.5 753Q287 762 270 778Q253 794 243.5 815.5Q234 837 234 862Q234 887 243.5 908.5Q253 930 270 946Q287 962 309.5 971Q332 980 358 980Q384 980 406.5 971Q429 962 445.5 946Q462 930 472 908.5Q482 887 482 862ZM307 862Q307 840 321.5 825Q336 810 358 810Q380 810 394.5 825Q409 840 409 862Q409 884 394.5 899Q380 914 358 914Q336 914 321.5 899Q307 884 307 862Z" glyph-name="Uring" horiz-adv-x="715" unicode="Ů" /><glyph d="M371 511 504 511V0H373V51H371Q350 23 314.5 6Q279 -11 237 -11Q197 -11 164 2.5Q131 16 107.5 40Q84 64 71.5 97.5Q59 131 59 171V511H192V203Q192 159 214.5 134Q237 109 277 109Q319 109 345 139Q371 169 371 216ZM404 675Q404 650 394 628.5Q384 607 367.5 591Q351 575 328.5 566Q306 557 280 557Q254 557 231.5 566Q209 575 192 591Q175 607 165.5 628.5Q156 650 156 675Q156 700 165.5 721.5Q175 743 192 759Q209 775 231.5 784Q254 793 280 793Q306 793 328.5 784Q351 775 367.5 759Q384 743 394 721.5Q404 700 404 675ZM229 675Q229 653 243.5 638Q258 623 280 623Q302 623 316.5 638Q331 653 331 675Q331 697 316.5 712Q302 727 280 727Q258 727 243.5 712Q229 697 229 675Z" glyph-name="uring" horiz-adv-x="567" unicode="ů" /><glyph d="M360 114Q426 114 466.5 153.5Q507 193 507 264V700H646V249Q646 190 625.5 142Q605 94 567.5 60.5Q530 27 477.5 8.5Q425 -10 360 -10Q295 -10 241.5 8.5Q188 27 149.5 60.5Q111 94 90 142Q69 190 69 249V700H212V264Q212 194 251.5 154Q291 114 360 114ZM628 894 447 763L381 821L543 977ZM404 894 222 763L157 821L318 977Z" glyph-name="Uhungarumlaut" horiz-adv-x="715" unicode="Ű" /><glyph d="M371 511 504 511V0H373V51H371Q350 23 314.5 6Q279 -11 237 -11Q197 -11 164 2.5Q131 16 107.5 40Q84 64 71.5 97.5Q59 131 59 171V511H192V203Q192 159 214.5 134Q237 109 277 109Q319 109 345 139Q371 169 371 216ZM536 707 355 576L289 634L451 790ZM312 707 130 576L65 634L226 790Z" glyph-name="uhungarumlaut" horiz-adv-x="567" unicode="ű" /><glyph d="M484 -122Q507 -122 534 -116L529 -197Q508 -205 487 -208Q466 -211 445 -211Q391 -211 359.5 -188.5Q328 -166 328 -121Q328 -95 345 -65Q362 -35 390 -9Q382 -9 375 -9.5Q368 -10 360 -10Q295 -10 241.5 8.5Q188 27 149.5 60.5Q111 94 90 142Q69 190 69 249V700H212V264Q212 194 251.5 154Q291 114 360 114Q426 114 466.5 153.5Q507 193 507 264V700H646V249Q646 163 604 102Q562 41 488 12Q461 -35 453 -56.5Q445 -78 445 -89Q445 -104 454.5 -113Q464 -122 484 -122Z" glyph-name="Uogonek" horiz-adv-x="715" unicode="Ų" /><glyph d="M458 -122Q481 -122 508 -116L503 -197Q482 -205 461 -208Q440 -211 419 -211Q365 -211 333.5 -188.5Q302 -166 302 -121Q302 -92 322 -60Q342 -28 374 0H373V51H371Q350 23 314.5 6Q279 -11 237 -11Q197 -11 164 2.5Q131 16 107.5 40Q84 64 71.5 97.5Q59 131 59 171V511H192V203Q192 159 214.5 134Q237 109 277 109Q319 109 345 139Q371 169 371 216V511H504V0H455Q432 -41 425.5 -59.5Q419 -78 419 -89Q419 -104 428.5 -113Q438 -122 458 -122Z" glyph-name="uogonek" horiz-adv-x="567" unicode="ų" /><glyph d="M799 0 604 0L493 494H492L384 0H189L26 700H178L288 159H290L411 700H577L699 159H701L811 700H963ZM447 760 331 760L404 908H579L652 760H536L491 824Z" glyph-name="Wcircumflex" horiz-adv-x="988" unicode="Ŵ" /><glyph d="M655 0 488 0L408 345H406L326 0H160L23 511H162L245 138H247L334 511H483L573 138H575L660 511H792ZM363 571 247 571L320 719H495L568 571H452L407 635Z" glyph-name="wcircumflex" horiz-adv-x="815" unicode="ŵ" /><glyph d="M393 0 249 0V272L10 700H176L325 422H326L471 700H632L393 272ZM275 760 159 760L232 908H407L480 760H364L319 824Z" glyph-name="Ycircumflex" horiz-adv-x="642" unicode="Ŷ" /><glyph d="M320 -53Q283 -173 153 -173Q124 -173 94.5 -169.5Q65 -166 44 -160L66 -56Q94 -62 104.5 -63Q115 -64 129 -64Q182 -64 195 -18L200 1L17 511H160L268 170H270L363 511H499ZM213 570 97 570L170 718H345L418 570H302L257 634Z" glyph-name="ycircumflex" horiz-adv-x="520" unicode="ŷ" /><glyph d="M393 0 249 0V272L10 700H176L325 422H326L471 700H632L393 272ZM417 909Q447 909 469.5 888Q492 867 492 835Q492 804 470.5 782Q449 760 417 760Q386 760 364 782Q342 804 342 835Q342 867 364.5 888Q387 909 417 909ZM224 909Q254 909 276.5 888Q299 867 299 835Q299 803 277 781.5Q255 760 224 760Q192 760 170.5 781.5Q149 803 149 835Q149 866 171 887.5Q193 909 224 909Z" glyph-name="Ydieresis" horiz-adv-x="642" unicode="Ÿ" /><glyph d="M592 0 36 0V117L393 572H48V700H575V582L219 127H592ZM466 865 237 749L184 828L395 969Z" glyph-name="Zacute" horiz-adv-x="626" unicode="Ź" /><glyph d="M467 0 37 0V97L282 404H45V511H451V414L206 107H467ZM398 676 169 560L116 639L327 780Z" glyph-name="zacute" horiz-adv-x="500" unicode="ź" /><glyph d="M592 0 36 0V117L393 572H48V700H575V582L219 127H592ZM396 840Q396 804 372 779.5Q348 755 311 755Q274 755 250 780Q226 805 226 840Q226 875 251 900Q276 925 311 925Q346 925 371 900.5Q396 876 396 840Z" glyph-name="Zdotaccent" horiz-adv-x="626" unicode="Ż" /><glyph d="M467 0 37 0V97L282 404H45V511H451V414L206 107H467ZM334 651Q334 615 310 590.5Q286 566 249 566Q212 566 188 591Q164 616 164 651Q164 686 189 711Q214 736 249 736Q284 736 309 711.5Q334 687 334 651Z" glyph-name="zdotaccent" horiz-adv-x="500" unicode="ż" /><glyph d="M592 0 36 0V117L393 572H48V700H575V582L219 127H592ZM223 760 150 908H266L311 844L355 908H471L398 760Z" glyph-name="Zcaron" horiz-adv-x="626" unicode="Ž" /><glyph d="M467 0 37 0V97L282 404H45V511H451V414L206 107H467ZM161 571 88 719H204L249 655L293 719H409L336 571Z" glyph-name="zcaron" horiz-adv-x="500" unicode="ž" /><glyph d="M236 0 103 0V406H22V511H103V571Q103 642 145 680.5Q187 719 260 719Q288 719 318 715.5Q348 712 373 705L351 599Q320 605 309.5 606Q299 607 286 607Q236 607 236 552Z" glyph-name="longs" horiz-adv-x="319" unicode="ſ" /><glyph d="M290 254 218 -157H85L157 254H58L77 361H176L216 581Q228 648 271.5 683Q315 718 387 718Q442 718 500 702L463 594Q432 605 405 605Q352 605 343 552L309 361H423L404 254Z" glyph-name="florin" horiz-adv-x="509" unicode="ƒ" /><glyph d="M611 217Q611 167 590 125Q569 83 532 53Q495 23 444 6.5Q393 -10 333 -10Q233 -10 151.5 23.5Q70 57 22 122L133 211Q168 165 220.5 139.5Q273 114 330 114Q387 114 421.5 138Q456 162 456 199Q456 231 434 249.5Q412 268 364 277L242 299Q149 316 99.5 367Q50 418 50 499Q50 544 70 582.5Q90 621 126 649.5Q162 678 212.5 694Q263 710 324 710Q409 710 482.5 682Q556 654 599 605L486 521Q456 552 413 568.5Q370 585 320 585Q267 585 234.5 563.5Q202 542 202 509Q202 480 223 460.5Q244 441 301 431L419 410Q512 393 561.5 342.5Q611 292 611 217ZM318 -50Q355 -50 379.5 -76Q404 -102 404 -140Q404 -234 290 -322L247 -288Q273 -265 288 -244.5Q303 -224 303 -211Q303 -206 301.5 -201.5Q300 -197 286 -191Q260 -179 250 -163Q240 -147 240 -128Q240 -96 263 -73Q286 -50 318 -50Z" glyph-name="Scommaaccent" horiz-adv-x="645" unicode="Ș" /><glyph d="M463 159Q463 122 447.5 90.5Q432 59 403.5 36.5Q375 14 335.5 1.5Q296 -11 247 -11Q177 -11 117.5 12.5Q58 36 23 77L110 162Q140 130 177.5 113.5Q215 97 255 97Q287 97 307 110.5Q327 124 327 145Q327 163 314.5 174Q302 185 270 192L177 212Q111 226 77 265.5Q43 305 43 364Q43 397 58 426Q73 455 100 476Q127 497 164.5 509Q202 521 247 521Q310 521 363.5 503Q417 485 455 451L367 371Q341 392 310.5 403.5Q280 415 247 415Q217 415 197.5 402.5Q178 390 178 371Q178 337 224 327L317 307Q395 291 429 255Q463 219 463 159ZM246 -49Q283 -49 307.5 -75Q332 -101 332 -139Q332 -233 218 -321L175 -287Q201 -264 216 -243.5Q231 -223 231 -210Q231 -205 229.5 -200.5Q228 -196 214 -190Q188 -178 178 -162Q168 -146 168 -127Q168 -95 191 -72Q214 -49 246 -49Z" glyph-name="scommaaccent" horiz-adv-x="495" unicode="ș" /><glyph d="M369 0 225 0V572H15V700H580V572H369ZM291 -50Q328 -50 352.5 -76Q377 -102 377 -140Q377 -234 263 -322L220 -288Q246 -265 261 -244.5Q276 -224 276 -211Q276 -206 274.5 -201.5Q273 -197 259 -191Q233 -179 223 -163Q213 -147 213 -128Q213 -96 236 -73Q259 -50 291 -50Z" glyph-name="Tcommaaccent" horiz-adv-x="595" unicode="Ț" /><glyph d="M239 -10Q171 -10 135.5 20Q100 50 100 110V406H19V511H100V644L233 708V511H350V406H233V147Q233 104 281 104Q292 104 302 105.5Q312 107 328 112L342 5Q311 -5 288.5 -7.5Q266 -10 239 -10ZM192 -49Q229 -49 253.5 -75Q278 -101 278 -139Q278 -233 164 -321L121 -287Q147 -264 162 -243.5Q177 -223 177 -210Q177 -205 175.5 -200.5Q174 -196 160 -190Q134 -178 124 -162Q114 -146 114 -127Q114 -95 137 -72Q160 -49 192 -49Z" glyph-name="tcommaaccent" horiz-adv-x="375" unicode="ț" /><glyph d="M63 511 196 511V-42Q196 -101 160 -132Q124 -163 61 -163Q20 -163 -27 -154L-8 -53Q-3 -54 3 -55Q8 -55 13.5 -55.5Q19 -56 25 -56Q63 -56 63 -18Z" glyph-name="dotlessj" horiz-adv-x="259" unicode="ȷ" /><glyph d="M230 654Q230 609 201 562.5Q172 516 116 471L73 506Q96 528 112.5 548Q129 568 129 579Q129 587 124.5 591.5Q120 596 112 601Q83 618 74.5 634Q66 650 66 669Q66 701 89 722.5Q112 744 144 744Q180 744 205 718.5Q230 693 230 654Z" glyph-name="apostrophemod" horiz-adv-x="281" unicode="ʼ" /><glyph d="M160 571 44 571L117 719H292L365 571H249L204 635Z" glyph-name="circumflex" horiz-adv-x="410" unicode="ˆ" /><glyph d="M117 571 44 719H160L205 655L249 719H365L292 571Z" glyph-name="caron" horiz-adv-x="410" unicode="ˇ" /><glyph d="M205 560Q130 560 89.5 592Q49 624 49 681V703H150V693Q150 676 164.5 665Q179 654 205 654Q231 654 245.5 665Q260 676 260 693V703H361V681Q361 624 320.5 592Q280 560 205 560Z" glyph-name="breve" horiz-adv-x="411" unicode="˘" /><glyph d="M290 651Q290 615 266 590.5Q242 566 205 566Q168 566 144 591Q120 616 120 651Q120 686 145 711Q170 736 205 736Q240 736 265 711.5Q290 687 290 651Z" glyph-name="dotaccent" horiz-adv-x="410" unicode="˙" /><glyph d="M329 673Q329 648 319 626.5Q309 605 292.5 589Q276 573 253.5 564Q231 555 205 555Q179 555 156.5 564Q134 573 117 589Q100 605 90.5 626.5Q81 648 81 673Q81 698 90.5 719.5Q100 741 117 757Q134 773 156.5 782Q179 791 205 791Q231 791 253.5 782Q276 773 292.5 757Q309 741 319 719.5Q329 698 329 673ZM154 673Q154 651 168.5 636Q183 621 205 621Q227 621 241.5 636Q256 651 256 673Q256 695 241.5 710Q227 725 205 725Q183 725 168.5 710Q154 695 154 673Z" glyph-name="ring" horiz-adv-x="410" unicode="˚" /><glyph d="M264 -122Q287 -122 314 -116L309 -197Q288 -205 267 -208Q246 -211 225 -211Q171 -211 139.5 -188.5Q108 -166 108 -121Q108 -102 117.5 -81Q127 -60 143 -39.5Q159 -19 180 -0.5Q201 18 224 33L276 26Q260 -2 250 -21.5Q240 -41 234.5 -54Q229 -67 227 -75Q225 -83 225 -89Q225 -104 234.5 -113Q244 -122 264 -122Z" glyph-name="ogonek" horiz-adv-x="410" unicode="˛" /><glyph d="M368 674Q368 623 344.5 595.5Q321 568 276 568Q260 568 241.5 572.5Q223 577 205.5 582.5Q188 588 172.5 592.5Q157 597 147 597Q139 597 134 592.5Q129 588 129 580V568H41V595Q41 646 64.5 673.5Q88 701 133 701Q150 701 168 696.5Q186 692 203.5 686.5Q221 681 236.5 676.5Q252 672 262 672Q270 672 275 676.5Q280 681 280 689V701H368Z" glyph-name="tilde" horiz-adv-x="411" unicode="˜" /><glyph d="M432 705 251 574L185 632L347 788ZM208 705 26 574L-39 632L122 788Z" glyph-name="hungarumlaut" horiz-adv-x="394" unicode="˝" /><glyph d="M135 -35Q172 -35 196.5 -61Q221 -87 221 -125Q221 -219 107 -307L64 -273Q90 -250 105 -229.5Q120 -209 120 -196Q120 -191 118.5 -186.5Q117 -182 103 -176Q77 -164 67 -148Q57 -132 57 -113Q57 -81 80 -58Q103 -35 135 -35Z" glyph-name="commaaccent" horiz-adv-x="276" unicode="̦" /><glyph d="M622 511 622 406H505V147Q505 104 553 104Q564 104 574 105.5Q584 107 600 112L614 5Q583 -5 560.5 -7.5Q538 -10 511 -10Q443 -10 407.5 20Q372 50 372 110V406H234V0H102V406H22V511Z" glyph-name="pi" horiz-adv-x="655" unicode="π" /><glyph d="M799 0 604 0L493 494H492L384 0H189L26 700H178L288 159H290L411 700H577L699 159H701L811 700H963ZM647 828 594 749L365 865L436 969Z" glyph-name="Wgrave" horiz-adv-x="988" unicode="Ẁ" /><glyph d="M655 0 488 0L408 345H406L326 0H160L23 511H162L245 138H247L334 511H483L573 138H575L660 511H792ZM552 639 499 560L270 676L341 780Z" glyph-name="wgrave" horiz-adv-x="815" unicode="ẁ" /><glyph d="M799 0 604 0L493 494H492L384 0H189L26 700H178L288 159H290L411 700H577L699 159H701L811 700H963ZM621 864 392 748L339 827L550 968Z" glyph-name="Wacute" horiz-adv-x="988" unicode="Ẃ" /><glyph d="M655 0 488 0L408 345H406L326 0H160L23 511H162L245 138H247L334 511H483L573 138H575L660 511H792ZM547 676 318 560L265 639L476 780Z" glyph-name="wacute" horiz-adv-x="815" unicode="ẃ" /><glyph d="M799 0 604 0L493 494H492L384 0H189L26 700H178L288 159H290L411 700H577L699 159H701L811 700H963ZM588 909Q618 909 640.5 888Q663 867 663 835Q663 804 641.5 782Q620 760 588 760Q557 760 535 782Q513 804 513 835Q513 867 535.5 888Q558 909 588 909ZM395 909Q425 909 447.5 888Q470 867 470 835Q470 803 448 781.5Q426 760 395 760Q363 760 341.5 781.5Q320 803 320 835Q320 866 342 887.5Q364 909 395 909Z" glyph-name="Wdieresis" horiz-adv-x="988" unicode="Ẅ" /><glyph d="M655 0 488 0L408 345H406L326 0H160L23 511H162L245 138H247L334 511H483L573 138H575L660 511H792ZM503 720Q533 720 555.5 699Q578 678 578 646Q578 615 556.5 593Q535 571 503 571Q472 571 450 593Q428 615 428 646Q428 678 450.5 699Q473 720 503 720ZM310 720Q340 720 362.5 699Q385 678 385 646Q385 614 363 592.5Q341 571 310 571Q278 571 256.5 592.5Q235 614 235 646Q235 677 257 698.5Q279 720 310 720Z" glyph-name="wdieresis" horiz-adv-x="815" unicode="ẅ" /><glyph d="M393 0 249 0V272L10 700H176L325 422H326L471 700H632L393 272ZM465 828 412 749L183 865L254 969Z" glyph-name="Ygrave" horiz-adv-x="642" unicode="Ỳ" /><glyph d="M320 -53Q283 -173 153 -173Q124 -173 94.5 -169.5Q65 -166 44 -160L66 -56Q94 -62 104.5 -63Q115 -64 129 -64Q182 -64 195 -18L200 1L17 511H160L268 170H270L363 511H499ZM403 638 350 559L121 675L192 779Z" glyph-name="ygrave" horiz-adv-x="520" unicode="ỳ" /><glyph d="M496 216 56 216V341H496Z" glyph-name="endash" horiz-adv-x="552" unicode="–" /><glyph d="M956 216 56 216V341H956Z" glyph-name="emdash" horiz-adv-x="1012" unicode="—" /><glyph d="M231 671Q193 640 176 622Q159 604 159 593Q159 587 161.5 581.5Q164 576 174 569Q201 551 212 533Q223 515 223 494Q223 458 196.5 434Q170 410 134 410Q113 410 95 418Q77 426 63.5 440.5Q50 455 42.5 474Q35 493 35 514Q35 572 68.5 621Q102 670 174 715Z" glyph-name="quoteleft" horiz-adv-x="269" unicode="‘" /><glyph d="M40 450Q78 481 95 499Q112 517 112 528Q112 534 109.5 539.5Q107 545 97 552Q70 570 59 588Q48 606 48 627Q48 663 74.5 687Q101 711 137 711Q158 711 176 703Q194 695 207.5 680.5Q221 666 228.5 647Q236 628 236 607Q236 549 202.5 500Q169 451 97 406Z" glyph-name="quoteright" horiz-adv-x="266" unicode="’" /><glyph d="M32 -87Q70 -56 87 -38Q104 -20 104 -9Q104 -3 101.5 2.5Q99 8 89 15Q62 33 51 51Q40 69 40 90Q40 126 66.5 150Q93 174 129 174Q150 174 168 166Q186 158 199.5 143.5Q213 129 220.5 110Q228 91 228 70Q228 12 194.5 -37Q161 -86 89 -131Z" glyph-name="quotesinglbase" horiz-adv-x="270" unicode="‚" /><glyph d="M231 671Q193 640 176 622Q159 604 159 593Q159 587 161.5 581.5Q164 576 174 569Q201 551 212 533Q223 515 223 494Q223 458 196.5 434Q170 410 134 410Q113 410 95 418Q77 426 63.5 440.5Q50 455 42.5 474Q35 493 35 514Q35 572 68.5 621Q102 670 174 715ZM458 671Q420 640 403 622Q386 604 386 593Q386 587 388.5 581.5Q391 576 401 569Q428 551 439 533Q450 515 450 494Q450 458 423.5 434Q397 410 361 410Q340 410 322 418Q304 426 290.5 440.5Q277 455 269.5 474Q262 493 262 514Q262 572 295.5 621Q329 670 401 715Z" glyph-name="quotedblleft" horiz-adv-x="496" unicode="“" /><glyph d="M40 450Q78 481 95 499Q112 517 112 528Q112 534 109.5 539.5Q107 545 97 552Q70 570 59 588Q48 606 48 627Q48 663 74.5 687Q101 711 137 711Q158 711 176 703Q194 695 207.5 680.5Q221 666 228.5 647Q236 628 236 607Q236 549 202.5 500Q169 451 97 406ZM267 450Q305 481 322 499Q339 517 339 528Q339 534 336.5 539.5Q334 545 324 552Q297 570 286 588Q275 606 275 627Q275 663 301.5 687Q328 711 364 711Q385 711 403 703Q421 695 434.5 680.5Q448 666 455.5 647Q463 628 463 607Q463 549 429.5 500Q396 451 324 406Z" glyph-name="quotedblright" horiz-adv-x="493" unicode="”" /><glyph d="M32 -87Q70 -56 87 -38Q104 -20 104 -9Q104 -3 101.5 2.5Q99 8 89 15Q62 33 51 51Q40 69 40 90Q40 126 66.5 150Q93 174 129 174Q150 174 168 166Q186 158 199.5 143.5Q213 129 220.5 110Q228 91 228 70Q228 12 194.5 -37Q161 -86 89 -131ZM259 -87Q297 -56 314 -38Q331 -20 331 -9Q331 -3 328.5 2.5Q326 8 316 15Q289 33 278 51Q267 69 267 90Q267 126 293.5 150Q320 174 356 174Q377 174 395 166Q413 158 426.5 143.5Q440 129 447.5 110Q455 91 455 70Q455 12 421.5 -37Q388 -86 316 -131Z" glyph-name="quotedblbase" horiz-adv-x="496" unicode="„" /><glyph d="M272 121 170 121V424H32V515H170V700H272V515H410V424H272Z" glyph-name="dagger" horiz-adv-x="442" unicode="†" /><glyph d="M289 278 289 121H187V278H49V368H187V447H49V538H187V700H289V538H427V447H289V368H427V278Z" glyph-name="daggerdbl" horiz-adv-x="476" unicode="‡" /><glyph d="M317 356Q317 331 307 308Q297 285 280 268.5Q263 252 240.5 242Q218 232 192 232Q166 232 143.5 242Q121 252 104 268.5Q87 285 77 308Q67 331 67 356Q67 382 77 404.5Q87 427 104 444Q121 461 143.5 471Q166 481 192 481Q218 481 241 471.5Q264 462 281 445Q298 428 307.5 405Q317 382 317 356Z" glyph-name="bullet" horiz-adv-x="385" unicode="•" /><glyph d="M227 82Q227 64 219 47Q211 30 198 17.5Q185 5 168 -2.5Q151 -10 133 -10Q115 -10 98 -2.5Q81 5 68 17.5Q55 30 47 47Q39 64 39 82Q39 101 47 117.5Q55 134 68 146.5Q81 159 98 166.5Q115 174 133 174Q151 174 168 166.5Q185 159 198 146.5Q211 134 219 117.5Q227 101 227 82ZM554 82Q554 64 546 47Q538 30 525 17.5Q512 5 495 -2.5Q478 -10 460 -10Q442 -10 425 -2.5Q408 5 395 17.5Q382 30 374 47Q366 64 366 82Q366 101 374 117.5Q382 134 395 146.5Q408 159 425 166.5Q442 174 460 174Q478 174 495 166.5Q512 159 525 146.5Q538 134 546 117.5Q554 101 554 82ZM882 82Q882 64 874 47Q866 30 853 17.5Q840 5 823 -2.5Q806 -10 788 -10Q770 -10 753 -2.5Q736 5 723 17.5Q710 30 702 47Q694 64 694 82Q694 101 702 117.5Q710 134 723 146.5Q736 159 753 166.5Q770 174 788 174Q806 174 823 166.5Q840 159 853 146.5Q866 134 874 117.5Q882 101 882 82Z" glyph-name="ellipsis" horiz-adv-x="922" unicode="…" /><glyph d="M370 523Q370 483 357.5 449Q345 415 322.5 390Q300 365 269 350.5Q238 336 201 336Q164 336 132.5 350Q101 364 78.5 389Q56 414 43.5 448.5Q31 483 31 523Q31 564 43.5 598Q56 632 78.5 657Q101 682 132.5 696Q164 710 201 710Q238 710 269 695.5Q300 681 322.5 656Q345 631 357.5 597Q370 563 370 523ZM691 700 237 0H131L586 700ZM131 523Q131 478 149.5 452Q168 426 200 426Q233 426 251.5 452Q270 478 270 523Q270 568 251.5 594.5Q233 621 200 621Q168 621 149.5 594.5Q131 568 131 523ZM791 177Q791 137 778.5 102.5Q766 68 743.5 43Q721 18 690.5 4Q660 -10 623 -10Q584 -10 552.5 4.5Q521 19 498.5 44.5Q476 70 464 104Q452 138 452 177Q452 216 464.5 250Q477 284 499.5 309Q522 334 553.5 348.5Q585 363 623 363Q660 363 690.5 348.5Q721 334 743.5 309Q766 284 778.5 250Q791 216 791 177ZM1172 177Q1172 137 1159.5 102.5Q1147 68 1124.5 43Q1102 18 1071 4Q1040 -10 1003 -10Q965 -10 934 4Q903 18 880.5 43Q858 68 845.5 102.5Q833 137 833 177Q833 218 845.5 252Q858 286 880.5 310.5Q903 335 934.5 349Q966 363 1003 363Q1040 363 1071 348.5Q1102 334 1124.5 309Q1147 284 1159.5 250Q1172 216 1172 177ZM553 177Q553 132 571.5 105.5Q590 79 621 79Q654 79 672.5 105.5Q691 132 691 177Q691 222 672.5 248.5Q654 275 621 275Q590 275 571.5 248.5Q553 222 553 177ZM933 177Q933 132 951.5 105.5Q970 79 1001 79Q1034 79 1052.5 105.5Q1071 132 1071 177Q1071 222 1052.5 248.5Q1034 275 1001 275Q970 275 951.5 248.5Q933 222 933 177Z" glyph-name="perthousand" horiz-adv-x="1202" unicode="‰" /><glyph d="M366 0 207 0L27 254V258L207 511H366L193 258V254Z" glyph-name="guilsinglleft" horiz-adv-x="390" unicode="‹" /><glyph d="M362 254 182 0H24L197 254V258L24 511H182L362 258Z" glyph-name="guilsinglright" horiz-adv-x="389" unicode="›" /><glyph d="M417 700 -144 0H-213L347 700Z" glyph-name="fraction" horiz-adv-x="208" unicode="⁄" /><glyph d="M22 648Q22 698 33.5 738Q45 778 66.5 806Q88 834 119 849.5Q150 865 188 865Q226 865 257 849.5Q288 834 309.5 806Q331 778 342.5 738Q354 698 354 648Q354 551 310 492Q266 433 188 433Q110 433 66 492Q22 551 22 648ZM258 648Q258 712 240 747Q222 782 188 782Q154 782 136 747.5Q118 713 118 648Q118 516 188 516Q222 516 240 549.5Q258 583 258 648Z" glyph-name="zerosuperior" horiz-adv-x="376" unicode="⁰" /><glyph d="M210 531 14 531V618L186 854H304V609H365V531H304V434H210ZM210 757 102 611V609H210Z" glyph-name="foursuperior" horiz-adv-x="376" unicode="⁴" /><glyph d="M38 637 59 854H331V771H129L122 702H124Q139 713 161 718.5Q183 724 206 724Q237 724 264 714Q291 704 310.5 685.5Q330 667 341 640.5Q352 614 352 582Q352 548 338.5 520Q325 492 302.5 471.5Q280 451 250 439.5Q220 428 186 428Q123 428 78 457Q33 486 20 531L110 560Q118 537 138 523Q158 509 184 509Q214 509 235.5 529Q257 549 257 580Q257 609 236.5 629Q216 649 185 649Q167 649 150 641Q133 633 122 619Z" glyph-name="fivesuperior" horiz-adv-x="376" unicode="⁵" /><glyph d="M356 579Q356 546 343.5 518.5Q331 491 309 471Q287 451 258.5 439.5Q230 428 197 428Q158 428 126.5 443Q95 458 72.5 484.5Q50 511 37.5 548Q25 585 25 629Q25 738 73 799Q121 860 206 860Q254 860 291.5 837.5Q329 815 348 775L261 748Q240 782 200 782Q167 782 146 754.5Q125 727 120 676H122Q156 714 216 714Q245 714 270.5 703.5Q296 693 315 674.5Q334 656 345 631.5Q356 607 356 579ZM129 573Q129 545 147.5 525Q166 505 195 505Q224 505 243 524.5Q262 544 262 573Q262 602 242.5 622Q223 642 195 642Q166 642 147.5 622Q129 602 129 573Z" glyph-name="sixsuperior" horiz-adv-x="376" unicode="⁶" /><glyph d="M192 434 85 434L236 771H39V854H338V777Z" glyph-name="sevensuperior" horiz-adv-x="376" unicode="⁷" /><glyph d="M26 742Q26 769 38.5 791Q51 813 72.5 828.5Q94 844 124 853Q154 862 188 862Q223 862 253 853Q283 844 304.5 828Q326 812 338 790Q350 768 350 742Q350 712 334 688.5Q318 665 293 655V654Q320 643 338 615.5Q356 588 356 559Q356 530 343.5 506Q331 482 308.5 465Q286 448 255.5 439Q225 430 188 430Q152 430 121 439Q90 448 67.5 465Q45 482 32 505.5Q19 529 19 559Q19 588 37 615.5Q55 643 82 654V655Q57 665 41.5 689Q26 713 26 742ZM254 737Q254 758 235.5 771.5Q217 785 188 785Q159 785 140.5 771.5Q122 758 122 737Q122 714 140.5 701Q159 688 188 688Q217 688 235.5 701Q254 714 254 737ZM117 561Q117 537 137 522Q157 507 188 507Q219 507 239 522Q259 537 259 561Q259 586 239 601Q219 616 188 616Q157 616 137 601Q117 586 117 561Z" glyph-name="eightsuperior" horiz-adv-x="376" unicode="⁸" /><glyph d="M20 709Q20 742 32.5 769.5Q45 797 67 817Q89 837 117.5 848.5Q146 860 179 860Q218 860 249.5 845Q281 830 303.5 803.5Q326 777 338.5 740Q351 703 351 659Q351 550 303 489Q255 428 170 428Q122 428 84.5 450.5Q47 473 28 513L115 540Q136 506 176 506Q209 506 230 533.5Q251 561 256 612H254Q220 574 160 574Q131 574 105.5 584.5Q80 595 61 613.5Q42 632 31 656.5Q20 681 20 709ZM247 715Q247 743 228.5 763Q210 783 181 783Q152 783 133 763.5Q114 744 114 715Q114 686 133.5 666Q153 646 181 646Q210 646 228.5 666Q247 686 247 715Z" glyph-name="ninesuperior" horiz-adv-x="376" unicode="⁹" /><glyph d="M22 59Q22 109 33.5 149Q45 189 66.5 217Q88 245 119 260.5Q150 276 188 276Q226 276 257 260.5Q288 245 309.5 217Q331 189 342.5 149Q354 109 354 59Q354 -39 310 -97.5Q266 -156 188 -156Q110 -156 66 -97.5Q22 -39 22 59ZM258 59Q258 123 240 158Q222 193 188 193Q154 193 136 158.5Q118 124 118 59Q118 -73 188 -73Q222 -73 240 -39.5Q258 -6 258 59Z" glyph-name="zeroinferior" horiz-adv-x="376" unicode="₀" /><glyph d="M328 -67 328 -150H63V-67H149V124H65V203H89Q158 203 160 264L161 270H243V-67Z" glyph-name="oneinferior" horiz-adv-x="376" unicode="₁" /><glyph d="M348 -67 348 -150H36V-75Q95 -38 135 -8.5Q175 21 199.5 45Q224 69 234.5 90Q245 111 245 132Q245 159 227 175.5Q209 192 182 192Q153 192 135 173Q117 154 117 121Q117 119 117.5 115.5Q118 112 118 110L26 114V126Q26 194 69.5 235Q113 276 187 276Q221 276 249.5 265.5Q278 255 298.5 236.5Q319 218 330.5 193Q342 168 342 139Q342 81 304.5 33Q267 -15 183 -67Z" glyph-name="twoinferior" horiz-adv-x="376" unicode="₂" /><glyph d="M184 194Q161 194 143.5 183Q126 172 118 153L28 174Q45 222 88 249Q131 276 188 276Q254 276 295 242Q336 208 336 154Q336 129 323 106.5Q310 84 287 70V69Q314 56 330.5 31.5Q347 7 347 -22Q347 -53 335 -77.5Q323 -102 301.5 -119.5Q280 -137 251 -146.5Q222 -156 187 -156Q123 -156 78 -127.5Q33 -99 19 -48L109 -22Q117 -46 137.5 -60.5Q158 -75 185 -75Q213 -75 231 -61Q249 -47 249 -23Q249 1 231.5 14.5Q214 28 186 28H152V101H180Q208 101 224.5 114Q241 127 241 148Q241 169 225 181.5Q209 194 184 194Z" glyph-name="threeinferior" horiz-adv-x="376" unicode="₃" /><glyph d="M208 -53 12 -53V34L184 270H302V25H363V-53H302V-150H208ZM208 173 100 27V25H208Z" glyph-name="fourinferior" horiz-adv-x="376" unicode="₄" /><glyph d="M38 53 59 270H331V187H129L122 118H124Q139 129 161 134.5Q183 140 206 140Q237 140 264 130Q291 120 310.5 101.5Q330 83 341 56.5Q352 30 352 -2Q352 -36 338.5 -64Q325 -92 302.5 -112.5Q280 -133 250 -144.5Q220 -156 186 -156Q123 -156 78 -127Q33 -98 20 -53L110 -24Q118 -47 138 -61Q158 -75 184 -75Q214 -75 235.5 -55Q257 -35 257 -4Q257 25 236.5 45Q216 65 185 65Q167 65 150 57Q133 49 122 35Z" glyph-name="fiveinferior" horiz-adv-x="376" unicode="₅" /><glyph d="M356 -5Q356 -38 343.5 -65.5Q331 -93 309 -113Q287 -133 258.5 -144.5Q230 -156 197 -156Q158 -156 126.5 -141Q95 -126 72.5 -99.5Q50 -73 37.5 -36Q25 1 25 45Q25 154 73 215Q121 276 206 276Q254 276 291.5 253.5Q329 231 348 191L261 164Q240 198 200 198Q167 198 146 170.5Q125 143 120 92H122Q156 130 216 130Q245 130 270.5 119.5Q296 109 315 90.5Q334 72 345 47.5Q356 23 356 -5ZM129 -11Q129 -39 147.5 -59Q166 -79 195 -79Q224 -79 243 -59.5Q262 -40 262 -11Q262 18 242.5 38Q223 58 195 58Q166 58 147.5 38Q129 18 129 -11Z" glyph-name="sixinferior" horiz-adv-x="376" unicode="₆" /><glyph d="M192 -150 85 -150L236 187H39V270H338V193Z" glyph-name="seveninferior" horiz-adv-x="376" unicode="₇" /><glyph d="M26 156Q26 183 38.5 205Q51 227 72.5 242.5Q94 258 124 267Q154 276 188 276Q223 276 253 267Q283 258 304.5 242Q326 226 338 204Q350 182 350 156Q350 126 334 102.5Q318 79 293 69V68Q320 57 338 29.5Q356 2 356 -27Q356 -56 343.5 -80Q331 -104 308.5 -121Q286 -138 255.5 -147Q225 -156 188 -156Q152 -156 121 -147Q90 -138 67.5 -121Q45 -104 32 -80.5Q19 -57 19 -27Q19 2 37 29.5Q55 57 82 68V69Q57 79 41.5 103Q26 127 26 156ZM254 151Q254 172 235.5 185.5Q217 199 188 199Q159 199 140.5 185.5Q122 172 122 151Q122 128 140.5 115Q159 102 188 102Q217 102 235.5 115Q254 128 254 151ZM117 -25Q117 -49 137 -64Q157 -79 188 -79Q219 -79 239 -64Q259 -49 259 -25Q259 0 239 15Q219 30 188 30Q157 30 137 15Q117 0 117 -25Z" glyph-name="eightinferior" horiz-adv-x="376" unicode="₈" /><glyph d="M20 125Q20 158 32.5 185.5Q45 213 67 233Q89 253 117.5 264.5Q146 276 179 276Q218 276 249.5 261Q281 246 303.5 219.5Q326 193 338.5 156Q351 119 351 75Q351 -34 303 -95Q255 -156 170 -156Q122 -156 84.5 -133.5Q47 -111 28 -71L115 -44Q136 -78 176 -78Q209 -78 230 -50.5Q251 -23 256 28H254Q220 -10 160 -10Q131 -10 105.5 0.5Q80 11 61 29.5Q42 48 31 72.5Q20 97 20 125ZM247 131Q247 159 228.5 179Q210 199 181 199Q152 199 133 179.5Q114 160 114 131Q114 102 133.5 82Q153 62 181 62Q210 62 228.5 82Q247 102 247 131Z" glyph-name="nineinferior" horiz-adv-x="376" unicode="₉" /><glyph d="M426 587Q368 587 324.5 555Q281 523 259 464H457V390H242Q240 370 240 351Q240 332 242 310H457V235H259Q282 175 325 143.5Q368 112 426 112Q482 112 522.5 142.5Q563 173 584 227L717 184Q681 91 604 40.5Q527 -10 423 -10Q365 -10 313.5 7Q262 24 221.5 56Q181 88 151.5 133Q122 178 107 235H38V310H94Q93 324 92 347Q91 370 94 390H38V464H107Q122 521 151 566.5Q180 612 221 644Q262 676 313 693Q364 710 423 710Q529 710 605 659Q681 608 717 515L584 472Q563 526 522.5 556.5Q482 587 426 587Z" glyph-name="Euro" horiz-adv-x="757" unicode="€" /><glyph d="M265 -10Q187 -10 137.5 34Q88 78 88 160V221Q75 216 60 212Q45 208 35 206V320Q50 323 66.5 329Q83 335 88 338V531Q88 572 100 605.5Q112 639 134 662Q156 685 186.5 697.5Q217 710 253 710Q288 710 317.5 698Q347 686 368 664Q389 642 401 611Q413 580 413 542Q413 365 217 268V168Q217 141 231.5 125Q246 109 272 109Q292 109 306 120Q320 131 328 150L428 87Q410 42 364.5 16Q319 -10 265 -10ZM217 399Q299 460 299 546Q299 570 288 584.5Q277 599 258 599Q240 599 228.5 585Q217 571 217 549Z" glyph-name="litre" horiz-adv-x="451" unicode="ℓ" /><glyph d="M441 700 569 700L655 576H656L738 700H867V318H755V542H753L654 410H652L553 542H551V318H441ZM149 597 27 597V700H384V597H261V318H149Z" glyph-name="trademark" horiz-adv-x="900" unicode="™" /><glyph d="M380 584Q338 584 304.5 572.5Q271 561 247 540.5Q223 520 210 492Q197 464 197 431Q197 366 235.5 325.5Q274 285 348 274V0H100V121H219V200Q179 210 146 231Q113 252 89.5 282Q66 312 53 349.5Q40 387 40 430Q40 493 65.5 544.5Q91 596 136.5 632.5Q182 669 244.5 689.5Q307 710 380 710Q453 710 515.5 689.5Q578 669 623.5 632.5Q669 596 694.5 544.5Q720 493 720 430Q720 387 707 349.5Q694 312 670.5 282Q647 252 614 231Q581 210 541 200V121H660V0H412V274Q486 285 524.5 325.5Q563 366 563 431Q563 464 550 492Q537 520 513 540.5Q489 561 455.5 572.5Q422 584 380 584Z" glyph-name="Omega" horiz-adv-x="760" unicode="Ω" /><glyph d="M417 -11Q336 -11 264 17.5Q192 46 138 95.5Q84 145 52.5 211Q21 277 21 353Q21 427 52 492.5Q83 558 136.5 607Q190 656 262 684Q334 712 417 712Q508 712 581 683Q654 654 705.5 604.5Q757 555 785 488Q813 421 813 344H179Q169 344 169 332V160Q169 128 196 102Q223 76 262 58Q301 40 343.5 30Q386 20 417 20Q495 20 564.5 48Q634 76 682 131H729Q674 63 594.5 26Q515 -11 417 -11ZM656 375Q661 375 663 376.5Q665 378 665 384V552Q665 585 638.5 609.5Q612 634 573.5 650Q535 666 492.5 674Q450 682 417 682Q387 682 344.5 674Q302 666 263 650Q224 634 196.5 609.5Q169 585 169 552V384Q169 378 171 376.5Q173 375 179 375Z" glyph-name="estimated" horiz-adv-x="828" unicode="℮" /><glyph d="M806 700 245 0H176L736 700ZM306 364 306 281H41V364H127V555H43V634H67Q136 634 138 695L139 701H221V364ZM769 344Q746 344 728.5 333Q711 322 703 303L613 324Q630 372 673 399Q716 426 773 426Q839 426 880 392Q921 358 921 304Q921 279 908 256.5Q895 234 872 220V219Q899 206 915.5 181.5Q932 157 932 128Q932 97 920 72.5Q908 48 886.5 30.5Q865 13 836 3.5Q807 -6 772 -6Q708 -6 663 22.5Q618 51 604 102L694 128Q702 104 722.5 89.5Q743 75 770 75Q798 75 816 89Q834 103 834 127Q834 151 816.5 164.5Q799 178 771 178H737V251H765Q793 251 809.5 264Q826 277 826 298Q826 319 810 331.5Q794 344 769 344Z" glyph-name="onethird" horiz-adv-x="960" unicode="⅓" /><glyph d="M356 365 356 282H44V357Q103 394 143 423.5Q183 453 207.5 477Q232 501 242.5 522Q253 543 253 564Q253 591 235 607.5Q217 624 190 624Q161 624 143 605Q125 586 125 553Q125 551 125.5 547.5Q126 544 126 542L34 546V558Q34 626 77.5 667Q121 708 195 708Q229 708 257.5 697.5Q286 687 306.5 668.5Q327 650 338.5 625Q350 600 350 571Q350 513 312.5 465.5Q275 418 191 365ZM770 344Q747 344 729.5 333Q712 322 704 303L614 324Q631 372 674 399Q717 426 774 426Q840 426 881 392Q922 358 922 304Q922 279 909 256.5Q896 234 873 220V219Q900 206 916.5 181.5Q933 157 933 128Q933 97 921 72.5Q909 48 887.5 30.5Q866 13 837 3.5Q808 -6 773 -6Q709 -6 664 22.5Q619 51 605 102L695 128Q703 104 723.5 89.5Q744 75 771 75Q799 75 817 89Q835 103 835 127Q835 151 817.5 164.5Q800 178 772 178H738V251H766Q794 251 810.5 264Q827 277 827 298Q827 319 811 331.5Q795 344 770 344ZM802 700 241 0H172L732 700Z" glyph-name="twothirds" horiz-adv-x="960" unicode="⅔" /><glyph d="M503 -178 298 -178V479L52 232V514L400 863L747 515V232L503 478Z" glyph-name="arrowup" horiz-adv-x="800" unicode="↑" /><glyph d="M52 452 298 205V863H503V207L747 452V169L400 -178L52 170Z" glyph-name="arrowdown" horiz-adv-x="800" unicode="↓" /><glyph d="M909 37 763 -109L299 356V8L100 208V700H591L791 500H445Z" glyph-name="arrowupleft" horiz-adv-x="960" unicode="↖" /><glyph d="M662 356 198 -108L52 37L516 500H169L369 700H860V208L662 8Z" glyph-name="arrowupright" horiz-adv-x="960" unicode="↗" /><glyph d="M859 491 859 0H368L168 199H514L51 662L196 808L661 343V691Z" glyph-name="arrowdownright" horiz-adv-x="960" unicode="↘" /><glyph d="M560 0 69 0V491L267 691V343L732 808L877 662L414 199H760Z" glyph-name="arrowdownleft" horiz-adv-x="901" unicode="↙" /><glyph d="M545 267Q545 205 527.5 153.5Q510 102 477 65.5Q444 29 397.5 9Q351 -11 292 -11Q235 -11 188 8.5Q141 28 107 63.5Q73 99 54 148.5Q35 198 35 257Q35 315 52.5 363.5Q70 412 100.5 447Q131 482 173.5 501.5Q216 521 266 521Q295 521 324 511.5Q353 502 371 486L373 488Q373 488 362 504.5Q351 521 334.5 545.5Q318 570 298.5 599Q279 628 262.5 652.5Q246 677 235.5 693Q225 709 226 708H369L386 684Q428 625 458 572Q488 519 507.5 468Q527 417 536 367.5Q545 318 545 267ZM171 255Q171 186 203.5 145.5Q236 105 290 105Q344 105 376.5 145.5Q409 186 409 255Q409 324 377.5 365Q346 406 290 406Q236 406 203.5 365Q171 324 171 255Z" glyph-name="partialdiff" horiz-adv-x="583" unicode="∂" /><glyph d="M30 0 30 117L269 700H442L681 117V0ZM356 565 355 565L181 126H530Z" glyph-name="Delta" horiz-adv-x="711" unicode="∆" /><glyph d="M266 578 456 578Q493 578 523.5 565.5Q554 553 576 531.5Q598 510 610 481.5Q622 453 622 421Q622 388 610 359.5Q598 331 576 309.5Q554 288 523.5 276Q493 264 456 264H363V122H266ZM521 421Q521 452 499 473Q477 494 439 494H363V348H439Q477 348 499 368.5Q521 389 521 421ZM417 23Q483 23 540 49Q597 75 639.5 119Q682 163 706 222Q730 281 730 348Q730 415 706 474Q682 533 639.5 577.5Q597 622 540 647.5Q483 673 417 673Q351 673 294 647.5Q237 622 194.5 577.5Q152 533 128 474Q104 415 104 348Q104 281 128 222Q152 163 194.5 119Q237 75 294 49Q351 23 417 23ZM416 -53Q335 -53 263 -21.5Q191 10 137 65Q83 120 51.5 193Q20 266 20 348Q20 431 51.5 503.5Q83 576 137 631Q191 686 263 717.5Q335 749 416 749Q498 749 570.5 717.5Q643 686 697 631Q751 576 782.5 503.5Q814 431 814 348Q814 266 782.5 193Q751 120 697 65Q643 10 570.5 -21.5Q498 -53 416 -53Z" glyph-name="product" horiz-adv-x="834" unicode="∏" /><glyph d="M535 0 49 0V126L264 350L49 574V700H535V572H231L429 370V330L231 127H535Z" glyph-name="summation" horiz-adv-x="585" unicode="∑" /><glyph d="M503 291 47 291V409H503Z" glyph-name="minus" horiz-adv-x="550" unicode="−" /><glyph d="M337 0 154 0L18 407H168L244 141L403 700H554Z" glyph-name="radical" horiz-adv-x="562" unicode="√" /><glyph d="M496 245Q465 180 408 140.5Q351 101 281 101Q233 101 190.5 120Q148 139 116.5 173.5Q85 208 66.5 256Q48 304 48 361Q48 419 66.5 466.5Q85 514 116.5 548.5Q148 583 190.5 602Q233 621 281 621Q352 621 408.5 581.5Q465 542 496 477Q528 546 585.5 583.5Q643 621 712 621Q761 621 803.5 601.5Q846 582 877.5 547.5Q909 513 927 465.5Q945 418 945 361Q945 305 927 257Q909 209 877.5 174.5Q846 140 803.5 120.5Q761 101 712 101Q643 101 585.5 138.5Q528 176 496 245ZM700 236Q751 236 779.5 272.5Q808 309 808 361Q808 387 800.5 410Q793 433 779 450Q765 467 745 477Q725 487 700 487Q614 487 555 361Q613 236 700 236ZM185 361Q185 307 213.5 271.5Q242 236 293 236Q379 236 438 361Q380 487 293 487Q243 487 214 451Q185 415 185 361Z" glyph-name="infinity" horiz-adv-x="993" unicode="∞" /><glyph d="M137 567Q137 634 179 676Q221 718 295 718Q329 718 354 714.5Q379 711 399 707L382 596Q352 605 326 605Q270 605 270 554V-43Q270 -110 228 -152Q186 -194 112 -194Q78 -194 53 -190.5Q28 -187 8 -183L25 -72Q55 -81 81 -81Q137 -81 137 -30Z" glyph-name="integral" horiz-adv-x="407" unicode="∫" /><glyph d="M390 370Q365 370 334.5 376.5Q304 383 274.5 391.5Q245 400 220 406.5Q195 413 181 413Q156 413 156 388V370H45V425Q45 473 76 505.5Q107 538 156 538Q182 538 212.5 531.5Q243 525 272 516.5Q301 508 326 501.5Q351 495 365 495Q390 495 390 520V538H501V483Q501 435 470 402.5Q439 370 390 370ZM390 158Q365 158 334.5 164.5Q304 171 274.5 179.5Q245 188 220 194.5Q195 201 181 201Q156 201 156 176V158H45V213Q45 261 76 293.5Q107 326 156 326Q182 326 212.5 319.5Q243 313 272 304.5Q301 296 326 289.5Q351 283 365 283Q390 283 390 308V326H501V271Q501 223 470 190.5Q439 158 390 158Z" glyph-name="approxequal" horiz-adv-x="546" unicode="≈" /><glyph d="M210 390 47 390V509H210V608H339V509H503V390H339V309H503V190H339V92H210V190H47V309H210Z" glyph-name="notequal" horiz-adv-x="550" unicode="≠" /><glyph d="M500 347 500 212L40 379V501L500 666V534L207 440ZM500 0 41 0V119H500Z" glyph-name="lessequal" horiz-adv-x="550" unicode="≤" /><glyph d="M510 379 50 212V347L344 440L50 534V666L510 501ZM510 0 50 0V119H510Z" glyph-name="greaterequal" horiz-adv-x="550" unicode="≥" /><glyph d="M435 0 257 0L25 350L257 700H435L667 350ZM187 350 346 107L505 350L346 592Z" glyph-name="lozenge" horiz-adv-x="692" unicode="◊" /><glyph d="M236 0 103 0V406H22V511H103V571Q103 642 145 680.5Q187 719 260 719Q288 719 318 715.5Q348 712 373 705L351 599Q320 605 309.5 606Q299 607 286 607Q236 607 236 552V511H342V406H236ZM564 642Q564 610 540.5 588Q517 566 485 566Q453 566 430 588.5Q407 611 407 642Q407 674 430 696.5Q453 719 485 719Q516 719 540 696.5Q564 674 564 642ZM552 0 419 0V511H552Z" glyph-name="fi" horiz-adv-x="615" unicode="ﬁ" /><glyph d="M236 0 103 0V406H22V511H103V571Q103 642 145 680.5Q187 719 260 719Q288 719 318 715.5Q348 712 373 705L351 599Q320 605 309.5 606Q299 607 286 607Q236 607 236 552V511H342V406H236ZM590 101Q598 101 617 104L631 3Q607 -3 587.5 -5.5Q568 -8 552 -8Q486 -8 451.5 20Q417 48 417 105V700H550V138Q550 118 559 109.5Q568 101 590 101Z" glyph-name="fl" horiz-adv-x="638" unicode="ﬂ" /><glyph d="M302 476 300 476L228 225H372ZM587 0 435 0L402 118H197L164 0H20L209 602H398Z" glyph-name="A.smcp" horiz-adv-x="607" unicode="" /><glyph d="M393 484 391 484L261 220H393ZM393 0 393 106H209L156 0H-2L306 602H823V481H530V363H770V249H530V120H831V0Z" glyph-name="AE.smcp" horiz-adv-x="869" unicode="" /><glyph d="M302 476 300 476L228 225H372ZM587 0 435 0L402 118H197L164 0H20L209 602H398ZM418 741 224 641L178 708L357 829Z" glyph-name="Aacute.smcp" horiz-adv-x="607" unicode="" /><glyph d="M302 476 300 476L228 225H372ZM587 0 435 0L402 118H197L164 0H20L209 602H398ZM307 639Q241 639 203.5 667Q166 695 166 743V767H267V757Q267 726 307 726Q348 726 348 757V767H448V743Q448 696 410 667.5Q372 639 307 639Z" glyph-name="Abreve.smcp" horiz-adv-x="607" unicode="" /><glyph d="M302 476 300 476L228 225H372ZM587 0 435 0L402 118H197L164 0H20L209 602H398ZM268 655 160 655L231 782H378L449 655H341L304 710Z" glyph-name="Acircumflex.smcp" horiz-adv-x="607" unicode="" /><glyph d="M302 476 300 476L228 225H372ZM587 0 435 0L402 118H197L164 0H20L209 602H398ZM289 720Q289 691 269.5 670Q250 649 218 649Q186 649 166.5 670Q147 691 147 720Q147 750 167 770Q187 790 218 790Q249 790 269 770Q289 750 289 720ZM469 720Q469 691 449.5 670Q430 649 398 649Q366 649 346.5 670Q327 691 327 720Q327 750 347 770Q367 790 398 790Q429 790 449 770Q469 750 469 720Z" glyph-name="Adieresis.smcp" horiz-adv-x="607" unicode="" /><glyph d="M302 476 300 476L228 225H372ZM587 0 435 0L402 118H197L164 0H20L209 602H398ZM434 708 389 641L194 741L255 829Z" glyph-name="Agrave.smcp" horiz-adv-x="607" unicode="" /><glyph d="M302 476 300 476L228 225H372ZM587 0 435 0L402 118H197L164 0H20L209 602H398ZM453 663 161 663V756H453Z" glyph-name="Amacron.smcp" horiz-adv-x="607" unicode="" /><glyph d="M302 476 300 476L228 225H372ZM611 -175Q594 -181 574 -184.5Q554 -188 534 -188Q484 -188 456 -167.5Q428 -147 428 -107Q428 -81 446 -52.5Q464 -24 502 0H435L402 118H197L164 0H20L209 602H398L587 0Q554 -33 543.5 -49.5Q533 -66 533 -81Q533 -98 544 -105.5Q555 -113 571 -113Q593 -113 616 -103Z" glyph-name="Aogonek.smcp" horiz-adv-x="607" unicode="" /><glyph d="M302 476 300 476L228 225H372ZM587 0 435 0L402 118H197L164 0H20L209 602H398ZM407 749Q407 728 398.5 709.5Q390 691 375.5 677Q361 663 341.5 655Q322 647 301 647Q280 647 260.5 655Q241 663 226.5 677Q212 691 203.5 709.5Q195 728 195 749Q195 771 203.5 789.5Q212 808 227 821.5Q242 835 261 843Q280 851 301 851Q322 851 341 843Q360 835 375 821.5Q390 808 398.5 789.5Q407 771 407 749ZM256 749Q256 730 268.5 717Q281 704 301 704Q320 704 333 717Q346 730 346 749Q346 768 333 781Q320 794 301 794Q281 794 268.5 781Q256 768 256 749Z" glyph-name="Aring.smcp" horiz-adv-x="607" unicode="" /><glyph d="M302 476 300 476L228 225H372ZM587 0 435 0L402 118H197L164 0H20L209 602H398ZM451 746Q451 701 430.5 676.5Q410 652 368 652Q355 652 338.5 656Q322 660 306.5 664.5Q291 669 278 673Q265 677 257 677Q244 677 244 663V651H161V677Q161 722 181.5 746.5Q202 771 244 771Q258 771 274 767Q290 763 305.5 758.5Q321 754 334 750Q347 746 355 746Q368 746 368 760V772H451Z" glyph-name="Atilde.smcp" horiz-adv-x="607" unicode="" /><glyph d="M72 0 72 602H343Q383 602 418 591Q453 580 478.5 560Q504 540 518.5 512Q533 484 533 449Q533 414 512.5 379.5Q492 345 459 328V326Q505 310 532 272Q559 234 559 180Q559 140 543.5 107Q528 74 499.5 50Q471 26 431.5 13Q392 0 345 0ZM393 425Q393 453 374 470Q355 487 320 487H208V363H320Q355 363 374 380.5Q393 398 393 425ZM419 184Q419 217 396 236Q373 255 330 255H208V114H330Q375 114 397 132.5Q419 151 419 184Z" glyph-name="B.smcp" horiz-adv-x="596" unicode="" /><glyph d="M331 493Q297 493 269 479Q241 465 221 439.5Q201 414 190.5 379Q180 344 180 301Q180 213 221 160.5Q262 108 331 108Q376 108 410 134Q444 160 461 205L589 165Q557 83 489.5 37Q422 -9 329 -9Q264 -9 210.5 14Q157 37 119 78Q81 119 60 176Q39 233 39 301Q39 369 60 426Q81 483 119 524Q157 565 210.5 588Q264 611 329 611Q422 611 489.5 565Q557 519 589 437L461 397Q444 442 410 467.5Q376 493 331 493Z" glyph-name="C.smcp" horiz-adv-x="614" unicode="" /><glyph d="M331 493Q297 493 269 479Q241 465 221 439.5Q201 414 190.5 379Q180 344 180 301Q180 213 221 160.5Q262 108 331 108Q376 108 410 134Q444 160 461 205L589 165Q557 83 489.5 37Q422 -9 329 -9Q264 -9 210.5 14Q157 37 119 78Q81 119 60 176Q39 233 39 301Q39 369 60 426Q81 483 119 524Q157 565 210.5 588Q264 611 329 611Q422 611 489.5 565Q557 519 589 437L461 397Q444 442 410 467.5Q376 493 331 493ZM442 741 248 641L202 708L381 829Z" glyph-name="Cacute.smcp" horiz-adv-x="614" unicode="" /><glyph d="M331 493Q297 493 269 479Q241 465 221 439.5Q201 414 190.5 379Q180 344 180 301Q180 213 221 160.5Q262 108 331 108Q376 108 410 134Q444 160 461 205L589 165Q557 83 489.5 37Q422 -9 329 -9Q264 -9 210.5 14Q157 37 119 78Q81 119 60 176Q39 233 39 301Q39 369 60 426Q81 483 119 524Q157 565 210.5 588Q264 611 329 611Q422 611 489.5 565Q557 519 589 437L461 397Q444 442 410 467.5Q376 493 331 493ZM247 655 176 782H284L320 727L357 782H465L394 655Z" glyph-name="Ccaron.smcp" horiz-adv-x="614" unicode="" /><glyph d="M331 493Q297 493 269 479Q241 465 221 439.5Q201 414 190.5 379Q180 344 180 301Q180 213 221 160.5Q262 108 331 108Q376 108 410 134Q444 160 461 205L589 165Q563 99 515 56.5Q467 14 401 -1L338 -130H220L265 -3Q213 7 171.5 33.5Q130 60 100.5 99.5Q71 139 55 190Q39 241 39 301Q39 369 60 426Q81 483 119 524Q157 565 210.5 588Q264 611 329 611Q422 611 489.5 565Q557 519 589 437L461 397Q444 442 410 467.5Q376 493 331 493Z" glyph-name="Ccedilla.smcp" horiz-adv-x="614" unicode="" /><glyph d="M331 493Q297 493 269 479Q241 465 221 439.5Q201 414 190.5 379Q180 344 180 301Q180 213 221 160.5Q262 108 331 108Q376 108 410 134Q444 160 461 205L589 165Q557 83 489.5 37Q422 -9 329 -9Q264 -9 210.5 14Q157 37 119 78Q81 119 60 176Q39 233 39 301Q39 369 60 426Q81 483 119 524Q157 565 210.5 588Q264 611 329 611Q422 611 489.5 565Q557 519 589 437L461 397Q444 442 410 467.5Q376 493 331 493ZM284 655 176 655L247 782H394L465 655H357L320 710Z" glyph-name="Ccircumflex.smcp" horiz-adv-x="614" unicode="" /><glyph d="M331 493Q297 493 269 479Q241 465 221 439.5Q201 414 190.5 379Q180 344 180 301Q180 213 221 160.5Q262 108 331 108Q376 108 410 134Q444 160 461 205L589 165Q557 83 489.5 37Q422 -9 329 -9Q264 -9 210.5 14Q157 37 119 78Q81 119 60 176Q39 233 39 301Q39 369 60 426Q81 483 119 524Q157 565 210.5 588Q264 611 329 611Q422 611 489.5 565Q557 519 589 437L461 397Q444 442 410 467.5Q376 493 331 493ZM319 811Q353 811 376 788Q399 765 399 732Q399 699 376.5 676.5Q354 654 319 654Q284 654 261.5 676.5Q239 699 239 732Q239 765 262 788Q285 811 319 811Z" glyph-name="Cdotaccent.smcp" horiz-adv-x="614" unicode="" /><glyph d="M72 0 72 602H316Q384 602 438 580Q492 558 530 518.5Q568 479 588.5 423.5Q609 368 609 301Q609 234 588.5 178.5Q568 123 530 83Q492 43 438 21.5Q384 0 316 0ZM208 487 208 114H294Q379 114 423.5 162.5Q468 211 468 301Q468 389 423.5 438Q379 487 294 487Z" glyph-name="D.smcp" horiz-adv-x="648" unicode="" /><glyph d="M72 0 72 602H316Q384 602 438 580Q492 558 530 518.5Q568 479 588.5 423.5Q609 368 609 301Q609 234 588.5 178.5Q568 123 530 83Q492 43 438 21.5Q384 0 316 0ZM208 487 208 114H294Q379 114 423.5 162.5Q468 211 468 301Q468 389 423.5 438Q379 487 294 487ZM227 655 156 782H264L300 727L337 782H445L374 655Z" glyph-name="Dcaron.smcp" horiz-adv-x="648" unicode="" /><glyph d="M74 0 74 256H27V347H74V602H318Q386 602 440 580Q494 558 532 518.5Q570 479 590.5 423.5Q611 368 611 301Q611 234 590.5 178.5Q570 123 532 83Q494 43 440 21.5Q386 0 318 0ZM210 487 210 347H342V256H210V114H296Q381 114 425.5 162.5Q470 211 470 301Q470 389 425.5 438Q381 487 296 487Z" glyph-name="Dcroat.smcp" horiz-adv-x="650" unicode="" /><glyph d="M509 0 72 0V602H501V481H208V363H449V249H208V120H509Z" glyph-name="E.smcp" horiz-adv-x="547" unicode="" /><glyph d="M509 0 72 0V602H501V481H208V363H449V249H208V120H509ZM410 741 216 641L170 708L349 829Z" glyph-name="Eacute.smcp" horiz-adv-x="547" unicode="" /><glyph d="M509 0 72 0V602H501V481H208V363H449V249H208V120H509ZM289 639Q223 639 185.5 667Q148 695 148 743V767H249V757Q249 726 289 726Q330 726 330 757V767H430V743Q430 696 392 667.5Q354 639 289 639Z" glyph-name="Ebreve.smcp" horiz-adv-x="547" unicode="" /><glyph d="M509 0 72 0V602H501V481H208V363H449V249H208V120H509ZM216 655 145 782H253L289 727L326 782H434L363 655Z" glyph-name="Ecaron.smcp" horiz-adv-x="547" unicode="" /><glyph d="M509 0 72 0V602H501V481H208V363H449V249H208V120H509ZM238 655 130 655L201 782H348L419 655H311L274 710Z" glyph-name="Ecircumflex.smcp" horiz-adv-x="547" unicode="" /><glyph d="M509 0 72 0V602H501V481H208V363H449V249H208V120H509ZM271 720Q271 691 251.5 670Q232 649 200 649Q168 649 148.5 670Q129 691 129 720Q129 750 149 770Q169 790 200 790Q231 790 251 770Q271 750 271 720ZM451 720Q451 691 431.5 670Q412 649 380 649Q348 649 328.5 670Q309 691 309 720Q309 750 329 770Q349 790 380 790Q411 790 431 770Q451 750 451 720Z" glyph-name="Edieresis.smcp" horiz-adv-x="547" unicode="" /><glyph d="M509 0 72 0V602H501V481H208V363H449V249H208V120H509ZM290 811Q324 811 347 788Q370 765 370 732Q370 699 347.5 676.5Q325 654 290 654Q255 654 232.5 676.5Q210 699 210 732Q210 765 233 788Q256 811 290 811Z" glyph-name="Edotaccent.smcp" horiz-adv-x="547" unicode="" /><glyph d="M509 0 72 0V602H501V481H208V363H449V249H208V120H509ZM403 708 358 641L163 741L224 829Z" glyph-name="Egrave.smcp" horiz-adv-x="547" unicode="" /><glyph d="M509 0 72 0V602H501V481H208V363H449V249H208V120H509ZM435 663 143 663V756H435Z" glyph-name="Emacron.smcp" horiz-adv-x="547" unicode="" /><glyph d="M204 0 72 0V602H229L479 209H481V602H613V-47Q613 -80 602.5 -102.5Q592 -125 573.5 -138.5Q555 -152 530.5 -158Q506 -164 478 -164Q458 -164 434 -162Q410 -160 392 -155L409 -52Q420 -55 430 -56Q440 -57 448 -57Q464 -57 473.5 -50.5Q483 -44 483 -25V0H456L206 393H204Z" glyph-name="Eng.smcp" horiz-adv-x="685" unicode="" /><glyph d="M72 0 72 602H501V481H208V363H449V249H208V120H509V0Q477 -26 462 -46Q447 -66 447 -82Q447 -110 483 -110Q504 -110 531 -104L526 -177Q508 -183 487 -186.5Q466 -190 447 -190Q398 -190 369 -168Q340 -146 340 -106Q340 -80 360 -51.5Q380 -23 418 0Z" glyph-name="Eogonek.smcp" horiz-adv-x="547" unicode="" /><glyph d="M74 0 74 256H27V347H74V602H318Q386 602 440 580Q494 558 532 518.5Q570 479 590.5 423.5Q611 368 611 301Q611 234 590.5 178.5Q570 123 532 83Q494 43 440 21.5Q386 0 318 0ZM210 487 210 347H342V256H210V114H296Q381 114 425.5 162.5Q470 211 470 301Q470 389 425.5 438Q381 487 296 487Z" glyph-name="Eth.smcp" horiz-adv-x="650" unicode="" /><glyph d="M365 493Q269 493 232 399H384V330H216Q215 327 215 319V283Q215 275 216 272H384V203H232Q250 157 283.5 132.5Q317 108 365 108Q410 108 444.5 134Q479 160 495 205L624 165Q592 80 524.5 35.5Q457 -9 363 -9Q257 -9 183.5 48Q110 105 85 203H33V272H74Q74 276 73.5 286Q73 296 73 301Q73 306 73.5 315.5Q74 325 74 330H33V399H85Q111 498 185 554.5Q259 611 363 611Q457 611 524.5 566.5Q592 522 624 437L495 397Q479 442 445 467.5Q411 493 365 493Z" glyph-name="Euro.smcp" horiz-adv-x="660" unicode="" /><glyph d="M208 0 72 0V602H484V481H208V346H449V232H208Z" glyph-name="F.smcp" horiz-adv-x="513" unicode="" /><glyph d="M320 -9Q257 -9 205.5 14Q154 37 117 78Q80 119 59.5 175Q39 231 39 298Q39 366 61 423.5Q83 481 122.5 522.5Q162 564 217 587.5Q272 611 338 611Q432 611 503.5 564Q575 517 607 437L479 397Q464 440 425.5 466.5Q387 493 341 493Q304 493 274.5 479Q245 465 224 439.5Q203 414 192 378.5Q181 343 181 301Q181 259 192.5 223.5Q204 188 224.5 162.5Q245 137 273.5 123Q302 109 337 109Q363 109 387 117.5Q411 126 430 141.5Q449 157 461 177.5Q473 198 475 222H334V331H605V0H493V71H491Q481 54 463 39.5Q445 25 422.5 14Q400 3 373.5 -3Q347 -9 320 -9Z" glyph-name="G.smcp" horiz-adv-x="656" unicode="" /><glyph d="M320 -9Q257 -9 205.5 14Q154 37 117 78Q80 119 59.5 175Q39 231 39 298Q39 366 61 423.5Q83 481 122.5 522.5Q162 564 217 587.5Q272 611 338 611Q432 611 503.5 564Q575 517 607 437L479 397Q464 440 425.5 466.5Q387 493 341 493Q304 493 274.5 479Q245 465 224 439.5Q203 414 192 378.5Q181 343 181 301Q181 259 192.5 223.5Q204 188 224.5 162.5Q245 137 273.5 123Q302 109 337 109Q363 109 387 117.5Q411 126 430 141.5Q449 157 461 177.5Q473 198 475 222H334V331H605V0H493V71H491Q481 54 463 39.5Q445 25 422.5 14Q400 3 373.5 -3Q347 -9 320 -9ZM325 639Q259 639 221.5 667Q184 695 184 743V767H285V757Q285 726 325 726Q366 726 366 757V767H466V743Q466 696 428 667.5Q390 639 325 639Z" glyph-name="Gbreve.smcp" horiz-adv-x="656" unicode="" /><glyph d="M320 -9Q257 -9 205.5 14Q154 37 117 78Q80 119 59.5 175Q39 231 39 298Q39 366 61 423.5Q83 481 122.5 522.5Q162 564 217 587.5Q272 611 338 611Q432 611 503.5 564Q575 517 607 437L479 397Q464 440 425.5 466.5Q387 493 341 493Q304 493 274.5 479Q245 465 224 439.5Q203 414 192 378.5Q181 343 181 301Q181 259 192.5 223.5Q204 188 224.5 162.5Q245 137 273.5 123Q302 109 337 109Q363 109 387 117.5Q411 126 430 141.5Q449 157 461 177.5Q473 198 475 222H334V331H605V0H493V71H491Q481 54 463 39.5Q445 25 422.5 14Q400 3 373.5 -3Q347 -9 320 -9ZM286 655 178 655L249 782H396L467 655H359L322 710Z" glyph-name="Gcircumflex.smcp" horiz-adv-x="656" unicode="" /><glyph d="M320 -9Q257 -9 205.5 14Q154 37 117 78Q80 119 59.5 175Q39 231 39 298Q39 366 61 423.5Q83 481 122.5 522.5Q162 564 217 587.5Q272 611 338 611Q432 611 503.5 564Q575 517 607 437L479 397Q464 440 425.5 466.5Q387 493 341 493Q304 493 274.5 479Q245 465 224 439.5Q203 414 192 378.5Q181 343 181 301Q181 259 192.5 223.5Q204 188 224.5 162.5Q245 137 273.5 123Q302 109 337 109Q363 109 387 117.5Q411 126 430 141.5Q449 157 461 177.5Q473 198 475 222H334V331H605V0H493V71H491Q481 54 463 39.5Q445 25 422.5 14Q400 3 373.5 -3Q347 -9 320 -9ZM406 -134Q406 -179 378.5 -222Q351 -265 297 -307L258 -273Q309 -225 309 -205Q309 -197 305 -194Q301 -191 292 -186Q271 -175 259.5 -160Q248 -145 248 -122Q248 -91 270 -70Q292 -49 323 -49Q359 -49 382.5 -73.5Q406 -98 406 -134Z" glyph-name="Gcommaaccent.smcp" horiz-adv-x="656" unicode="" /><glyph d="M320 -9Q257 -9 205.5 14Q154 37 117 78Q80 119 59.5 175Q39 231 39 298Q39 366 61 423.5Q83 481 122.5 522.5Q162 564 217 587.5Q272 611 338 611Q432 611 503.5 564Q575 517 607 437L479 397Q464 440 425.5 466.5Q387 493 341 493Q304 493 274.5 479Q245 465 224 439.5Q203 414 192 378.5Q181 343 181 301Q181 259 192.5 223.5Q204 188 224.5 162.5Q245 137 273.5 123Q302 109 337 109Q363 109 387 117.5Q411 126 430 141.5Q449 157 461 177.5Q473 198 475 222H334V331H605V0H493V71H491Q481 54 463 39.5Q445 25 422.5 14Q400 3 373.5 -3Q347 -9 320 -9ZM325 811Q359 811 382 788Q405 765 405 732Q405 699 382.5 676.5Q360 654 325 654Q290 654 267.5 676.5Q245 699 245 732Q245 765 268 788Q291 811 325 811Z" glyph-name="Gdotaccent.smcp" horiz-adv-x="656" unicode="" /><glyph d="M208 0 72 0V602H208V368H452V602H588V0H452V248H208Z" glyph-name="H.smcp" horiz-adv-x="660" unicode="" /><glyph d="M217 436 217 368H461V436ZM81 436 17 436V521H81V602H217V521H461V602H597V521H661V436H597V0H461V248H217V0H81Z" glyph-name="Hbar.smcp" horiz-adv-x="678" unicode="" /><glyph d="M208 0 72 0V602H208V368H452V602H588V0H452V248H208ZM292 655 184 655L255 782H402L473 655H365L328 710Z" glyph-name="Hcircumflex.smcp" horiz-adv-x="660" unicode="" /><glyph d="M208 0 72 0V602H208Z" glyph-name="I.smcp" horiz-adv-x="280" unicode="" /><glyph d="M208 0 72 0V602H208ZM448 -9Q403 -9 368.5 -2.5Q334 4 305 17L347 126Q371 116 391.5 112Q412 108 432 108Q467 108 482 125Q497 142 497 176V602H634V159Q634 81 584 36Q534 -9 448 -9Z" glyph-name="IJ.smcp" horiz-adv-x="702" unicode="" /><glyph d="M208 0 72 0V602H208ZM257 741 63 641L17 708L196 829Z" glyph-name="Iacute.smcp" horiz-adv-x="280" unicode="" /><glyph d="M208 0 72 0V602H208ZM137 639Q71 639 33.5 667Q-4 695 -4 743V767H97V757Q97 726 137 726Q178 726 178 757V767H278V743Q278 696 240 667.5Q202 639 137 639Z" glyph-name="Ibreve.smcp" horiz-adv-x="280" unicode="" /><glyph d="M208 0 72 0V602H208ZM99 655 -9 655L62 782H209L280 655H172L135 710Z" glyph-name="Icircumflex.smcp" horiz-adv-x="280" unicode="" /><glyph d="M208 0 72 0V602H208ZM119 720Q119 691 99.5 670Q80 649 48 649Q16 649 -3.5 670Q-23 691 -23 720Q-23 750 -3 770Q17 790 48 790Q79 790 99 770Q119 750 119 720ZM299 720Q299 691 279.5 670Q260 649 228 649Q196 649 176.5 670Q157 691 157 720Q157 750 177 770Q197 790 228 790Q259 790 279 770Q299 750 299 720Z" glyph-name="Idieresis.smcp" horiz-adv-x="280" unicode="" /><glyph d="M208 0 72 0V602H208ZM137 811Q171 811 194 788Q217 765 217 732Q217 699 194.5 676.5Q172 654 137 654Q102 654 79.5 676.5Q57 699 57 732Q57 765 80 788Q103 811 137 811Z" glyph-name="Idotaccent.smcp" horiz-adv-x="280" unicode="" /><glyph d="M208 0 72 0V602H208ZM257 708 212 641L17 741L78 829Z" glyph-name="Igrave.smcp" horiz-adv-x="280" unicode="" /><glyph d="M208 0 72 0V602H208ZM283 663 -9 663V756H283Z" glyph-name="Imacron.smcp" horiz-adv-x="280" unicode="" /><glyph d="M72 0 72 602H208V0Q180 -24 167.5 -45.5Q155 -67 155 -81Q155 -92 162 -102Q169 -112 192 -112Q201 -112 212.5 -110Q224 -108 238 -103L233 -175Q214 -181 194 -184.5Q174 -188 155 -188Q107 -188 78 -167Q49 -146 49 -107Q49 -81 67 -52Q85 -23 115 0Z" glyph-name="Iogonek.smcp" horiz-adv-x="280" unicode="" /><glyph d="M208 0 72 0V602H208ZM281 746Q281 701 260.5 676.5Q240 652 198 652Q185 652 168.5 656Q152 660 136.5 664.5Q121 669 108 673Q95 677 87 677Q74 677 74 663V651H-9V677Q-9 722 11.5 746.5Q32 771 74 771Q88 771 104 767Q120 763 135.5 758.5Q151 754 164 750Q177 746 185 746Q198 746 198 760V772H281Z" glyph-name="Itilde.smcp" horiz-adv-x="280" unicode="" /><glyph d="M156 -9Q111 -9 76.5 -2.5Q42 4 13 17L55 126Q79 116 99.5 112Q120 108 140 108Q175 108 190 125Q205 142 205 176V602H342V159Q342 81 292 36Q242 -9 156 -9Z" glyph-name="J.smcp" horiz-adv-x="410" unicode="" /><glyph d="M156 -9Q111 -9 76.5 -2.5Q42 4 13 17L55 126Q79 116 99.5 112Q120 108 140 108Q175 108 190 125Q205 142 205 176V602H342V159Q342 81 292 36Q242 -9 156 -9ZM230 655 122 655L193 782H340L411 655H303L266 710Z" glyph-name="Jcircumflex.smcp" horiz-adv-x="410" unicode="" /><glyph d="M208 0 72 0V602H208V345H210L428 602H595L387 364L609 0H447L288 265L208 173Z" glyph-name="K.smcp" horiz-adv-x="614" unicode="" /><glyph d="M208 0 72 0V602H208V345H210L428 602H595L387 364L609 0H447L288 265L208 173ZM390 -134Q390 -179 362.5 -222Q335 -265 281 -307L242 -273Q293 -225 293 -205Q293 -197 289 -194Q285 -191 276 -186Q255 -175 243.5 -160Q232 -145 232 -122Q232 -91 254 -70Q276 -49 307 -49Q343 -49 366.5 -73.5Q390 -98 390 -134Z" glyph-name="Kcommaaccent.smcp" horiz-adv-x="614" unicode="" /><glyph d="M469 0 72 0V602H208V120H469Z" glyph-name="L.smcp" horiz-adv-x="489" unicode="" /><glyph d="M469 0 72 0V602H208V120H469ZM266 741 72 641L26 708L205 829Z" glyph-name="Lacute.smcp" horiz-adv-x="489" unicode="" /><glyph d="M469 0 72 0V602H208V120H469ZM459 527Q459 482 431.5 439Q404 396 350 354L311 388Q362 436 362 456Q362 464 358 467Q354 470 345 475Q324 486 312.5 501Q301 516 301 539Q301 570 323 591Q345 612 376 612Q412 612 435.5 587.5Q459 563 459 527Z" glyph-name="Lcaron.smcp" horiz-adv-x="489" unicode="" /><glyph d="M469 0 72 0V602H208V120H469ZM339 -134Q339 -179 311.5 -222Q284 -265 230 -307L191 -273Q242 -225 242 -205Q242 -197 238 -194Q234 -191 225 -186Q204 -175 192.5 -160Q181 -145 181 -122Q181 -91 203 -70Q225 -49 256 -49Q292 -49 315.5 -73.5Q339 -98 339 -134Z" glyph-name="Lcommaaccent.smcp" horiz-adv-x="489" unicode="" /><glyph d="M469 0 72 0V602H208V120H469ZM341 380Q375 380 398 357Q421 334 421 301Q421 268 398.5 245.5Q376 223 341 223Q306 223 283.5 245.5Q261 268 261 301Q261 334 284 357Q307 380 341 380Z" glyph-name="Ldot.smcp" horiz-adv-x="489" unicode="" /><glyph d="M25 199 25 282L72 297V602H208V340L345 384V301L208 257V120H469V0H72V213Z" glyph-name="Lslash.smcp" horiz-adv-x="489" unicode="" /><glyph d="M558 403 385 171H383L210 403H208V0H72V602H221L383 378H385L547 602H697V0H560V403Z" glyph-name="M.smcp" horiz-adv-x="769" unicode="" /><glyph d="M204 0 72 0V602H229L479 209H481V602H613V0H456L206 393H204Z" glyph-name="N.smcp" horiz-adv-x="685" unicode="" /><glyph d="M204 0 72 0V602H229L479 209H481V602H613V0H456L206 393H204ZM477 741 283 641L237 708L416 829Z" glyph-name="Nacute.smcp" horiz-adv-x="685" unicode="" /><glyph d="M204 0 72 0V602H229L479 209H481V602H613V0H456L206 393H204ZM263 655 192 782H300L336 727L373 782H481L410 655Z" glyph-name="Ncaron.smcp" horiz-adv-x="685" unicode="" /><glyph d="M204 0 72 0V602H229L479 209H481V602H613V0H456L206 393H204ZM419 -134Q419 -179 391.5 -222Q364 -265 310 -307L271 -273Q322 -225 322 -205Q322 -197 318 -194Q314 -191 305 -186Q284 -175 272.5 -160Q261 -145 261 -122Q261 -91 283 -70Q305 -49 336 -49Q372 -49 395.5 -73.5Q419 -98 419 -134Z" glyph-name="Ncommaaccent.smcp" horiz-adv-x="685" unicode="" /><glyph d="M204 0 72 0V602H229L479 209H481V602H613V0H456L206 393H204ZM482 746Q482 701 461.5 676.5Q441 652 399 652Q386 652 369.5 656Q353 660 337.5 664.5Q322 669 309 673Q296 677 288 677Q275 677 275 663V651H192V677Q192 722 212.5 746.5Q233 771 275 771Q289 771 305 767Q321 763 336.5 758.5Q352 754 365 750Q378 746 386 746Q399 746 399 760V772H482Z" glyph-name="Ntilde.smcp" horiz-adv-x="685" unicode="" /><glyph d="M38 301Q38 368 60 424.5Q82 481 121 522.5Q160 564 214.5 587.5Q269 611 334 611Q399 611 453.5 587.5Q508 564 547.5 523Q587 482 609 425Q631 368 631 301Q631 234 609 177Q587 120 547.5 79Q508 38 453.5 14.5Q399 -9 334 -9Q269 -9 214.5 14.5Q160 38 121 79.5Q82 121 60 177.5Q38 234 38 301ZM489 301Q489 344 478 379Q467 414 447 439.5Q427 465 398 479Q369 493 334 493Q300 493 271.5 479Q243 465 222.5 439.5Q202 414 191 379Q180 344 180 301Q180 258 191 223Q202 188 222.5 162.5Q243 137 271.5 123Q300 109 334 109Q369 109 398 123Q427 137 447 162.5Q467 188 478 223Q489 258 489 301Z" glyph-name="O.smcp" horiz-adv-x="669" unicode="" /><glyph d="M334 493Q300 493 271.5 479Q243 465 222.5 439.5Q202 414 191 379Q180 344 180 301Q180 259 191 223.5Q202 188 222 162.5Q242 137 270.5 122.5Q299 108 334 108Q370 108 398.5 122.5Q427 137 447.5 162.5Q468 188 478.5 223.5Q489 259 489 301Q489 344 478 379Q467 414 447 439.5Q427 465 398 479Q369 493 334 493ZM489 65 487 65Q457 30 413.5 10.5Q370 -9 316 -9Q255 -9 204 14.5Q153 38 116 79.5Q79 121 58.5 178Q38 235 38 301Q38 367 58.5 423.5Q79 480 116 522Q153 564 204 587.5Q255 611 316 611Q370 611 414 591Q458 571 487 536H489V602H918V481H625V363H866V249H625V120H927V0H489Z" glyph-name="OE.smcp" horiz-adv-x="965" unicode="" /><glyph d="M38 301Q38 368 60 424.5Q82 481 121 522.5Q160 564 214.5 587.5Q269 611 334 611Q399 611 453.5 587.5Q508 564 547.5 523Q587 482 609 425Q631 368 631 301Q631 234 609 177Q587 120 547.5 79Q508 38 453.5 14.5Q399 -9 334 -9Q269 -9 214.5 14.5Q160 38 121 79.5Q82 121 60 177.5Q38 234 38 301ZM489 301Q489 344 478 379Q467 414 447 439.5Q427 465 398 479Q369 493 334 493Q300 493 271.5 479Q243 465 222.5 439.5Q202 414 191 379Q180 344 180 301Q180 258 191 223Q202 188 222.5 162.5Q243 137 271.5 123Q300 109 334 109Q369 109 398 123Q427 137 447 162.5Q467 188 478 223Q489 258 489 301ZM455 741 261 641L215 708L394 829Z" glyph-name="Oacute.smcp" horiz-adv-x="669" unicode="" /><glyph d="M38 301Q38 368 60 424.5Q82 481 121 522.5Q160 564 214.5 587.5Q269 611 334 611Q399 611 453.5 587.5Q508 564 547.5 523Q587 482 609 425Q631 368 631 301Q631 234 609 177Q587 120 547.5 79Q508 38 453.5 14.5Q399 -9 334 -9Q269 -9 214.5 14.5Q160 38 121 79.5Q82 121 60 177.5Q38 234 38 301ZM489 301Q489 344 478 379Q467 414 447 439.5Q427 465 398 479Q369 493 334 493Q300 493 271.5 479Q243 465 222.5 439.5Q202 414 191 379Q180 344 180 301Q180 258 191 223Q202 188 222.5 162.5Q243 137 271.5 123Q300 109 334 109Q369 109 398 123Q427 137 447 162.5Q467 188 478 223Q489 258 489 301ZM334 639Q268 639 230.5 667Q193 695 193 743V767H294V757Q294 726 334 726Q375 726 375 757V767H475V743Q475 696 437 667.5Q399 639 334 639Z" glyph-name="Obreve.smcp" horiz-adv-x="669" unicode="" /><glyph d="M38 301Q38 368 60 424.5Q82 481 121 522.5Q160 564 214.5 587.5Q269 611 334 611Q399 611 453.5 587.5Q508 564 547.5 523Q587 482 609 425Q631 368 631 301Q631 234 609 177Q587 120 547.5 79Q508 38 453.5 14.5Q399 -9 334 -9Q269 -9 214.5 14.5Q160 38 121 79.5Q82 121 60 177.5Q38 234 38 301ZM489 301Q489 344 478 379Q467 414 447 439.5Q427 465 398 479Q369 493 334 493Q300 493 271.5 479Q243 465 222.5 439.5Q202 414 191 379Q180 344 180 301Q180 258 191 223Q202 188 222.5 162.5Q243 137 271.5 123Q300 109 334 109Q369 109 398 123Q427 137 447 162.5Q467 188 478 223Q489 258 489 301ZM298 655 190 655L261 782H408L479 655H371L334 710Z" glyph-name="Ocircumflex.smcp" horiz-adv-x="669" unicode="" /><glyph d="M38 301Q38 368 60 424.5Q82 481 121 522.5Q160 564 214.5 587.5Q269 611 334 611Q399 611 453.5 587.5Q508 564 547.5 523Q587 482 609 425Q631 368 631 301Q631 234 609 177Q587 120 547.5 79Q508 38 453.5 14.5Q399 -9 334 -9Q269 -9 214.5 14.5Q160 38 121 79.5Q82 121 60 177.5Q38 234 38 301ZM489 301Q489 344 478 379Q467 414 447 439.5Q427 465 398 479Q369 493 334 493Q300 493 271.5 479Q243 465 222.5 439.5Q202 414 191 379Q180 344 180 301Q180 258 191 223Q202 188 222.5 162.5Q243 137 271.5 123Q300 109 334 109Q369 109 398 123Q427 137 447 162.5Q467 188 478 223Q489 258 489 301ZM316 720Q316 691 296.5 670Q277 649 245 649Q213 649 193.5 670Q174 691 174 720Q174 750 194 770Q214 790 245 790Q276 790 296 770Q316 750 316 720ZM496 720Q496 691 476.5 670Q457 649 425 649Q393 649 373.5 670Q354 691 354 720Q354 750 374 770Q394 790 425 790Q456 790 476 770Q496 750 496 720Z" glyph-name="Odieresis.smcp" horiz-adv-x="669" unicode="" /><glyph d="M38 301Q38 368 60 424.5Q82 481 121 522.5Q160 564 214.5 587.5Q269 611 334 611Q399 611 453.5 587.5Q508 564 547.5 523Q587 482 609 425Q631 368 631 301Q631 234 609 177Q587 120 547.5 79Q508 38 453.5 14.5Q399 -9 334 -9Q269 -9 214.5 14.5Q160 38 121 79.5Q82 121 60 177.5Q38 234 38 301ZM489 301Q489 344 478 379Q467 414 447 439.5Q427 465 398 479Q369 493 334 493Q300 493 271.5 479Q243 465 222.5 439.5Q202 414 191 379Q180 344 180 301Q180 258 191 223Q202 188 222.5 162.5Q243 137 271.5 123Q300 109 334 109Q369 109 398 123Q427 137 447 162.5Q467 188 478 223Q489 258 489 301ZM455 708 410 641L215 741L276 829Z" glyph-name="Ograve.smcp" horiz-adv-x="669" unicode="" /><glyph d="M38 301Q38 368 60 424.5Q82 481 121 522.5Q160 564 214.5 587.5Q269 611 334 611Q399 611 453.5 587.5Q508 564 547.5 523Q587 482 609 425Q631 368 631 301Q631 234 609 177Q587 120 547.5 79Q508 38 453.5 14.5Q399 -9 334 -9Q269 -9 214.5 14.5Q160 38 121 79.5Q82 121 60 177.5Q38 234 38 301ZM489 301Q489 344 478 379Q467 414 447 439.5Q427 465 398 479Q369 493 334 493Q300 493 271.5 479Q243 465 222.5 439.5Q202 414 191 379Q180 344 180 301Q180 258 191 223Q202 188 222.5 162.5Q243 137 271.5 123Q300 109 334 109Q369 109 398 123Q427 137 447 162.5Q467 188 478 223Q489 258 489 301ZM595 750 409 641L360 707L530 839ZM363 750 176 641L127 707L297 839Z" glyph-name="Ohungarumlaut.smcp" horiz-adv-x="669" unicode="" /><glyph d="M38 301Q38 368 60 424.5Q82 481 121 522.5Q160 564 214.5 587.5Q269 611 334 611Q399 611 453.5 587.5Q508 564 547.5 523Q587 482 609 425Q631 368 631 301Q631 234 609 177Q587 120 547.5 79Q508 38 453.5 14.5Q399 -9 334 -9Q269 -9 214.5 14.5Q160 38 121 79.5Q82 121 60 177.5Q38 234 38 301ZM489 301Q489 344 478 379Q467 414 447 439.5Q427 465 398 479Q369 493 334 493Q300 493 271.5 479Q243 465 222.5 439.5Q202 414 191 379Q180 344 180 301Q180 258 191 223Q202 188 222.5 162.5Q243 137 271.5 123Q300 109 334 109Q369 109 398 123Q427 137 447 162.5Q467 188 478 223Q489 258 489 301ZM480 663 188 663V756H480Z" glyph-name="Omacron.smcp" horiz-adv-x="669" unicode="" /><glyph d="M38 301Q38 368 60 424.5Q82 481 121 522.5Q160 564 214.5 587.5Q269 611 334 611Q387 611 433 595.5Q479 580 516 551L573 611L630 558L571 495Q600 456 615.5 407Q631 358 631 301Q631 234 609 177Q587 120 547.5 79Q508 38 453.5 14.5Q399 -9 334 -9Q281 -9 235.5 6Q190 21 153 50L98 -9L41 43L99 105Q70 144 54 194Q38 244 38 301ZM180 301Q180 247 196 208L429 458Q410 475 386 484Q362 493 334 493Q300 493 271.5 479Q243 465 222.5 439.5Q202 414 191 379Q180 344 180 301ZM489 301Q489 352 474 391L241 143Q280 109 334 109Q369 109 398 123Q427 137 447 162.5Q467 188 478 223Q489 258 489 301Z" glyph-name="Oslash.smcp" horiz-adv-x="669" unicode="" /><glyph d="M38 301Q38 368 60 424.5Q82 481 121 522.5Q160 564 214.5 587.5Q269 611 334 611Q399 611 453.5 587.5Q508 564 547.5 523Q587 482 609 425Q631 368 631 301Q631 234 609 177Q587 120 547.5 79Q508 38 453.5 14.5Q399 -9 334 -9Q269 -9 214.5 14.5Q160 38 121 79.5Q82 121 60 177.5Q38 234 38 301ZM489 301Q489 344 478 379Q467 414 447 439.5Q427 465 398 479Q369 493 334 493Q300 493 271.5 479Q243 465 222.5 439.5Q202 414 191 379Q180 344 180 301Q180 258 191 223Q202 188 222.5 162.5Q243 137 271.5 123Q300 109 334 109Q369 109 398 123Q427 137 447 162.5Q467 188 478 223Q489 258 489 301ZM478 746Q478 701 457.5 676.5Q437 652 395 652Q382 652 365.5 656Q349 660 333.5 664.5Q318 669 305 673Q292 677 284 677Q271 677 271 663V651H188V677Q188 722 208.5 746.5Q229 771 271 771Q285 771 301 767Q317 763 332.5 758.5Q348 754 361 750Q374 746 382 746Q395 746 395 760V772H478Z" glyph-name="Otilde.smcp" horiz-adv-x="669" unicode="" /><glyph d="M208 191 208 0H72V602H312Q362 602 403 587Q444 572 473 544.5Q502 517 518 479Q534 441 534 396Q534 351 518 313.5Q502 276 473 248.5Q444 221 403 206Q362 191 312 191ZM208 487 208 306H299Q341 306 366.5 330Q392 354 392 396Q392 437 366.5 462Q341 487 299 487Z" glyph-name="P.smcp" horiz-adv-x="558" unicode="" /><glyph d="M465 19Q404 -9 334 -9Q269 -9 214.5 14.5Q160 38 121 79.5Q82 121 60 177.5Q38 234 38 301Q38 368 60 424.5Q82 481 121 522.5Q160 564 214.5 587.5Q269 611 334 611Q399 611 453.5 587.5Q508 564 547.5 523Q587 482 609 425Q631 368 631 301Q631 235 610 180Q589 125 551 83L610 11L526 -55ZM489 301Q489 344 478 379Q467 414 447 439.5Q427 465 398 479Q369 493 334 493Q300 493 271.5 479Q243 465 222.5 439.5Q202 414 191 379Q180 344 180 301Q180 258 191 223Q202 188 222.5 162.5Q243 137 271.5 123Q300 109 334 109Q362 109 386 118L301 223L385 289L465 190Q476 213 482.5 241Q489 269 489 301Z" glyph-name="Q.smcp" horiz-adv-x="669" unicode="" /><glyph d="M208 487 208 320H304Q353 320 379.5 343Q406 366 406 404Q406 442 379.5 464.5Q353 487 305 487ZM208 0 72 0V602H325Q375 602 415.5 587.5Q456 573 485.5 547.5Q515 522 531 487.5Q547 453 547 412Q547 351 515 303Q483 255 432 235L575 0H417L297 209H208Z" glyph-name="R.smcp" horiz-adv-x="598" unicode="" /><glyph d="M208 487 208 320H304Q353 320 379.5 343Q406 366 406 404Q406 442 379.5 464.5Q353 487 305 487ZM208 0 72 0V602H325Q375 602 415.5 587.5Q456 573 485.5 547.5Q515 522 531 487.5Q547 453 547 412Q547 351 515 303Q483 255 432 235L575 0H417L297 209H208ZM416 741 222 641L176 708L355 829Z" glyph-name="Racute.smcp" horiz-adv-x="598" unicode="" /><glyph d="M208 487 208 320H304Q353 320 379.5 343Q406 366 406 404Q406 442 379.5 464.5Q353 487 305 487ZM208 0 72 0V602H325Q375 602 415.5 587.5Q456 573 485.5 547.5Q515 522 531 487.5Q547 453 547 412Q547 351 515 303Q483 255 432 235L575 0H417L297 209H208ZM216 655 145 782H253L289 727L326 782H434L363 655Z" glyph-name="Rcaron.smcp" horiz-adv-x="598" unicode="" /><glyph d="M208 487 208 320H304Q353 320 379.5 343Q406 366 406 404Q406 442 379.5 464.5Q353 487 305 487ZM208 0 72 0V602H325Q375 602 415.5 587.5Q456 573 485.5 547.5Q515 522 531 487.5Q547 453 547 412Q547 351 515 303Q483 255 432 235L575 0H417L297 209H208ZM377 -134Q377 -179 349.5 -222Q322 -265 268 -307L229 -273Q280 -225 280 -205Q280 -197 276 -194Q272 -191 263 -186Q242 -175 230.5 -160Q219 -145 219 -122Q219 -91 241 -70Q263 -49 294 -49Q330 -49 353.5 -73.5Q377 -98 377 -134Z" glyph-name="Rcommaaccent.smcp" horiz-adv-x="598" unicode="" /><glyph d="M542 186Q542 144 523.5 108Q505 72 472.5 46Q440 20 395.5 5.5Q351 -9 300 -9Q212 -9 140 21.5Q68 52 25 110L131 192Q160 153 204.5 130.5Q249 108 298 108Q342 108 368 126.5Q394 145 394 171Q394 220 326 232L213 252Q138 265 93 310Q48 355 48 426Q48 464 65.5 498Q83 532 115 557Q147 582 191.5 596.5Q236 611 290 611Q325 611 360.5 604Q396 597 427.5 584.5Q459 572 486 554.5Q513 537 531 515L424 437Q397 465 362 480Q327 495 287 495Q244 495 219 478.5Q194 462 194 435Q194 411 212.5 396Q231 381 287 372L374 357Q456 343 499 299.5Q542 256 542 186Z" glyph-name="S.smcp" horiz-adv-x="577" unicode="" /><glyph d="M542 186Q542 144 523.5 108Q505 72 472.5 46Q440 20 395.5 5.5Q351 -9 300 -9Q212 -9 140 21.5Q68 52 25 110L131 192Q160 153 204.5 130.5Q249 108 298 108Q342 108 368 126.5Q394 145 394 171Q394 220 326 232L213 252Q138 265 93 310Q48 355 48 426Q48 464 65.5 498Q83 532 115 557Q147 582 191.5 596.5Q236 611 290 611Q325 611 360.5 604Q396 597 427.5 584.5Q459 572 486 554.5Q513 537 531 515L424 437Q397 465 362 480Q327 495 287 495Q244 495 219 478.5Q194 462 194 435Q194 411 212.5 396Q231 381 287 372L374 357Q456 343 499 299.5Q542 256 542 186ZM425 739 231 639L185 706L364 827Z" glyph-name="Sacute.smcp" horiz-adv-x="577" unicode="" /><glyph d="M542 186Q542 144 523.5 108Q505 72 472.5 46Q440 20 395.5 5.5Q351 -9 300 -9Q212 -9 140 21.5Q68 52 25 110L131 192Q160 153 204.5 130.5Q249 108 298 108Q342 108 368 126.5Q394 145 394 171Q394 220 326 232L213 252Q138 265 93 310Q48 355 48 426Q48 464 65.5 498Q83 532 115 557Q147 582 191.5 596.5Q236 611 290 611Q325 611 360.5 604Q396 597 427.5 584.5Q459 572 486 554.5Q513 537 531 515L424 437Q397 465 362 480Q327 495 287 495Q244 495 219 478.5Q194 462 194 435Q194 411 212.5 396Q231 381 287 372L374 357Q456 343 499 299.5Q542 256 542 186ZM214 653 143 780H251L287 725L324 780H432L361 653Z" glyph-name="Scaron.smcp" horiz-adv-x="577" unicode="" /><glyph d="M542 186Q542 150 529 119.5Q516 89 492.5 64.5Q469 40 436.5 23Q404 6 365 -2L302 -130H184L229 -3Q164 7 111.5 35.5Q59 64 25 110L131 192Q160 153 204.5 130.5Q249 108 298 108Q342 108 368 126.5Q394 145 394 171Q394 220 326 232L213 252Q138 265 93 310Q48 355 48 426Q48 464 65.5 498Q83 532 115 557Q147 582 191.5 596.5Q236 611 290 611Q325 611 360.5 604Q396 597 427.5 584.5Q459 572 486 554.5Q513 537 531 515L424 437Q397 465 362 480Q327 495 287 495Q244 495 219 478.5Q194 462 194 435Q194 411 212.5 396Q231 381 287 372L374 357Q456 343 499 299.5Q542 256 542 186Z" glyph-name="Scedilla.smcp" horiz-adv-x="577" unicode="" /><glyph d="M542 186Q542 144 523.5 108Q505 72 472.5 46Q440 20 395.5 5.5Q351 -9 300 -9Q212 -9 140 21.5Q68 52 25 110L131 192Q160 153 204.5 130.5Q249 108 298 108Q342 108 368 126.5Q394 145 394 171Q394 220 326 232L213 252Q138 265 93 310Q48 355 48 426Q48 464 65.5 498Q83 532 115 557Q147 582 191.5 596.5Q236 611 290 611Q325 611 360.5 604Q396 597 427.5 584.5Q459 572 486 554.5Q513 537 531 515L424 437Q397 465 362 480Q327 495 287 495Q244 495 219 478.5Q194 462 194 435Q194 411 212.5 396Q231 381 287 372L374 357Q456 343 499 299.5Q542 256 542 186ZM243 653 135 653L206 780H353L424 653H316L279 708Z" glyph-name="Scircumflex.smcp" horiz-adv-x="577" unicode="" /><glyph d="M542 186Q542 144 523.5 108Q505 72 472.5 46Q440 20 395.5 5.5Q351 -9 300 -9Q212 -9 140 21.5Q68 52 25 110L131 192Q160 153 204.5 130.5Q249 108 298 108Q342 108 368 126.5Q394 145 394 171Q394 220 326 232L213 252Q138 265 93 310Q48 355 48 426Q48 464 65.5 498Q83 532 115 557Q147 582 191.5 596.5Q236 611 290 611Q325 611 360.5 604Q396 597 427.5 584.5Q459 572 486 554.5Q513 537 531 515L424 437Q397 465 362 480Q327 495 287 495Q244 495 219 478.5Q194 462 194 435Q194 411 212.5 396Q231 381 287 372L374 357Q456 343 499 299.5Q542 256 542 186ZM377 -132Q377 -177 349.5 -220Q322 -263 268 -305L229 -271Q280 -223 280 -203Q280 -195 276 -192Q272 -189 263 -184Q242 -173 230.5 -158Q219 -143 219 -120Q219 -89 241 -68Q263 -47 294 -47Q330 -47 353.5 -71.5Q377 -96 377 -132Z" glyph-name="Scommaaccent.smcp" horiz-adv-x="577" unicode="" /><glyph d="M336 0 199 0V481H19V602H516V481H336Z" glyph-name="T.smcp" horiz-adv-x="535" unicode="" /><glyph d="M201 239 113 239V336H201V481H21V602H518V481H338V336H426V239H338V0H201Z" glyph-name="Tbar.smcp" horiz-adv-x="539" unicode="" /><glyph d="M336 0 199 0V481H19V602H516V481H336ZM195 655 124 782H232L268 727L305 782H413L342 655Z" glyph-name="Tcaron.smcp" horiz-adv-x="535" unicode="" /><glyph d="M336 0 199 0V481H19V602H516V481H336ZM246 -222Q221 -222 197.5 -218Q174 -214 149 -205L166 -140Q200 -153 234 -153Q276 -153 276 -126Q276 -101 226 -101Q221 -101 211 -101.5Q201 -102 199 -102V-40Q210 -38 221.5 -37Q233 -36 246 -36Q268 -36 290 -40.5Q312 -45 329.5 -55.5Q347 -66 358 -83.5Q369 -101 369 -127Q369 -148 359.5 -165Q350 -182 333.5 -195Q317 -208 294.5 -215Q272 -222 246 -222Z" glyph-name="Tcedilla.smcp" horiz-adv-x="535" unicode="" /><glyph d="M336 0 199 0V481H19V602H516V481H336ZM345 -134Q345 -179 317.5 -222Q290 -265 236 -307L197 -273Q248 -225 248 -205Q248 -197 244 -194Q240 -191 231 -186Q210 -175 198.5 -160Q187 -145 187 -122Q187 -91 209 -70Q231 -49 262 -49Q298 -49 321.5 -73.5Q345 -98 345 -134Z" glyph-name="Tcommaaccent.smcp" horiz-adv-x="535" unicode="" /><glyph d="M299 218Q341 218 366.5 242Q392 266 392 307Q392 348 366.5 372Q341 396 299 396H208V218ZM208 0 72 0V602H208V511H312Q363 511 404 496Q445 481 474 454Q503 427 518.5 389.5Q534 352 534 307Q534 262 518.5 224.5Q503 187 474 160Q445 133 404 118Q363 103 312 103H208Z" glyph-name="Thorn.smcp" horiz-adv-x="560" unicode="" /><glyph d="M322 108Q378 108 411 141Q444 174 444 231V602H575V214Q575 163 556.5 121.5Q538 80 504.5 51Q471 22 424.5 6.5Q378 -9 322 -9Q265 -9 218 7Q171 23 137 52Q103 81 84.5 122Q66 163 66 214V602H203V231Q203 174 235 141Q267 108 322 108Z" glyph-name="U.smcp" horiz-adv-x="641" unicode="" /><glyph d="M322 108Q378 108 411 141Q444 174 444 231V602H575V214Q575 163 556.5 121.5Q538 80 504.5 51Q471 22 424.5 6.5Q378 -9 322 -9Q265 -9 218 7Q171 23 137 52Q103 81 84.5 122Q66 163 66 214V602H203V231Q203 174 235 141Q267 108 322 108ZM444 741 250 641L204 708L383 829Z" glyph-name="Uacute.smcp" horiz-adv-x="641" unicode="" /><glyph d="M322 108Q378 108 411 141Q444 174 444 231V602H575V214Q575 163 556.5 121.5Q538 80 504.5 51Q471 22 424.5 6.5Q378 -9 322 -9Q265 -9 218 7Q171 23 137 52Q103 81 84.5 122Q66 163 66 214V602H203V231Q203 174 235 141Q267 108 322 108ZM319 639Q253 639 215.5 667Q178 695 178 743V767H279V757Q279 726 319 726Q360 726 360 757V767H460V743Q460 696 422 667.5Q384 639 319 639Z" glyph-name="Ubreve.smcp" horiz-adv-x="641" unicode="" /><glyph d="M322 108Q378 108 411 141Q444 174 444 231V602H575V214Q575 163 556.5 121.5Q538 80 504.5 51Q471 22 424.5 6.5Q378 -9 322 -9Q265 -9 218 7Q171 23 137 52Q103 81 84.5 122Q66 163 66 214V602H203V231Q203 174 235 141Q267 108 322 108ZM283 655 175 655L246 782H393L464 655H356L319 710Z" glyph-name="Ucircumflex.smcp" horiz-adv-x="641" unicode="" /><glyph d="M322 108Q378 108 411 141Q444 174 444 231V602H575V214Q575 163 556.5 121.5Q538 80 504.5 51Q471 22 424.5 6.5Q378 -9 322 -9Q265 -9 218 7Q171 23 137 52Q103 81 84.5 122Q66 163 66 214V602H203V231Q203 174 235 141Q267 108 322 108ZM301 720Q301 691 281.5 670Q262 649 230 649Q198 649 178.5 670Q159 691 159 720Q159 750 179 770Q199 790 230 790Q261 790 281 770Q301 750 301 720ZM481 720Q481 691 461.5 670Q442 649 410 649Q378 649 358.5 670Q339 691 339 720Q339 750 359 770Q379 790 410 790Q441 790 461 770Q481 750 481 720Z" glyph-name="Udieresis.smcp" horiz-adv-x="641" unicode="" /><glyph d="M322 108Q378 108 411 141Q444 174 444 231V602H575V214Q575 163 556.5 121.5Q538 80 504.5 51Q471 22 424.5 6.5Q378 -9 322 -9Q265 -9 218 7Q171 23 137 52Q103 81 84.5 122Q66 163 66 214V602H203V231Q203 174 235 141Q267 108 322 108ZM437 708 392 641L197 741L258 829Z" glyph-name="Ugrave.smcp" horiz-adv-x="641" unicode="" /><glyph d="M322 108Q378 108 411 141Q444 174 444 231V602H575V214Q575 163 556.5 121.5Q538 80 504.5 51Q471 22 424.5 6.5Q378 -9 322 -9Q265 -9 218 7Q171 23 137 52Q103 81 84.5 122Q66 163 66 214V602H203V231Q203 174 235 141Q267 108 322 108ZM578 750 392 641L343 707L513 839ZM346 750 159 641L110 707L280 839Z" glyph-name="Uhungarumlaut.smcp" horiz-adv-x="641" unicode="" /><glyph d="M322 108Q378 108 411 141Q444 174 444 231V602H575V214Q575 163 556.5 121.5Q538 80 504.5 51Q471 22 424.5 6.5Q378 -9 322 -9Q265 -9 218 7Q171 23 137 52Q103 81 84.5 122Q66 163 66 214V602H203V231Q203 174 235 141Q267 108 322 108ZM466 663 174 663V756H466Z" glyph-name="Umacron.smcp" horiz-adv-x="641" unicode="" /><glyph d="M441 -108Q448 -108 457.5 -107Q467 -106 488 -103L483 -175Q464 -181 444 -184.5Q424 -188 406 -188Q357 -188 328.5 -166Q300 -144 300 -104Q300 -71 331 -33Q336 -26 341.5 -19.5Q347 -13 353 -7Q345 -8 337.5 -8.5Q330 -9 322 -9Q265 -9 218 7Q171 23 137 52Q103 81 84.5 122Q66 163 66 214V602H203V231Q203 174 235 141Q267 108 322 108Q378 108 411 141Q444 174 444 231V602H575V214Q575 142 540 91Q505 40 445 14Q418 -33 413 -49Q405 -66 405 -81Q405 -108 441 -108Z" glyph-name="Uogonek.smcp" horiz-adv-x="641" unicode="" /><glyph d="M322 108Q378 108 411 141Q444 174 444 231V602H575V214Q575 163 556.5 121.5Q538 80 504.5 51Q471 22 424.5 6.5Q378 -9 322 -9Q265 -9 218 7Q171 23 137 52Q103 81 84.5 122Q66 163 66 214V602H203V231Q203 174 235 141Q267 108 322 108ZM424 749Q424 728 415.5 709.5Q407 691 392.5 677Q378 663 358.5 655Q339 647 318 647Q297 647 277.5 655Q258 663 243.5 677Q229 691 220.5 709.5Q212 728 212 749Q212 771 220.5 789.5Q229 808 244 821.5Q259 835 278 843Q297 851 318 851Q339 851 358 843Q377 835 392 821.5Q407 808 415.5 789.5Q424 771 424 749ZM273 749Q273 730 285.5 717Q298 704 318 704Q337 704 350 717Q363 730 363 749Q363 768 350 781Q337 794 318 794Q298 794 285.5 781Q273 768 273 749Z" glyph-name="Uring.smcp" horiz-adv-x="641" unicode="" /><glyph d="M322 108Q378 108 411 141Q444 174 444 231V602H575V214Q575 163 556.5 121.5Q538 80 504.5 51Q471 22 424.5 6.5Q378 -9 322 -9Q265 -9 218 7Q171 23 137 52Q103 81 84.5 122Q66 163 66 214V602H203V231Q203 174 235 141Q267 108 322 108ZM463 746Q463 701 442.5 676.5Q422 652 380 652Q367 652 350.5 656Q334 660 318.5 664.5Q303 669 290 673Q277 677 269 677Q256 677 256 663V651H173V677Q173 722 193.5 746.5Q214 771 256 771Q270 771 286 767Q302 763 317.5 758.5Q333 754 346 750Q359 746 367 746Q380 746 380 760V772H463Z" glyph-name="Utilde.smcp" horiz-adv-x="641" unicode="" /><glyph d="M578 602 383 0H213L19 602H171L299 151H302L431 602Z" glyph-name="V.smcp" horiz-adv-x="596" unicode="" /><glyph d="M702 0 518 0L432 407H430L345 0H162L27 602H170L256 147H259L354 602H511L606 147H608L694 602H837Z" glyph-name="W.smcp" horiz-adv-x="864" unicode="" /><glyph d="M702 0 518 0L432 407H430L345 0H162L27 602H170L256 147H259L354 602H511L606 147H608L694 602H837ZM554 741 360 641L314 708L493 829Z" glyph-name="Wacute.smcp" horiz-adv-x="864" unicode="" /><glyph d="M702 0 518 0L432 407H430L345 0H162L27 602H170L256 147H259L354 602H511L606 147H608L694 602H837ZM397 655 289 655L360 782H507L578 655H470L433 710Z" glyph-name="Wcircumflex.smcp" horiz-adv-x="864" unicode="" /><glyph d="M702 0 518 0L432 407H430L345 0H162L27 602H170L256 147H259L354 602H511L606 147H608L694 602H837ZM415 720Q415 691 395.5 670Q376 649 344 649Q312 649 292.5 670Q273 691 273 720Q273 750 293 770Q313 790 344 790Q375 790 395 770Q415 750 415 720ZM595 720Q595 691 575.5 670Q556 649 524 649Q492 649 472.5 670Q453 691 453 720Q453 750 473 770Q493 790 524 790Q555 790 575 770Q595 750 595 720Z" glyph-name="Wdieresis.smcp" horiz-adv-x="864" unicode="" /><glyph d="M702 0 518 0L432 407H430L345 0H162L27 602H170L256 147H259L354 602H511L606 147H608L694 602H837ZM554 708 509 641L314 741L375 829Z" glyph-name="Wgrave.smcp" horiz-adv-x="864" unicode="" /><glyph d="M574 -1 419 -1L287 213H285L156 -1H6L205 311L21 601H175L295 406H297L411 601H563L378 307Z" glyph-name="X.smcp" horiz-adv-x="582" unicode="" /><glyph d="M354 0 217 0V230L8 602H167L289 370H291L412 602H562L354 230Z" glyph-name="Y.smcp" horiz-adv-x="571" unicode="" /><glyph d="M354 0 217 0V230L8 602H167L289 370H291L412 602H562L354 230ZM417 741 223 641L177 708L356 829Z" glyph-name="Yacute.smcp" horiz-adv-x="571" unicode="" /><glyph d="M354 0 217 0V230L8 602H167L289 370H291L412 602H562L354 230ZM253 655 145 655L216 782H363L434 655H326L289 710Z" glyph-name="Ycircumflex.smcp" horiz-adv-x="571" unicode="" /><glyph d="M354 0 217 0V230L8 602H167L289 370H291L412 602H562L354 230ZM266 720Q266 691 246.5 670Q227 649 195 649Q163 649 143.5 670Q124 691 124 720Q124 750 144 770Q164 790 195 790Q226 790 246 770Q266 750 266 720ZM446 720Q446 691 426.5 670Q407 649 375 649Q343 649 323.5 670Q304 691 304 720Q304 750 324 770Q344 790 375 790Q406 790 426 770Q446 750 446 720Z" glyph-name="Ydieresis.smcp" horiz-adv-x="571" unicode="" /><glyph d="M354 0 217 0V230L8 602H167L289 370H291L412 602H562L354 230ZM403 708 358 641L163 741L224 829Z" glyph-name="Ygrave.smcp" horiz-adv-x="571" unicode="" /><glyph d="M524 0 39 0V113L338 481H49V602H512V489L212 120H524Z" glyph-name="Z.smcp" horiz-adv-x="562" unicode="" /><glyph d="M524 0 39 0V113L338 481H49V602H512V489L212 120H524ZM400 741 206 641L160 708L339 829Z" glyph-name="Zacute.smcp" horiz-adv-x="562" unicode="" /><glyph d="M524 0 39 0V113L338 481H49V602H512V489L212 120H524ZM212 655 141 782H249L285 727L322 782H430L359 655Z" glyph-name="Zcaron.smcp" horiz-adv-x="562" unicode="" /><glyph d="M524 0 39 0V113L338 481H49V602H512V489L212 120H524ZM282 811Q316 811 339 788Q362 765 362 732Q362 699 339.5 676.5Q317 654 282 654Q247 654 224.5 676.5Q202 699 202 732Q202 765 225 788Q248 811 282 811Z" glyph-name="Zdotaccent.smcp" horiz-adv-x="562" unicode="" /><glyph d="M316 575 122 475L76 542L255 663Z" glyph-name="acute.smcp" horiz-adv-x="389" unicode="" /><glyph d="M239 465Q239 451 247 436Q255 421 277 396Q303 410 318 429.5Q333 449 333 466Q333 486 320 499Q307 512 287 512Q266 512 252.5 499Q239 486 239 465ZM175 181Q175 147 200.5 125.5Q226 104 264 104Q316 104 354 136L234 269Q205 251 190 228Q175 205 175 181ZM428 50Q393 21 350.5 6.5Q308 -8 254 -8Q209 -8 170 5.5Q131 19 103 43Q75 67 59 100Q43 133 43 171Q43 278 169 343L152 365Q132 390 124.5 413.5Q117 437 117 463Q117 494 129.5 521Q142 548 165 568Q188 588 219.5 599.5Q251 611 288 611Q324 611 353.5 600Q383 589 404 570.5Q425 552 436.5 526.5Q448 501 448 472Q448 428 421.5 390.5Q395 353 341 324L428 230Q447 266 464 331H592Q582 277 561 226.5Q540 176 512 139L521 129Q547 100 582 100Q592 100 608 104V4Q593 -1 577 -3Q561 -5 547 -5Q533 -5 519.5 -3.5Q506 -2 491.5 3Q477 8 461.5 19.5Q446 31 428 50Z" glyph-name="ampersand.smcp" horiz-adv-x="631" unicode="" /><glyph d="M348 282 453 282V253Q453 193 427 161Q401 129 353 129Q331 129 307.5 134.5Q284 140 261 146.5Q238 153 217.5 158.5Q197 164 182 164Q156 164 156 136V128H52V157Q52 217 78 249Q104 281 152 281Q173 281 197 275.5Q221 270 244 263.5Q267 257 287.5 251.5Q308 246 322 246Q348 246 348 274ZM348 468 453 468V439Q453 379 427 347Q401 315 353 315Q331 315 307.5 320.5Q284 326 261 332.5Q238 339 217.5 344.5Q197 350 182 350Q156 350 156 322V314H52V343Q52 403 78 435Q104 467 152 467Q173 467 197 461.5Q221 456 244 449.5Q267 443 287.5 437.5Q308 432 322 432Q348 432 348 460Z" glyph-name="approxequal.smcp" horiz-adv-x="505" unicode="" /></font>
</defs>
</svg>
